<?xml version="1.0" encoding="utf-8"?>
<!-- Generator: Adobe Illustrator 25.2.3, SVG Export Plug-In . SVG Version: 6.00 Build 0)  -->
<svg version="1.1" id="Capa_1" xmlns="http://www.w3.org/2000/svg" xmlns:xlink="http://www.w3.org/1999/xlink" x="0px" y="0px"
	 viewBox="0 0 67.4 67.4" style="enable-background:new 0 0 67.4 67.4;" xml:space="preserve">
<style type="text/css">
	.st0{fill:#470137;}
	.st1{fill:#FF61F6;}
</style>
<g id="git" transform="translate(-2.555 -2.558)">
</g>
<g id="Layer_2_1_">
	<g id="Surfaces">
		<g id="UI_UX_Surface">
			<g id="Outline_no_shadow">
				<path class="st0" d="M11.9,0.8h43.5c6.6,0,11.9,5.3,11.9,11.9v41.8c0,6.6-5.3,11.9-11.9,11.9H11.9C5.3,66.6,0,61.2,0,54.6V12.8
					C0,6.2,5.3,0.8,11.9,0.8z"/>
			</g>
		</g>
	</g>
	<g id="Outlined_Mnemonics_Logos">
		<g id="Xd">
			<path class="st1" d="M35.4,18.1L27,32l9,14.7c0.1,0.1,0.1,0.2,0.1,0.3c0,0.1-0.1,0-0.3,0.1h-6.4c-0.4,0-0.8,0-1-0.3
				c-0.6-1.2-1.2-2.3-1.8-3.5c-0.6-1.2-1.2-2.3-1.9-3.5s-1.3-2.4-2-3.7h-0.1c-0.6,1.2-1.2,2.4-1.9,3.6c-0.6,1.2-1.3,2.4-1.9,3.6
				c-0.6,1.2-1.3,2.4-1.9,3.5c-0.1,0.3-0.3,0.3-0.6,0.3H10c-0.1,0-0.2,0.1-0.2-0.1c0-0.1,0-0.2,0.1-0.3l8.7-14.3l-8.5-14.4
				C10,18,10,17.9,10.1,17.8c0.1-0.1,0.2-0.1,0.3-0.1h6.4c0.1,0,0.3,0,0.4,0.1c0.1,0.1,0.2,0.1,0.3,0.3c0.5,1.2,1.2,2.4,1.8,3.6
				c0.7,1.2,1.3,2.4,2,3.6c0.7,1.2,1.3,2.4,1.9,3.6h0.1c0.6-1.2,1.2-2.4,1.8-3.6s1.3-2.4,1.9-3.5c0.6-1.2,1.3-2.4,1.9-3.5
				c0-0.1,0.1-0.2,0.2-0.3c0.1-0.1,0.2-0.1,0.4-0.1h5.9c0.1,0,0.3,0.1,0.3,0.2C35.6,17.9,35.5,18.1,35.4,18.1L35.4,18.1z"/>
			<path class="st1" d="M48.4,47.7c-2.1,0-4.2-0.4-6-1.3c-1.8-0.8-3.2-2.2-4.2-3.8c-1-1.7-1.5-3.8-1.5-6.4c0-2.1,0.5-4.1,1.5-5.9
				c1.1-1.8,2.6-3.3,4.5-4.4c2-1.1,4.3-1.6,7.1-1.6c0.1,0,0.3,0,0.6,0c0.3,0,0.5,0,0.9,0.1v-8.9c0-0.2,0.1-0.3,0.3-0.3h5.7
				c0.1,0,0.3,0.1,0.3,0.2c0,0,0,0.1,0,0.1v26.7c0,0.5,0,1.1,0.1,1.7c0.1,0.6,0.1,1.2,0.1,1.6c0,0.2-0.1,0.4-0.3,0.4
				c-1.5,0.6-3,1.1-4.6,1.3C51.3,47.6,49.9,47.7,48.4,47.7z M51.2,42.1V29.8c-0.3-0.1-0.5-0.1-0.8-0.1c-0.3,0-0.6-0.1-0.9-0.1
				c-1.1,0-2.2,0.2-3.2,0.7c-1,0.5-1.8,1.2-2.4,2.1c-0.6,0.9-0.9,2.1-0.9,3.6c0,1,0.1,2,0.5,2.9c0.3,0.8,0.7,1.4,1.3,2
				c0.5,0.5,1.2,0.9,1.9,1.1c0.8,0.3,1.5,0.4,2.3,0.4c0.4,0,0.8,0,1.2-0.1C50.5,42.3,50.8,42.2,51.2,42.1z"/>
		</g>
	</g>
</g>
</svg>
