<?xml version="1.0" encoding="utf-8"?>
<!-- Generator: Adobe Illustrator 24.0.1, SVG Export Plug-In . SVG Version: 6.00 Build 0)  -->
<svg version="1.1" id="Capa_1" xmlns="http://www.w3.org/2000/svg" xmlns:xlink="http://www.w3.org/1999/xlink" x="0px" y="0px"
	 viewBox="0 0 67.4 67.4" style="enable-background:new 0 0 67.4 67.4;" xml:space="preserve">
<style type="text/css">
	.st0{display:none;}
	.st1{fill:#DD0031;}
	.st2{fill:#C3002F;}
	.st3{fill:#FFFFFF;}
</style>
<g id="git" transform="translate(-2.555 -2.558)" class="st0">
</g>
<g>
	<polygon class="st1" points="33.9,0.9 33.9,0.9 33.9,0.9 2.8,12 7.5,53.2 33.9,67.8 33.9,67.8 33.9,67.8 60.3,53.2 65,12 	"/>
	<polygon class="st2" points="33.9,0.9 33.9,8.4 33.9,8.3 33.9,42.2 33.9,42.2 33.9,67.8 33.9,67.8 60.3,53.2 65,12 	"/>
	<path class="st3" d="M33.9,8.3L14.4,51.9l0,0h7.3l0,0l3.9-9.8h16.5l3.9,9.8l0,0h7.3l0,0L33.9,8.3L33.9,8.3L33.9,8.3L33.9,8.3
		L33.9,8.3z M39.6,36.2H28.2l5.7-13.7L39.6,36.2z"/>
</g>
</svg>
