<svg xmlns="http://www.w3.org/2000/svg" width="332.409" height="310.528" viewBox="0 0 332.409 310.528">
  <g id="Simple_Shiny" data-name="Simple Shiny" transform="translate(-458.687 -121.028)" opacity="0.6">
    <path id="Trazado_11" data-name="Trazado 11" d="M-537.97-400.75c28.078-.267,44.014-32.952,69.836-43.984,33.507-14.314,83.745,1.219,102.867-29.8,18.384-29.818-8.386-68.424-22.558-100.459-11.3-25.55-33.3-42.738-50.523-64.736-18.359-23.449-25.948-59.017-54.062-68.843s-57.408,9.449-85.2,20.172c-25.621,9.886-52.911,18.481-70.224,39.8-17.077,21.027-17.447,49.645-23.8,75.977-7.087,29.363-28.86,60.243-15.628,87.4,13.269,27.23,52.233,26.908,78.6,41.825,24.448,13.833,42.607,42.914,70.7,42.647" transform="translate(1150.13 832.304)" fill="#1d2238" opacity="0.08"/>
  </g>
</svg>
