<?xml version="1.0" encoding="utf-8"?>
<!-- Generator: Adobe Illustrator 25.2.3, SVG Export Plug-In . SVG Version: 6.00 Build 0)  -->
<svg version="1.1" id="Capa_1" xmlns="http://www.w3.org/2000/svg" xmlns:xlink="http://www.w3.org/1999/xlink" x="0px" y="0px"
	 viewBox="0 0 67.4 67.4" style="enable-background:new 0 0 67.4 67.4;" xml:space="preserve">
<style type="text/css">
	.st0{fill:url(#SVGID_1_);}
	.st1{fill:url(#SVGID_2_);stroke:#FFFFFF;}
</style>
<g id="git" transform="translate(-2.555 -2.558)">
</g>
<linearGradient id="SVGID_1_" gradientUnits="userSpaceOnUse" x1="329.7441" y1="-52.3084" x2="388.6371" y2="-5.5601" gradientTransform="matrix(1 0 0 1 -322.96 64.64)">
	<stop  offset="0" style="stop-color:#9013FE"/>
	<stop  offset="1" style="stop-color:#6610F2"/>
</linearGradient>
<path class="st0" d="M7.4,13.9c-0.1-3.7,2.7-7,6.6-7h39.4c3.8,0,6.7,3.4,6.6,7c-0.1,3.5,0,8.1,1.2,11.8s3.1,6.1,6.2,6.4v3.4
	c-3.2,0.3-5.1,2.7-6.2,6.4C60,45.5,59.8,50,60,53.5c0.1,3.7-2.7,7-6.6,7H14c-3.8,0-6.7-3.4-6.6-7c0.1-3.5,0-8.1-1.2-11.8
	c-1.1-3.7-3.1-6.1-6.3-6.4V32c3.2-0.3,5.1-2.7,6.3-6.4S7.6,17.4,7.4,13.9z"/>
<linearGradient id="SVGID_2_" gradientUnits="userSpaceOnUse" x1="347.8604" y1="-43.0169" x2="361.0248" y2="-20.7542" gradientTransform="matrix(1 0 0 1 -322.96 64.64)">
	<stop  offset="0" style="stop-color:#FFFFFF"/>
	<stop  offset="1" style="stop-color:#F1E5FC"/>
</linearGradient>
<path class="st1" d="M35.2,48c6.2,0,10-3,10-8.1c0-3.8-2.7-6.6-6.7-7v-0.2c2.9-0.5,5.2-3.2,5.2-6.2c0-4.3-3.4-7.1-8.6-7.1H23.4V48
	H35.2z M28,23h6c3.3,0,5.2,1.5,5.2,4.1c0,2.8-2.2,4.4-6.1,4.4H28V23z M28,44.3v-9.4h6c4.3,0,6.5,1.6,6.5,4.7c0,3.1-2.2,4.7-6.3,4.7
	H28z"/>
</svg>
