<svg xmlns="http://www.w3.org/2000/svg" width="390" height="446.88" viewBox="0 0 390 446.88">
  <g id="Simple_Shiny" data-name="Simple Shiny" transform="translate(540.208 560.172)" opacity="0.6">
    <rect id="Rectángulo_5" data-name="Rectángulo 5" width="390" height="446.881" transform="translate(-540.208 -560.172)" fill="#e8f3ff"/>
    <path id="Trazado_11" data-name="Trazado 11" d="M-547.469-419.968c26.341-.25,41.29-30.913,65.514-41.261,31.433-13.428,78.562,1.144,96.5-27.952,17.246-27.972-7.867-64.189-21.162-94.241-10.6-23.969-31.239-40.093-47.4-60.729-17.223-22-24.342-55.365-50.716-64.582s-53.855,8.864-79.926,18.923c-24.035,9.274-49.636,17.337-65.878,37.335C-666.551-632.75-666.9-605.9-672.86-581.2c-6.648,27.546-27.074,56.515-14.661,81.988,12.448,25.545,49,25.243,73.732,39.237,22.935,12.977,39.97,40.258,66.32,40.007" transform="translate(160 156)" fill="#87c0ff" opacity="0.27"/>
    <path id="Trazado_12" data-name="Trazado 12" d="M1461.246,741.371c23.356,1.226,35.948-27.669,54.831-41.47,17.445-12.749,40.376-18.3,51.935-36.558A94.563,94.563,0,0,0,1581,597.366c-3.871-22.245-20.146-39.234-34.353-56.783-14.69-18.143-27.211-41.366-49.819-47.181-22.509-5.789-43.816,10.656-66.065,17.374-22.042,6.656-48.449,4.959-64.037,21.909-15.658,17.028-13.174,43.046-16.718,65.906-3.584,23.134-16.566,48.845-4.137,68.682,12.573,20.066,44.2,14.265,64.122,27.061s27.617,45.8,51.252,47.037" transform="translate(-1754.42 -864.084)" fill="#fff" opacity="0.59"/>
  </g>
</svg>
