<?xml version="1.0" encoding="utf-8"?>
<!-- Generator: Adobe Illustrator 25.2.3, SVG Export Plug-In . SVG Version: 6.00 Build 0)  -->
<svg version="1.1" id="Capa_1" xmlns="http://www.w3.org/2000/svg" xmlns:xlink="http://www.w3.org/1999/xlink" x="0px" y="0px"
	 viewBox="0 0 67.4 67.4" style="enable-background:new 0 0 67.4 67.4;" xml:space="preserve">
<style type="text/css">
	.st0{fill:#264DE4;}
	.st1{fill:#2965F1;}
	.st2{fill:#EBEBEB;}
	.st3{fill:#FFFFFF;}
</style>
<g id="git" transform="translate(-2.555 -2.558)">
</g>
<g id="g3013" transform="translate(119,276.3622)">
	<polygon id="polygon2989" class="st0" points="-55.6,-276.4 -61,-215.7 -85.3,-209 -109.6,-215.7 -115,-276.4 	"/>
	<polygon id="polygon2991" class="st1" points="-65.6,-219.6 -61,-271.4 -85.3,-271.4 -85.3,-214.1 	"/>
	<polygon id="polygon2993" class="st2" points="-102.6,-248.9 -102,-241.5 -85.3,-241.5 -85.3,-248.9 	"/>
	<polygon id="polygon2995" class="st2" points="-85.3,-264 -85.3,-264 -104,-264 -103.3,-256.5 -85.3,-256.5 	"/>
	<polygon id="polygon2997" class="st2" points="-85.3,-221.8 -85.3,-229.6 -85.3,-229.6 -93.6,-231.8 -94.1,-237.7 -98.2,-237.7 
		-101.6,-237.7 -100.6,-226.1 -85.3,-221.8 	"/>
	<polygon id="polygon3005" class="st3" points="-76.2,-241.5 -77,-231.8 -85.3,-229.6 -85.3,-221.8 -70.1,-226.1 -70,-227.3 
		-68.2,-246.9 -68,-248.9 -66.7,-264 -85.3,-264 -85.3,-256.5 -74.8,-256.5 -75.5,-248.9 -85.3,-248.9 -85.3,-241.5 	"/>
</g>
</svg>
