<svg xmlns="http://www.w3.org/2000/svg" xmlns:xlink="http://www.w3.org/1999/xlink" width="254.903" height="243.205" viewBox="0 0 254.903 243.205">
  <defs>
    <clipPath id="clip-path">
      <path id="Trazado_233" data-name="Trazado 233" d="M295.734,384.806c-1.733,2.815-10.525,4.149-15.324,4.023s-18.608-6.655-19.544-8.047c-.868-1.28-3-5.521.287-8.083a6.364,6.364,0,0,1,.886-.573c2.25-1.218,17.213,2.623,17.213,2.623s.927-.586,1.267-.543c1.044.133,1.792.978,3.9,1.579,1.477.422,5.508-1.2,8.083.194a3.554,3.554,0,0,1,.783.568C295.69,378.847,297.464,381.983,295.734,384.806Z" transform="translate(-259.382 -371.887)" fill="#43f7d4" stroke="#263238" stroke-linecap="round" stroke-linejoin="round" stroke-width="1"/>
    </clipPath>
    <clipPath id="clip-path-2">
      <path id="Trazado_238" data-name="Trazado 238" d="M332.16,424.137l4.484,3.519a51.377,51.377,0,0,0,6.429-.962h0c2.124-.491,3.98-1.2,4.08-2.163.156-1.469-1.415-1.871-3.281-1.815-.348,0-.706.036-1.067.072-2.987.32-6.785-1.328-6.785-1.328Z" transform="translate(-332.16 -421.46)" fill="#263238" stroke="#263238" stroke-linecap="round" stroke-linejoin="round" stroke-width="1"/>
    </clipPath>
    <clipPath id="clip-path-3">
      <path id="Trazado_242" data-name="Trazado 242" d="M347.579,437.3c-.809.13.079,1.792,1.175,1.28S348.388,437.168,347.579,437.3Z" transform="translate(-347.266 -437.288)" fill="#fff" stroke="#263238" stroke-linecap="round" stroke-linejoin="round" stroke-width="1"/>
    </clipPath>
    <clipPath id="clip-path-4">
      <path id="Trazado_246" data-name="Trazado 246" d="M373.783,430.323c2.124-.491,3.98-1.2,4.08-2.163.156-1.469-1.415-1.871-3.281-1.815A3.487,3.487,0,0,0,373.783,430.323Z" transform="translate(-373.433 -426.34)" fill="#fff" stroke="#263238" stroke-linecap="round" stroke-linejoin="round" stroke-width="1"/>
    </clipPath>
    <clipPath id="clip-path-5">
      <path id="Trazado_256" data-name="Trazado 256" d="M277.9,423.529l-4.827,3.028a51.508,51.508,0,0,1-6.294-1.63h0c-2.06-.711-3.839-1.607-3.839-2.58,0-1.479,1.6-1.712,3.455-1.461.346.046.7.11,1.055.184,2.936.632,6.885-.609,6.885-.609Z" transform="translate(-262.94 -420.46)" fill="#263238" stroke="#263238" stroke-linecap="round" stroke-linejoin="round" stroke-width="1"/>
    </clipPath>
  </defs>
  <g id="design-develop" transform="translate(0.5)">
    <g id="mas" transform="translate(89.346 119.872)">
      <line id="Línea_5" data-name="Línea 5" y2="50" transform="translate(25.028 -0.386)" fill="none" stroke="#43f7d4" stroke-width="3"/>
      <line id="Línea_6" data-name="Línea 6" y2="50.056" transform="translate(50.056 25.028) rotate(90)" fill="none" stroke="#43f7d4" stroke-width="3"/>
    </g>
    <g id="Website_Creator-bro" data-name="Website Creator-bro">
      <g id="freepik--background-simple--inject-2" transform="translate(2.322 0)">
        <path id="Trazado_203" data-name="Trazado 203" d="M60.774,64.43s-7.136,18.428,2.892,36.985,30.683,28.359,47.215,36.741,33.7,4.3,41.855-9.429-3.03-23.529-3.046-43.107,2.931-24.76-7.678-41.3-36.616-20.2-56.283-7.934S60.774,64.43,60.774,64.43Z" transform="translate(-58.313 -29.116)" fill="#fff" opacity="0.7"/>
        <path id="Trazado_204" data-name="Trazado 204" d="M62.291,155.6h54.054c.218-.348.438-.7.663-1.037,5.815-8.851,15.127-15.162,25.3-18.124,4.556-1.326,9.491-2.114,13.151-5.134,3.768-3.1,5.5-8.06,6.245-12.884.909-5.841.417-12.39-3.547-16.775-4.656-5.147-12.457-5.726-18.523-9.1-10.44-5.81-14.487-19.04-23.985-26.289A29.323,29.323,0,0,0,94.284,60.91C84,62.336,74.32,69.229,71.415,79.338a25.5,25.5,0,0,0-.88,9.066c.463,6.028,1.761,12.132.537,18.052-1.349,6.524-5.592,12.03-8.129,18.2-3.158,7.678-3.583,16.278-2.245,24.464a42.147,42.147,0,0,0,1.592,6.486Z" transform="translate(-59.555 -52.57)" fill="#43f7d4"/>
        <path id="Trazado_205" data-name="Trazado 205" d="M62.291,155.6h54.054c.218-.348.438-.7.663-1.037,5.815-8.851,15.127-15.162,25.3-18.124,4.556-1.326,9.491-2.114,13.151-5.134,3.768-3.1,5.5-8.06,6.245-12.884.909-5.841.417-12.39-3.547-16.775-4.656-5.147-12.457-5.726-18.523-9.1-10.44-5.81-14.487-19.04-23.985-26.289A29.323,29.323,0,0,0,94.284,60.91C84,62.336,74.32,69.229,71.415,79.338a25.5,25.5,0,0,0-.88,9.066c.463,6.028,1.761,12.132.537,18.052-1.349,6.524-5.592,12.03-8.129,18.2-3.158,7.678-3.583,16.278-2.245,24.464a42.147,42.147,0,0,0,1.592,6.486Z" transform="translate(-59.555 -52.57)" fill="#fff" opacity="0.7"/>
      </g>
      <g id="freepik--Window--inject-2" transform="translate(0 20.677)">
        <path id="Trazado_206" data-name="Trazado 206" d="M50.325,109.9h64.358a1.085,1.085,0,0,1,1.085,1.085v3.036H49.24v-3.036A1.085,1.085,0,0,1,50.325,109.9Z" transform="translate(-49.24 -109.9)" fill="#43f7d4" stroke="#263238" stroke-linecap="round" stroke-linejoin="round" stroke-width="1"/>
        <rect id="Rectángulo_118" data-name="Rectángulo 118" width="67.24" height="47.317" transform="translate(2.913 4.881)" fill="#fff" stroke="#263238" stroke-linecap="round" stroke-linejoin="round" stroke-width="1"/>
        <path id="Trazado_207" data-name="Trazado 207" d="M321.4,114.964a1.024,1.024,0,1,1-1.024-1.024A1.024,1.024,0,0,1,321.4,114.964Z" transform="translate(-250.216 -112.906)" fill="#fff" stroke="#263238" stroke-linecap="round" stroke-linejoin="round" stroke-width="1"/>
        <path id="Trazado_208" data-name="Trazado 208" d="M307.238,114.964a1.024,1.024,0,1,1-1.024-1.024A1.024,1.024,0,0,1,307.238,114.964Z" transform="translate(-239.68 -112.906)" fill="#fff" stroke="#263238" stroke-linecap="round" stroke-linejoin="round" stroke-width="1"/>
        <path id="Trazado_209" data-name="Trazado 209" d="M293.048,114.964a1.024,1.024,0,1,1-1.024-1.024A1.024,1.024,0,0,1,293.048,114.964Z" transform="translate(-229.122 -112.906)" fill="#fff" stroke="#263238" stroke-linecap="round" stroke-linejoin="round" stroke-width="1"/>
        <line id="Línea_10" data-name="Línea 10" x1="2.662" transform="translate(65.454 6.911)" fill="none" stroke="#263238" stroke-linecap="round" stroke-linejoin="round" stroke-width="2"/>
        <line id="Línea_11" data-name="Línea 11" x1="2.662" transform="translate(65.454 7.991)" fill="none" stroke="#263238" stroke-linecap="round" stroke-linejoin="round" stroke-width="2"/>
        <line id="Línea_12" data-name="Línea 12" x1="2.662" transform="translate(65.454 9.071)" fill="none" stroke="#263238" stroke-linecap="round" stroke-linejoin="round" stroke-width="2"/>
        <line id="Línea_13" data-name="Línea 13" x2="20.151" transform="translate(7.568 34.83)" fill="none" stroke="#263238" stroke-linecap="round" stroke-linejoin="round" stroke-width="2"/>
        <line id="Línea_14" data-name="Línea 14" x2="20.151" transform="translate(7.568 36.419)" fill="none" stroke="#263238" stroke-linecap="round" stroke-linejoin="round" stroke-width="2"/>
        <line id="Línea_15" data-name="Línea 15" x2="15.889" transform="translate(7.568 38.037)" fill="none" stroke="#263238" stroke-linecap="round" stroke-linejoin="round" stroke-width="2"/>
        <line id="Línea_16" data-name="Línea 16" y2="0.128" transform="translate(50.299 5.413)" fill="none" stroke="#263238" stroke-linecap="round" stroke-linejoin="round" stroke-width="1"/>
        <line id="Línea_17" data-name="Línea 17" y2="44.594" transform="translate(50.299 6.309)" fill="none" stroke="#263238" stroke-linecap="round" stroke-linejoin="round" stroke-width="1" stroke-dasharray="0.998 2.995"/>
        <line id="Línea_18" data-name="Línea 18" y2="0.128" transform="translate(50.299 51.287)" fill="none" stroke="#263238" stroke-linecap="round" stroke-linejoin="round" stroke-width="1"/>
        <line id="Línea_19" data-name="Línea 19" x2="0.128" transform="translate(3.721 41.587)" fill="none" stroke="#263238" stroke-linecap="round" stroke-linejoin="round" stroke-width="1"/>
        <line id="Línea_20" data-name="Línea 20" x2="63.997" transform="translate(4.615 41.587)" fill="none" stroke="#263238" stroke-linecap="round" stroke-linejoin="round" stroke-width="1" stroke-dasharray="0.998 2.994"/>
        <line id="Línea_21" data-name="Línea 21" x2="0.128" transform="translate(68.996 41.587)" fill="none" stroke="#263238" stroke-linecap="round" stroke-linejoin="round" stroke-width="1"/>
        <rect id="Rectángulo_119" data-name="Rectángulo 119" width="0.883" height="0.883" transform="translate(49.859 41.144)" fill="#fff" stroke="#263238" stroke-linecap="round" stroke-linejoin="round" stroke-width="1"/>
        <line id="Línea_22" data-name="Línea 22" x1="11.789" transform="translate(34.986 33.104)" fill="none" stroke="#263238" stroke-linecap="round" stroke-linejoin="round" stroke-width="1"/>
        <path id="Trazado_210" data-name="Trazado 210" d="M197.255,244.61s0-5.48-6.122-5.48S185,244.61,185,244.61" transform="translate(-150.252 -206.054)" fill="none" stroke="#263238" stroke-linecap="round" stroke-linejoin="round" stroke-width="1"/>
        <circle id="Elipse_7" data-name="Elipse 7" cx="0.517" cy="0.517" r="0.517" transform="translate(46.485 38.039)" fill="#43f7d4" stroke="#263238" stroke-linecap="round" stroke-linejoin="round" stroke-width="1"/>
        <path id="Trazado_211" data-name="Trazado 211" d="M183,259.052a.512.512,0,1,1,.512.512A.512.512,0,0,1,183,259.052Z" transform="translate(-148.764 -220.496)" fill="#43f7d4" stroke="#263238" stroke-linecap="round" stroke-linejoin="round" stroke-width="1"/>
        <rect id="Rectángulo_120" data-name="Rectángulo 120" width="0.906" height="0.906" transform="translate(47.455 33.529) rotate(180)" fill="#43f7d4" stroke="#263238" stroke-linecap="round" stroke-linejoin="round" stroke-width="1"/>
        <rect id="Rectángulo_121" data-name="Rectángulo 121" width="0.906" height="0.906" transform="translate(41.333 33.529) rotate(180)" fill="#43f7d4" stroke="#263238" stroke-linecap="round" stroke-linejoin="round" stroke-width="1"/>
        <rect id="Rectángulo_122" data-name="Rectángulo 122" width="0.906" height="0.906" transform="translate(35.211 33.529) rotate(180)" fill="#43f7d4" stroke="#263238" stroke-linecap="round" stroke-linejoin="round" stroke-width="1"/>
        <path id="Trazado_212" data-name="Trazado 212" d="M78.531,157.787v-1.812l-1.354-.115a3.863,3.863,0,0,0-.335-.814l.875-1.039-1.28-1.28L75.4,153.6a3.64,3.64,0,0,0-.814-.335l-.118-1.357H72.657l-.118,1.357a3.585,3.585,0,0,0-.811.335l-1.042-.875-1.28,1.28.875,1.039a3.732,3.732,0,0,0-.335.814l-1.357.115v1.812l1.357.115a3.783,3.783,0,0,0,.335.814l-.875,1.039,1.28,1.28,1.042-.875a3.583,3.583,0,0,0,.806.335l.118,1.357h1.81l.118-1.357a3.64,3.64,0,0,0,.811-.335l1.042.875,1.28-1.28-.875-1.039a3.918,3.918,0,0,0,.335-.814Zm-4.973,1.2a2.1,2.1,0,1,1,2.1-2.1A2.1,2.1,0,0,1,73.558,158.984Z" transform="translate(-63.637 -141.158)" fill="#43f7d4" stroke="#263238" stroke-linecap="round" stroke-linejoin="round" stroke-width="1"/>
        <path id="Trazado_213" data-name="Trazado 213" d="M111.686,179.026v-1.239l-.929-.082a2.511,2.511,0,0,0-.228-.555l.6-.712-.878-.875-.712.6a2.646,2.646,0,0,0-.555-.23L108.9,175h-1.239l-.082.929a2.647,2.647,0,0,0-.555.23l-.712-.6-.878.875.6.712a2.4,2.4,0,0,0-.23.555l-.929.082v1.239l.929.079a2.354,2.354,0,0,0,.23.555l-.6.717.878.875.712-.6a2.646,2.646,0,0,0,.555.23l.082.927H108.9l.079-.927a2.646,2.646,0,0,0,.555-.23l.712.6.878-.875-.586-.714a2.459,2.459,0,0,0,.228-.555Zm-3.4.819a1.441,1.441,0,1,1,1.438-1.438A1.441,1.441,0,0,1,108.284,179.845Z" transform="translate(-90.639 -158.338)" fill="#43f7d4" stroke="#263238" stroke-linecap="round" stroke-linejoin="round" stroke-width="1"/>
        <line id="Línea_23" data-name="Línea 23" x2="9.913" transform="translate(52.828 44.597)" fill="none" stroke="#263238" stroke-linecap="round" stroke-linejoin="round" stroke-width="2"/>
        <line id="Línea_24" data-name="Línea 24" x2="9.913" transform="translate(52.828 46.186)" fill="none" stroke="#263238" stroke-linecap="round" stroke-linejoin="round" stroke-width="2"/>
        <line id="Línea_25" data-name="Línea 25" x2="5.651" transform="translate(52.828 47.804)" fill="none" stroke="#263238" stroke-linecap="round" stroke-linejoin="round" stroke-width="2"/>
        <path id="Trazado_214" data-name="Trazado 214" d="M185.719,291.81H180.5a1.28,1.28,0,0,1-1.28-1.28h0a1.28,1.28,0,0,1,1.28-1.28h5.219a1.28,1.28,0,0,1,1.28,1.28h0A1.28,1.28,0,0,1,185.719,291.81Z" transform="translate(-145.952 -243.346)" fill="#43f7d4" stroke="#263238" stroke-linecap="round" stroke-linejoin="round" stroke-width="1"/>
        <path id="Trazado_215" data-name="Trazado 215" d="M223.719,291.81H218.5a1.28,1.28,0,0,1-1.28-1.28h0a1.28,1.28,0,0,1,1.28-1.28h5.219a1.28,1.28,0,0,1,1.28,1.28h0A1.28,1.28,0,0,1,223.719,291.81Z" transform="translate(-174.226 -243.346)" fill="#43f7d4" stroke="#263238" stroke-linecap="round" stroke-linejoin="round" stroke-width="1"/>
        <rect id="Rectángulo_123" data-name="Rectángulo 123" width="11.067" height="11.067" transform="translate(53.552 21.006)" fill="#fff" stroke="#263238" stroke-linecap="round" stroke-linejoin="round" stroke-width="1"/>
        <line id="Línea_26" data-name="Línea 26" x2="11.067" y2="11.067" transform="translate(53.552 21.006)" fill="#fff" stroke="#263238" stroke-linecap="round" stroke-linejoin="round" stroke-width="1"/>
        <line id="Línea_27" data-name="Línea 27" x1="11.067" y2="11.067" transform="translate(53.552 21.006)" fill="#fff" stroke="#263238" stroke-linecap="round" stroke-linejoin="round" stroke-width="1"/>
        <path id="Trazado_216" data-name="Trazado 216" d="M264.612,142.88v2.583l-1.139,1.139H260.89V142.88Z" transform="translate(-206.718 -134.439)" fill="#fff" stroke="#263238" stroke-linecap="round" stroke-linejoin="round" stroke-width="1"/>
        <path id="Trazado_217" data-name="Trazado 217" d="M272.119,152.97l-1.139,1.139V152.97Z" transform="translate(-214.226 -141.946)" fill="#fff" stroke="#263238" stroke-linecap="round" stroke-linejoin="round" stroke-width="1"/>
        <path id="Trazado_218" data-name="Trazado 218" d="M109.982,220.91v2.583l-1.139,1.142H106.26V220.91Z" transform="translate(-91.666 -192.497)" fill="#fff" stroke="#263238" stroke-linecap="round" stroke-linejoin="round" stroke-width="1"/>
        <path id="Trazado_219" data-name="Trazado 219" d="M117.489,231l-1.139,1.142V231Z" transform="translate(-99.173 -200.005)" fill="#fff" stroke="#263238" stroke-linecap="round" stroke-linejoin="round" stroke-width="1"/>
        <path id="Trazado_220" data-name="Trazado 220" d="M55.034,283.08v2.583L53.9,286.8H51.31V283.08Z" transform="translate(-50.78 -238.755)" fill="#fff" stroke="#263238" stroke-linecap="round" stroke-linejoin="round" stroke-width="1"/>
        <path id="Trazado_221" data-name="Trazado 221" d="M62.549,293.17l-1.139,1.139V293.17Z" transform="translate(-58.295 -246.262)" fill="#fff" stroke="#263238" stroke-linecap="round" stroke-linejoin="round" stroke-width="1"/>
      </g>
      <g id="freepik--Character--inject-2" transform="translate(23.015 28.296)">
        <path id="Trazado_222" data-name="Trazado 222" d="M233.958,202.9c-1.354.115-3.071-1.5-3.071-1.5a.3.3,0,0,1-.484-.061c-.22-.317-1.175-1.052-1.229-1.687s1.072-1.664,1.072-1.664c-.868.235-.96-.274-.96-.274a7.309,7.309,0,0,1,1.973-1.239,6.032,6.032,0,0,1,1.912,1.165,21.317,21.317,0,0,1,2.534,3.2s5.592,4.062,7.005,5.1a34.749,34.749,0,0,1,4.077,3.806s7.423,3.348,9.47,5.188l-2.769,6.557s-6.749-4.523-7.423-5.669-1.349-.458-2.025-1.208-1.323-1.607-1.323-1.607a11.41,11.41,0,0,1-3.222-2.324,30.252,30.252,0,0,1-3.839-5.585A9.215,9.215,0,0,0,233.958,202.9Z" transform="translate(-206.134 -181.931)" fill="#fff" stroke="#263238" stroke-linecap="round" stroke-linejoin="round" stroke-width="1"/>
        <path id="Trazado_223" data-name="Trazado 223" d="M236.726,206.716s-2.014-.489-2.188-1.817a2.444,2.444,0,0,0-.433-.929s-1.879-.092-1.761-.857l2.508-.223a4.367,4.367,0,0,1,2.183,1.838" transform="translate(-208.49 -186.709)" fill="#fff" stroke="#263238" stroke-linecap="round" stroke-linejoin="round" stroke-width="1"/>
        <path id="Trazado_224" data-name="Trazado 224" d="M235.86,209.311a.824.824,0,0,0,.084-.543s.553-.1.491-.591c0,0,.819-.1.289-1.067" transform="translate(-211.11 -189.849)" fill="none" stroke="#263238" stroke-linecap="round" stroke-linejoin="round" stroke-width="1"/>
        <path id="Trazado_225" data-name="Trazado 225" d="M234.546,207.82s-1.1-.816-1.226-1.19" transform="translate(-209.22 -189.492)" fill="none" stroke="#263238" stroke-linecap="round" stroke-linejoin="round" stroke-width="1"/>
        <path id="Trazado_226" data-name="Trazado 226" d="M232.715,210.294s-1.175-.717-1.2-1.134" transform="translate(-207.881 -191.374)" fill="none" stroke="#263238" stroke-linecap="round" stroke-linejoin="round" stroke-width="1"/>
        <path id="Trazado_227" data-name="Trazado 227" d="M234.353,199.21a1.789,1.789,0,0,1-.993.811" transform="translate(-209.25 -183.971)" fill="none" stroke="#263238" stroke-linecap="round" stroke-linejoin="round" stroke-width="1"/>
        <path id="Trazado_228" data-name="Trazado 228" d="M236.51,200.23a3.213,3.213,0,0,1,.553.366" transform="translate(-211.593 -184.73)" fill="none" stroke="#263238" stroke-linecap="round" stroke-linejoin="round" stroke-width="1"/>
        <path id="Trazado_229" data-name="Trazado 229" d="M337.475,274.336a60.456,60.456,0,0,0-8.935-2.984c-4.494-1.052-11.774-1.991-11.774-1.991s2,20.425,1.474,21.653a52.4,52.4,0,0,1-3.691,5.354s17.12,6.675,20.1,7.243,1.428-9.79,1.428-9.79S339.236,280.655,337.475,274.336Z" transform="translate(-269.659 -236.166)" fill="#263238"/>
        <path id="Trazado_230" data-name="Trazado 230" d="M359.336,263.869s.407.768-.663,1.17c-2.772,1.024-5.726.12-5.411-.965.12-.415.806,0,.768-1.536a1.886,1.886,0,0,0-.187-.681,7.031,7.031,0,0,0-.7-1.18,14.665,14.665,0,0,0-.95-1.185s4.4-2.815,7.663,0C359.848,259.48,358.635,260.094,359.336,263.869Z" transform="translate(-297.665 -227.893)" fill="#fff" stroke="#263238" stroke-linecap="round" stroke-linejoin="round" stroke-width="1"/>
        <path id="Trazado_231" data-name="Trazado 231" d="M295.734,384.806c-1.733,2.815-10.525,4.149-15.324,4.023s-18.608-6.655-19.544-8.047c-.868-1.28-3-5.521.287-8.083a6.364,6.364,0,0,1,.886-.573c2.25-1.218,17.213,2.623,17.213,2.623s.927-.586,1.267-.543c1.044.133,1.792.978,3.9,1.579,1.477.422,5.508-1.2,8.083.194a3.554,3.554,0,0,1,.783.568C295.69,378.847,297.464,381.983,295.734,384.806Z" transform="translate(-228.611 -312.452)" fill="#43f7d4"/>
        <g id="Grupo_30" data-name="Grupo 30" transform="translate(30.771 59.436)" clip-path="url(#clip-path)">
          <path id="Trazado_232" data-name="Trazado 232" d="M297.649,375.981a11.728,11.728,0,0,0-6.634,1.346c-1.948,1.152-11.147,5.582-11.147,5.582a5.111,5.111,0,0,1,.532-1.436,10.34,10.34,0,0,0-3.128-1.369c-1.753-1.5-8.7-5.964-10.973-7.4a6.371,6.371,0,0,1,.886-.573c2.25-1.218,17.213,2.623,17.213,2.623s.927-.586,1.267-.543c1.044.133,1.792.978,3.9,1.579C291.05,376.208,295.074,374.586,297.649,375.981Z" transform="translate(-264.529 -371.887)" fill="rgba(0,0,0,0.7)" opacity="0.3"/>
        </g>
        <path id="Trazado_234" data-name="Trazado 234" d="M295.734,384.806c-1.733,2.815-10.525,4.149-15.324,4.023s-18.608-6.655-19.544-8.047c-.868-1.28-3-5.521.287-8.083a6.364,6.364,0,0,1,.886-.573c2.25-1.218,17.213,2.623,17.213,2.623s.927-.586,1.267-.543c1.044.133,1.792.978,3.9,1.579,1.477.422,5.508-1.2,8.083.194a3.554,3.554,0,0,1,.783.568C295.69,378.847,297.464,381.983,295.734,384.806Z" transform="translate(-228.611 -312.452)" fill="none" stroke="#263238" stroke-linecap="round" stroke-linejoin="round" stroke-width="1"/>
        <path id="Trazado_235" data-name="Trazado 235" d="M360.185,432.32l.22.965s-.589,1.669-3.176,1.943-4.121.845-5.375.919a10.441,10.441,0,0,1-1.968-.031l-.256-.379Z" transform="translate(-295.76 -357.417)" fill="#fff" stroke="#263238" stroke-linecap="round" stroke-linejoin="round" stroke-width="1"/>
        <path id="Trazado_236" data-name="Trazado 236" d="M332.16,424.137l4.484,3.519a51.377,51.377,0,0,0,6.429-.962h0c2.124-.491,3.98-1.2,4.08-2.163.156-1.469-1.415-1.871-3.281-1.815-.348,0-.706.036-1.067.072-2.987.32-6.785-1.328-6.785-1.328Z" transform="translate(-282.762 -349.336)" fill="#263238"/>
        <g id="Grupo_31" data-name="Grupo 31" transform="translate(49.398 72.124)" clip-path="url(#clip-path-2)">
          <path id="Trazado_237" data-name="Trazado 237" d="M347.156,424.488a13.682,13.682,0,0,0-2.493,1.229s-4.164,2.142-10.566-.064l-1.938-1.523,3.86-2.68s3.8,1.651,6.785,1.328c.361-.038.719-.064,1.067-.072C345.725,422.65,347.284,423.045,347.156,424.488Z" transform="translate(-332.16 -421.453)" fill="rgba(0,0,0,0.7)" opacity="0.3"/>
        </g>
        <path id="Trazado_239" data-name="Trazado 239" d="M332.16,424.137l4.484,3.519a51.377,51.377,0,0,0,6.429-.962h0c2.124-.491,3.98-1.2,4.08-2.163.156-1.469-1.415-1.871-3.281-1.815-.348,0-.706.036-1.067.072-2.987.32-6.785-1.328-6.785-1.328Z" transform="translate(-282.762 -349.336)" fill="none" stroke="#263238" stroke-linecap="round" stroke-linejoin="round" stroke-width="1"/>
        <path id="Trazado_240" data-name="Trazado 240" d="M347.579,437.3c-.809.13.079,1.792,1.175,1.28S348.388,437.168,347.579,437.3Z" transform="translate(-294.001 -361.113)" fill="#fff"/>
        <g id="Grupo_32" data-name="Grupo 32" transform="translate(53.264 76.175)" clip-path="url(#clip-path-3)">
          <path id="Trazado_241" data-name="Trazado 241" d="M349.1,438.318a17.147,17.147,0,0,1-1.743-.3c-.154-.325-.118-.658.225-.712C348.261,437.189,349.4,437.816,349.1,438.318Z" transform="translate(-347.27 -437.288)" fill="rgba(0,0,0,0.7)" opacity="0.2"/>
        </g>
        <path id="Trazado_243" data-name="Trazado 243" d="M347.579,437.3c-.809.13.079,1.792,1.175,1.28S348.388,437.168,347.579,437.3Z" transform="translate(-294.001 -361.113)" fill="none" stroke="#263238" stroke-linecap="round" stroke-linejoin="round" stroke-width="1"/>
        <path id="Trazado_244" data-name="Trazado 244" d="M373.783,430.323c2.124-.491,3.98-1.2,4.08-2.163.156-1.469-1.415-1.871-3.281-1.815A3.487,3.487,0,0,0,373.783,430.323Z" transform="translate(-313.471 -352.967)" fill="#fff"/>
        <g id="Grupo_33" data-name="Grupo 33" transform="translate(59.962 73.373)" clip-path="url(#clip-path-4)">
          <path id="Trazado_245" data-name="Trazado 245" d="M377.871,428.126a13.682,13.682,0,0,0-2.493,1.229,8.391,8.391,0,0,1-1.753.586,3.569,3.569,0,0,1,.962-3.6C376.44,426.289,378,426.683,377.871,428.126Z" transform="translate(-373.439 -426.34)" fill="rgba(0,0,0,0.7)" opacity="0.3"/>
        </g>
        <path id="Trazado_247" data-name="Trazado 247" d="M373.783,430.323c2.124-.491,3.98-1.2,4.08-2.163.156-1.469-1.415-1.871-3.281-1.815A3.487,3.487,0,0,0,373.783,430.323Z" transform="translate(-313.471 -352.967)" fill="none" stroke="#263238" stroke-linecap="round" stroke-linejoin="round" stroke-width="1"/>
        <path id="Trazado_248" data-name="Trazado 248" d="M368.327,428.156h.013a.22.22,0,0,0,.23-.212,3.015,3.015,0,0,1,.768-1.687.22.22,0,0,0,0-.312.223.223,0,0,0-.312,0,3.419,3.419,0,0,0-.888,1.973A.22.22,0,0,0,368.327,428.156Z" transform="translate(-309.53 -352.625)" fill="#fff" stroke="#263238" stroke-linecap="round" stroke-linejoin="round" stroke-width="1"/>
        <path id="Trazado_249" data-name="Trazado 249" d="M364.829,428.164h.018a.22.22,0,0,0,.225-.218,3.287,3.287,0,0,1,.681-1.756.223.223,0,1,0-.343-.282,3.706,3.706,0,0,0-.781,2.027A.22.22,0,0,0,364.829,428.164Z" transform="translate(-306.921 -352.575)" fill="#fff" stroke="#263238" stroke-linecap="round" stroke-linejoin="round" stroke-width="1"/>
        <path id="Trazado_250" data-name="Trazado 250" d="M360.667,427.744h0a.22.22,0,0,0,.241-.2,5.1,5.1,0,0,1,.737-1.792.225.225,0,0,0-.061-.31.223.223,0,0,0-.307.061,5.213,5.213,0,0,0-.811,1.989.223.223,0,0,0,.2.251Z" transform="translate(-303.82 -352.272)" fill="#fff" stroke="#263238" stroke-linecap="round" stroke-linejoin="round" stroke-width="1"/>
        <path id="Trazado_251" data-name="Trazado 251" d="M356.724,427.26a.237.237,0,0,0,.059,0,.22.22,0,0,0,.182-.256,2.246,2.246,0,0,1,.727-1.756.223.223,0,0,0-.287-.325,2.65,2.65,0,0,0-.868,2.16A.225.225,0,0,0,356.724,427.26Z" transform="translate(-300.881 -351.894)" fill="#fff" stroke="#263238" stroke-linecap="round" stroke-linejoin="round" stroke-width="1"/>
        <path id="Trazado_252" data-name="Trazado 252" d="M352.4,426.076a.208.208,0,0,0,.238-.256,2.445,2.445,0,0,1,.645-1.792.223.223,0,0,0-.021-.312.22.22,0,0,0-.312.018,2.889,2.889,0,0,0-.745,2.193A.22.22,0,0,0,352.4,426.076Z" transform="translate(-297.646 -350.973)" fill="#fff" stroke="#263238" stroke-linecap="round" stroke-linejoin="round" stroke-width="1"/>
        <path id="Trazado_253" data-name="Trazado 253" d="M262.07,426.68l-.32.937s.41,1.723,2.954,2.265,4.008,1.28,5.237,1.479a10.544,10.544,0,0,0,1.961.174l.294-.351Z" transform="translate(-230.373 -353.22)" fill="#fff" stroke="#263238" stroke-linecap="round" stroke-linejoin="round" stroke-width="1"/>
        <path id="Trazado_254" data-name="Trazado 254" d="M277.9,423.529l-4.827,3.028a51.508,51.508,0,0,1-6.294-1.63h0c-2.06-.711-3.839-1.607-3.839-2.58,0-1.479,1.6-1.712,3.455-1.461.346.046.7.11,1.055.184,2.936.632,6.885-.609,6.885-.609Z" transform="translate(-231.259 -348.592)" fill="#263238"/>
        <g id="Grupo_34" data-name="Grupo 34" transform="translate(31.681 71.868)" clip-path="url(#clip-path-5)">
          <path id="Trazado_255" data-name="Trazado 255" d="M296.368,423.551l-2.839,1.792a11.482,11.482,0,0,1-5.769-4.062,19.22,19.22,0,0,0,5.05-.791Z" transform="translate(-281.407 -420.482)" fill="rgba(0,0,0,0.7)" opacity="0.3"/>
        </g>
        <path id="Trazado_257" data-name="Trazado 257" d="M277.9,423.529l-4.827,3.028a51.508,51.508,0,0,1-6.294-1.63h0c-2.06-.711-3.839-1.607-3.839-2.58,0-1.479,1.6-1.712,3.455-1.461.346.046.7.11,1.055.184,2.936.632,6.885-.609,6.885-.609Z" transform="translate(-231.259 -348.592)" fill="none" stroke="#263238" stroke-linecap="round" stroke-linejoin="round" stroke-width="1"/>
        <path id="Trazado_258" data-name="Trazado 258" d="M266.779,425.9c-2.06-.712-3.839-1.607-3.839-2.58,0-1.479,1.6-1.712,3.455-1.461A3.472,3.472,0,0,1,266.779,425.9Z" transform="translate(-231.259 -349.566)" fill="#fff" stroke="#263238" stroke-linecap="round" stroke-linejoin="round" stroke-width="1"/>
        <path id="Trazado_259" data-name="Trazado 259" d="M282.06,424.543h-.013a.225.225,0,0,1-.21-.235,3,3,0,0,0-.581-1.756.223.223,0,1,1,.348-.274,3.4,3.4,0,0,1,.676,2.048A.22.22,0,0,1,282.06,424.543Z" transform="translate(-244.84 -349.867)" fill="#fff" stroke="#263238" stroke-linecap="round" stroke-linejoin="round" stroke-width="1"/>
        <path id="Trazado_260" data-name="Trazado 260" d="M285.815,425h-.02a.223.223,0,0,1-.2-.241,3.268,3.268,0,0,0-.489-1.815.224.224,0,0,1,.369-.256,3.667,3.667,0,0,1,.563,2.1.223.223,0,0,1-.22.212Z" transform="translate(-247.72 -350.179)" fill="#fff" stroke="#263238" stroke-linecap="round" stroke-linejoin="round" stroke-width="1"/>
        <path id="Trazado_261" data-name="Trazado 261" d="M289.883,425.023h0a.225.225,0,0,1-.22-.225,4.789,4.789,0,0,0-.545-1.848.225.225,0,0,1,.095-.3.223.223,0,0,1,.3.095,5.2,5.2,0,0,1,.6,2.063A.223.223,0,0,1,289.883,425.023Z" transform="translate(-250.717 -350.201)" fill="#fff" stroke="#263238" stroke-linecap="round" stroke-linejoin="round" stroke-width="1"/>
        <path id="Trazado_262" data-name="Trazado 262" d="M293.739,424.79h-.059a.223.223,0,0,1-.154-.274,2.238,2.238,0,0,0-.538-1.822.223.223,0,1,1,.33-.3,2.65,2.65,0,0,1,.635,2.24A.225.225,0,0,1,293.739,424.79Z" transform="translate(-253.565 -349.969)" fill="#fff" stroke="#263238" stroke-linecap="round" stroke-linejoin="round" stroke-width="1"/>
        <path id="Trazado_263" data-name="Trazado 263" d="M298.385,424.1a.169.169,0,0,1-.072-.013.218.218,0,0,1-.138-.282,2.506,2.506,0,0,0-.45-1.856.223.223,0,1,1,.361-.256,2.9,2.9,0,0,1,.512,2.26A.225.225,0,0,1,298.385,424.1Z" transform="translate(-257.098 -349.425)" fill="#fff" stroke="#263238" stroke-linecap="round" stroke-linejoin="round" stroke-width="1"/>
        <path id="Trazado_264" data-name="Trazado 264" d="M299.776,436.011c.791.218-.256,1.766-1.3,1.152S298.988,435.8,299.776,436.011Z" transform="translate(-257.437 -360.135)" fill="#fff" stroke="#263238" stroke-linecap="round" stroke-linejoin="round" stroke-width="1"/>
        <path id="Trazado_265" data-name="Trazado 265" d="M268.92,404c1.185,1.661,4.7,3.5,8.19,5.009a16.439,16.439,0,0,0,2.2,2.869c2.155,2.216,3.033.975,3.033.975s1.362-.154,3.371-.427a.96.96,0,0,0,1.024.571,4.138,4.138,0,0,0,1.333-.909c5.075-.768,11.963-2.048,13.821-3.537" transform="translate(-235.708 -336.345)" fill="#43f7d4" stroke="#263238" stroke-linecap="round" stroke-linejoin="round" stroke-width="1"/>
        <path id="Trazado_266" data-name="Trazado 266" d="M323.274,388.932c-.878-.965-1.756-1.008-3.6-.878a46.234,46.234,0,0,0-8.165,3.555,87.846,87.846,0,0,1-8.249,4.162,4.568,4.568,0,0,0-2.531,0s-.729.056-.241,1.331" transform="translate(-259.072 -324.441)" fill="none" stroke="#263238" stroke-linecap="round" stroke-linejoin="round" stroke-width="1"/>
        <path id="Trazado_267" data-name="Trazado 267" d="M392.663,414.17s.026,1.487-2.083,2.516" transform="translate(-326.229 -343.912)" fill="none" stroke="#263238" stroke-linecap="round" stroke-linejoin="round" stroke-width="1"/>
        <path id="Trazado_268" data-name="Trazado 268" d="M307.84,389.93s3.327,2.406,4,3.993a13.7,13.7,0,0,1,1.889.975" transform="translate(-264.667 -325.876)" fill="none" stroke="#263238" stroke-linecap="round" stroke-linejoin="round" stroke-width="1"/>
        <path id="Trazado_269" data-name="Trazado 269" d="M324.39,397.74a3.839,3.839,0,0,1,.118,2.153" transform="translate(-276.981 -331.687)" fill="none" stroke="#263238" stroke-linecap="round" stroke-linejoin="round" stroke-width="1"/>
        <path id="Trazado_270" data-name="Trazado 270" d="M321.39,391.64a5.819,5.819,0,0,1,.476.832" transform="translate(-274.748 -327.149)" fill="none" stroke="#263238" stroke-linecap="round" stroke-linejoin="round" stroke-width="1"/>
        <path id="Trazado_271" data-name="Trazado 271" d="M339.91,390.78a9.171,9.171,0,0,1,1.39,2.7" transform="translate(-288.528 -326.509)" fill="none" stroke="#263238" stroke-linecap="round" stroke-linejoin="round" stroke-width="1"/>
        <path id="Trazado_272" data-name="Trazado 272" d="M364.14,425.494a9.562,9.562,0,0,0,1.234-.154" transform="translate(-306.557 -352.223)" fill="none" stroke="#263238" stroke-linecap="round" stroke-linejoin="round" stroke-width="1"/>
        <path id="Trazado_273" data-name="Trazado 273" d="M323.33,421.77a59.3,59.3,0,0,0,9.57,1.1" transform="translate(-276.192 -349.567)" fill="none" stroke="#263238" stroke-linecap="round" stroke-linejoin="round" stroke-width="1"/>
        <path id="Trazado_274" data-name="Trazado 274" d="M359.742,327.831s-.6,10.494-1.31,11.1-1.827.788-3.944.965-11.479.75-11.479.75L342,337.634a42.639,42.639,0,0,0,7.187-1.318,37.043,37.043,0,0,1,5.1-1.346,36.418,36.418,0,0,1-.42-3.775V325.85" transform="translate(-290.083 -278.197)" fill="#fff" stroke="#263238" stroke-linecap="round" stroke-linejoin="round" stroke-width="1"/>
        <path id="Trazado_275" data-name="Trazado 275" d="M389.411,288.8c2.281,1.405,2.954,4.653,2.165,11.587a.737.737,0,0,1-.323,1.229s-3.729-1.395-5.462-.433-1.28-1.328-1.28-1.328-.714-6.378.865-7.533" transform="translate(-321.594 -250.63)" fill="#263238"/>
        <path id="Trazado_276" data-name="Trazado 276" d="M384.472,298.75s-2.194,2.281-.256,8.044a9.4,9.4,0,0,0-.256,1.433c0,.386.53.586.53.586" transform="translate(-320.899 -258.034)" fill="none" stroke="#fff" stroke-linecap="round" stroke-linejoin="round" stroke-width="1"/>
        <path id="Trazado_277" data-name="Trazado 277" d="M377.52,313.84s.159,2.815,1.9,4.036" transform="translate(-316.512 -269.261)" fill="none" stroke="#fff" stroke-linecap="round" stroke-linejoin="round" stroke-width="1"/>
        <path id="Trazado_278" data-name="Trazado 278" d="M358.83,281.41s-3.4,1.3-6.107-.141a1.681,1.681,0,0,1-.944-2.229" transform="translate(-297.259 -243.368)" fill="none" stroke="#fff" stroke-linecap="round" stroke-linejoin="round" stroke-width="1"/>
        <path id="Trazado_279" data-name="Trazado 279" d="M281.241,387.054h18.515a4.826,4.826,0,0,0,1.239-.161l3.652-.957a.236.236,0,0,0,.177-.228h0a.238.238,0,0,0-.238-.238h-24.11a.238.238,0,0,0-.235.238v.346A1,1,0,0,0,281.241,387.054Z" transform="translate(-244.131 -322.558)" fill="#757575" stroke="#263238" stroke-linecap="round" stroke-linejoin="round" stroke-width="1"/>
        <path id="Trazado_280" data-name="Trazado 280" d="M264.74,345.663h18.567a.44.44,0,0,0,.433-.594L280.3,331.675a.819.819,0,0,0-.742-.6H260.982a.443.443,0,0,0-.433.6l3.445,13.394A.814.814,0,0,0,264.74,345.663Z" transform="translate(-229.46 -282.088)" fill="#999" stroke="#263238" stroke-linecap="round" stroke-linejoin="round" stroke-width="1"/>
        <line id="Línea_28" data-name="Línea 28" x1="0.351" transform="translate(31.827 49.467)" fill="none" stroke="#263238" stroke-linecap="round" stroke-linejoin="round" stroke-width="1"/>
        <line id="Línea_29" data-name="Línea 29" x1="1.812" transform="translate(33.087 49.467)" fill="none" stroke="#263238" stroke-linecap="round" stroke-linejoin="round" stroke-width="1"/>
        <path id="Trazado_281" data-name="Trazado 281" d="M295.2,345.356l-3.041-11.82a.816.816,0,0,0-.74-.6H277.11" transform="translate(-241.802 -283.473)" fill="none" stroke="#263238" stroke-linecap="round" stroke-linejoin="round" stroke-width="1"/>
        <line id="Línea_30" data-name="Línea 30" x1="0.077" y1="0.294" transform="translate(53.583 62.618)" fill="none" stroke="#263238" stroke-linecap="round" stroke-linejoin="round" stroke-width="1"/>
        <path id="Trazado_282" data-name="Trazado 282" d="M298.81,356.365a1.828,1.828,0,0,0,.067.32,1.325,1.325,0,1,0,.824-1.83,1.186,1.186,0,0,0-.233.1A1.431,1.431,0,0,1,298.81,356.365Z" transform="translate(-257.948 -299.744)" fill="#fff" stroke="#263238" stroke-linecap="round" stroke-linejoin="round" stroke-width="1"/>
        <path id="Trazado_283" data-name="Trazado 283" d="M311.519,253.223c-1.607-.174-2.483-1.7-3.45-1.94a10.658,10.658,0,0,1-1.582-.512s-.333-1.162-.832-.768-1.154,9.086-.512,8.812.645.753.645.753l5.966,5.257,5-8.856S313.127,253.4,311.519,253.223Z" transform="translate(-262.461 -221.703)" fill="#263238"/>
        <path id="Trazado_284" data-name="Trazado 284" d="M140.88,141.518v-.128h.128" transform="translate(-140.44 -140.95)" fill="none" stroke="#263238" stroke-linecap="round" stroke-linejoin="round" stroke-width="1"/>
        <line id="Línea_31" data-name="Línea 31" x2="21.653" transform="translate(1.321 0.44)" fill="none" stroke="#263238" stroke-linecap="round" stroke-linejoin="round" stroke-width="1" stroke-dasharray="0.978 2.934"/>
        <path id="Trazado_285" data-name="Trazado 285" d="M230.38,141.39h.128v.128" transform="translate(-207.032 -140.95)" fill="none" stroke="#263238" stroke-linecap="round" stroke-linejoin="round" stroke-width="1"/>
        <line id="Línea_32" data-name="Línea 32" y2="13.949" transform="translate(23.478 1.336)" fill="none" stroke="#263238" stroke-linecap="round" stroke-linejoin="round" stroke-width="1" stroke-dasharray="1 3"/>
        <path id="Trazado_286" data-name="Trazado 286" d="M230.508,200.89v.128h-.128" transform="translate(-207.032 -185.221)" fill="none" stroke="#263238" stroke-linecap="round" stroke-linejoin="round" stroke-width="1"/>
        <line id="Línea_33" data-name="Línea 33" x1="21.653" transform="translate(0.944 15.797)" fill="none" stroke="#263238" stroke-linecap="round" stroke-linejoin="round" stroke-width="1" stroke-dasharray="0.978 2.934"/>
        <path id="Trazado_287" data-name="Trazado 287" d="M141.008,201.018h-.128v-.128" transform="translate(-140.44 -185.221)" fill="none" stroke="#263238" stroke-linecap="round" stroke-linejoin="round" stroke-width="1"/>
        <line id="Línea_34" data-name="Línea 34" y1="13.949" transform="translate(0.443 0.952)" fill="none" stroke="#263238" stroke-linecap="round" stroke-linejoin="round" stroke-width="1" stroke-dasharray="1 3"/>
        <circle id="Elipse_8" data-name="Elipse 8" cx="0.379" cy="0.379" r="0.379" transform="translate(11.582 0.061)" fill="#43f7d4" stroke="#263238" stroke-linecap="round" stroke-linejoin="round" stroke-width="1"/>
        <circle id="Elipse_9" data-name="Elipse 9" cx="0.379" cy="0.379" r="0.379" transform="translate(0.064 7.74)" fill="#43f7d4" stroke="#263238" stroke-linecap="round" stroke-linejoin="round" stroke-width="1"/>
        <circle id="Elipse_10" data-name="Elipse 10" cx="0.379" cy="0.379" r="0.379" transform="translate(11.582 15.418)" fill="#43f7d4" stroke="#263238" stroke-linecap="round" stroke-linejoin="round" stroke-width="1"/>
        <circle id="Elipse_11" data-name="Elipse 11" cx="0.379" cy="0.379" r="0.379" transform="translate(23.099 7.74)" fill="#43f7d4" stroke="#263238" stroke-linecap="round" stroke-linejoin="round" stroke-width="1"/>
        <rect id="Rectángulo_124" data-name="Rectángulo 124" width="0.883" height="0.883" transform="translate(23.035 15.357)" fill="#43f7d4" stroke="#263238" stroke-linecap="round" stroke-linejoin="round" stroke-width="1"/>
        <rect id="Rectángulo_125" data-name="Rectángulo 125" width="0.883" height="0.883" transform="translate(23.035)" fill="#43f7d4" stroke="#263238" stroke-linecap="round" stroke-linejoin="round" stroke-width="1"/>
        <rect id="Rectángulo_126" data-name="Rectángulo 126" width="0.883" height="0.883" transform="translate(0 15.357)" fill="#43f7d4" stroke="#263238" stroke-linecap="round" stroke-linejoin="round" stroke-width="1"/>
        <rect id="Rectángulo_127" data-name="Rectángulo 127" width="0.883" height="0.883" fill="#43f7d4" stroke="#263238" stroke-linecap="round" stroke-linejoin="round" stroke-width="1"/>
        <rect id="Rectángulo_128" data-name="Rectángulo 128" width="20.048" height="12.739" transform="translate(1.971 1.799)" fill="#fff" stroke="#263238" stroke-linecap="round" stroke-linejoin="round" stroke-width="1"/>
        <path id="Trazado_288" data-name="Trazado 288" d="M166.908,166.338l-2.229,2.229-6.03-6.03-2.536,2.536-4.044-4.044-5.209,5.206V170.1h20.048Z" transform="translate(-144.889 -155.563)" fill="#43f7d4" stroke="#263238" stroke-linecap="round" stroke-linejoin="round" stroke-width="1"/>
        <circle id="Elipse_12" data-name="Elipse 12" cx="1.415" cy="1.415" r="1.415" transform="translate(16.45 4)" fill="#43f7d4" stroke="#263238" stroke-linecap="round" stroke-linejoin="round" stroke-width="1"/>
        <path id="Trazado_289" data-name="Trazado 289" d="M330.007,272a18.171,18.171,0,0,0-1.717,7.233" transform="translate(-279.882 -238.13)" fill="none" stroke="#fff" stroke-linecap="round" stroke-linejoin="round" stroke-width="1"/>
        <path id="Trazado_290" data-name="Trazado 290" d="M317.36,279.73a11.485,11.485,0,0,0,1.792,4.192" transform="translate(-271.75 -243.882)" fill="none" stroke="#fff" stroke-linecap="round" stroke-linejoin="round" stroke-width="1"/>
        <path id="Trazado_291" data-name="Trazado 291" d="M342,318.93s2.3,7.566,7.307,9.793" transform="translate(-290.083 -273.049)" fill="none" stroke="#fff" stroke-linecap="round" stroke-linejoin="round" stroke-width="1"/>
        <path id="Trazado_292" data-name="Trazado 292" d="M358.388,265.42a2.043,2.043,0,0,1-1.8,1.766,7.03,7.03,0,0,0-.7-1.18,22.147,22.147,0,0,1,2.508-.586Z" transform="translate(-300.411 -233.234)" fill="#263238"/>
        <path id="Trazado_293" data-name="Trazado 293" d="M353.6,233.67s2.654.325,3.765-3.238.238-6.248-4.154-7.54c-2.437-.717-4.863-.141-5.751,1.7-.753,1.579-.4,2.892-.568,3.422-.194.594-1.991,1.1-1.991,1.5,0,.335,1,.909,1,.909l-.292.886.274.146a7.743,7.743,0,0,0-.274,2.7c.169.512,4.666.727,5.017-.548" transform="translate(-292.241 -201.369)" fill="#fff" stroke="#263238" stroke-linecap="round" stroke-linejoin="round" stroke-width="1"/>
        <path id="Trazado_294" data-name="Trazado 294" d="M355,235.47s.878.22,1.119.681" transform="translate(-299.756 -210.95)" fill="none" stroke="#263238" stroke-linecap="round" stroke-linejoin="round" stroke-width="1"/>
        <path id="Trazado_295" data-name="Trazado 295" d="M355.566,242.105c-.038.256.02.479.133.494s.23-.179.269-.438-.023-.479-.133-.494S355.6,241.847,355.566,242.105Z" transform="translate(-300.168 -215.561)" fill="#263238"/>
        <path id="Trazado_296" data-name="Trazado 296" d="M348.72,257.25s1.428.548,1.961.218" transform="translate(-295.083 -227.155)" fill="none" stroke="#263238" stroke-linecap="round" stroke-linejoin="round" stroke-width="1"/>
        <path id="Trazado_297" data-name="Trazado 297" d="M350.573,239.816c-.1.573.023,1.075.287,1.124s.566-.374.671-.944-.02-1.078-.287-1.126S350.681,239.245,350.573,239.816Z" transform="translate(-296.435 -213.476)" fill="none" stroke="#263238" stroke-linecap="round" stroke-linejoin="round" stroke-width="1"/>
        <path id="Trazado_298" data-name="Trazado 298" d="M362.661,219.673a4.223,4.223,0,0,0-1.669-2.575,7.809,7.809,0,0,0-3.21-1.313,3.229,3.229,0,0,1,1.17.86,5.159,5.159,0,0,0-4.8-.566,3.846,3.846,0,0,0-2.281,3.9l.379-.737s-.044.878.417,1.2a5.762,5.762,0,0,1,.561-1.229,4.832,4.832,0,0,0,2.593,2.78,1.51,1.51,0,0,1-.031-1.024s1.054,2.281.747,3.394l.335.584s1.211-1.226,2.2-.2c.566.589-1.083,2.815-1.318,2.815l1,1.461a4.006,4.006,0,0,0,3.921-2.339c1.433-2.7,1.083-3.839,1.083-3.839a3.314,3.314,0,0,1,.512,1.024C364.268,223.855,364.693,220.96,362.661,219.673Z" transform="translate(-297.419 -196.248)" fill="#263238"/>
        <path id="Trazado_299" data-name="Trazado 299" d="M371.19,247.368s.768-2.58,2.4-1.671.468,2.286-.118,2.815S372.449,250,372.068,250s-.466-.468-.466-.468" transform="translate(-311.802 -218.415)" fill="#fff" stroke="#263238" stroke-linecap="round" stroke-linejoin="round" stroke-width="1"/>
        <line id="Línea_35" data-name="Línea 35" x2="4.556" y2="0.944" transform="translate(55.096 26.519)" fill="none" stroke="#263238" stroke-linecap="round" stroke-linejoin="round" stroke-width="1"/>
      </g>
    </g>
    <g id="JavaScript_frameworks-pana" data-name="JavaScript frameworks-pana" transform="translate(133.199 144.899)">
      <g id="freepik--background-simple--inject-152" transform="translate(0 0)">
        <path id="Trazado_300" data-name="Trazado 300" d="M183.49,124.788c15.678.647,33.855-2.965,47.5-10.727s23.489-23.169,24.97-38.788c1.057-11.169-1.4-23.011-10.083-30.122s-24.512-8.3-33.823-2.036c-10.053,6.754-14.34,20.747-25.562,25.3-9.326,3.787-19.986-.412-29.945,1.042-10.909,1.6-20.41,10.977-21.435,21.957-.606,6.47.9,13.406,5.83,18.766,5.164,5.612,8.284,7.382,15.394,10.929C162.743,124.306,173.143,124.369,183.49,124.788Z" transform="translate(-134.986 -39.046)" fill="#43f7d4" opacity="0.35"/>
      </g>
      <g id="freepik--Screen--inject-152" transform="translate(50.879 28.418)">
        <rect id="Rectángulo_129" data-name="Rectángulo 129" width="65.901" height="38.4" transform="translate(0)" fill="#263238"/>
        <path id="Trazado_301" data-name="Trazado 301" d="M365.923,197.079c-.034,0-.063-7.852-.063-17.537s.034-17.542.063-17.542.063,7.85.063,17.537S365.959,197.079,365.923,197.079Z" transform="translate(-360.769 -160.611)" fill="#e0e0e0"/>
        <path id="Trazado_302" data-name="Trazado 302" d="M353.712,167.923a9.471,9.471,0,0,1-2.182,0A9.474,9.474,0,0,1,353.712,167.923Z" transform="translate(-349.913 -165.05)" fill="#e0e0e0"/>
        <path id="Trazado_303" data-name="Trazado 303" d="M353.712,177.453a9.47,9.47,0,0,1-2.182,0A9.474,9.474,0,0,1,353.712,177.453Z" transform="translate(-349.913 -172.27)" fill="#e0e0e0"/>
        <path id="Trazado_304" data-name="Trazado 304" d="M353.712,186.993a9.47,9.47,0,0,1-2.182,0A9.472,9.472,0,0,1,353.712,186.993Z" transform="translate(-349.913 -179.497)" fill="#e0e0e0"/>
        <path id="Trazado_305" data-name="Trazado 305" d="M353.712,196.523a9.468,9.468,0,0,1-2.182,0A9.472,9.472,0,0,1,353.712,196.523Z" transform="translate(-349.913 -186.717)" fill="#e0e0e0"/>
        <path id="Trazado_306" data-name="Trazado 306" d="M353.712,206.053a9.472,9.472,0,0,1-2.182,0A9.474,9.474,0,0,1,353.712,206.053Z" transform="translate(-349.913 -193.937)" fill="#e0e0e0"/>
        <path id="Trazado_307" data-name="Trazado 307" d="M353.712,215.593a9.472,9.472,0,0,1-2.182,0A9.472,9.472,0,0,1,353.712,215.593Z" transform="translate(-349.913 -201.164)" fill="#e0e0e0"/>
        <path id="Trazado_308" data-name="Trazado 308" d="M353.712,225.123a9.473,9.473,0,0,1-2.182,0A9.472,9.472,0,0,1,353.712,225.123Z" transform="translate(-349.913 -208.383)" fill="#e0e0e0"/>
        <path id="Trazado_309" data-name="Trazado 309" d="M353.712,234.653a9.472,9.472,0,0,1-2.182,0A9.468,9.468,0,0,1,353.712,234.653Z" transform="translate(-349.913 -215.603)" fill="#e0e0e0"/>
        <path id="Trazado_310" data-name="Trazado 310" d="M353.712,244.193a9.472,9.472,0,0,1-2.182,0A9.474,9.474,0,0,1,353.712,244.193Z" transform="translate(-349.913 -222.83)" fill="#e0e0e0"/>
        <path id="Trazado_311" data-name="Trazado 311" d="M353.712,253.723a9.472,9.472,0,0,1-2.182,0A9.468,9.468,0,0,1,353.712,253.723Z" transform="translate(-349.913 -230.05)" fill="#e0e0e0"/>
        <path id="Trazado_312" data-name="Trazado 312" d="M353.712,263.253a9.472,9.472,0,0,1-2.182,0A9.472,9.472,0,0,1,353.712,263.253Z" transform="translate(-349.913 -237.27)" fill="#e0e0e0"/>
        <path id="Trazado_313" data-name="Trazado 313" d="M353.712,272.8a9.472,9.472,0,0,1-2.182,0A9.475,9.475,0,0,1,353.712,272.8Z" transform="translate(-349.913 -244.504)" fill="#e0e0e0"/>
        <path id="Trazado_314" data-name="Trazado 314" d="M353.712,282.323a9.47,9.47,0,0,1-2.182,0,9.47,9.47,0,0,1,2.182,0Z" transform="translate(-349.913 -251.717)" fill="#e0e0e0"/>
        <path id="Trazado_315" data-name="Trazado 315" d="M353.712,291.853a9.468,9.468,0,0,1-2.182,0A9.475,9.475,0,0,1,353.712,291.853Z" transform="translate(-349.913 -258.936)" fill="#e0e0e0"/>
        <path id="Trazado_316" data-name="Trazado 316" d="M353.712,301.393a9.475,9.475,0,0,1-2.182,0A9.472,9.472,0,0,1,353.712,301.393Z" transform="translate(-349.913 -266.163)" fill="#e0e0e0"/>
        <path id="Trazado_317" data-name="Trazado 317" d="M378.915,167.363c0,.034-1.268.063-2.832.063s-2.834-.029-2.834-.063,1.268-.063,2.834-.063S378.915,167.327,378.915,167.363Z" transform="translate(-366.367 -164.626)" fill="#43f7d4"/>
        <path id="Trazado_318" data-name="Trazado 318" d="M378.915,301.393c0,.034-1.268.063-2.832.063s-2.834-.029-2.834-.063,1.268-.063,2.834-.063S378.915,301.357,378.915,301.393Z" transform="translate(-366.367 -266.164)" fill="#43f7d4"/>
        <path id="Trazado_319" data-name="Trazado 319" d="M396.039,186.993c0,.034-2.373.063-5.3.063s-5.3-.029-5.3-.063,2.373-.063,5.3-.063S396.039,186.947,396.039,186.993Z" transform="translate(-375.602 -179.497)" fill="#43f7d4"/>
        <path id="Trazado_320" data-name="Trazado 320" d="M446.586,186.993c0,.034-2.371.063-5.3.063s-5.3-.029-5.3-.063,2.371-.063,5.3-.063S446.586,186.947,446.586,186.993Z" transform="translate(-413.898 -179.497)" fill="#e0e0e0"/>
        <path id="Trazado_321" data-name="Trazado 321" d="M411.58,196.523c0,.034-3.5.063-7.809.063s-7.811-.029-7.811-.063,3.5-.063,7.811-.063S411.58,196.489,411.58,196.523Z" transform="translate(-383.572 -186.717)" fill="#e0e0e0"/>
        <path id="Trazado_322" data-name="Trazado 322" d="M411.61,206.053c0,.036-3.5.063-7.809.063s-7.8-.027-7.8-.063,3.5-.063,7.811-.063S411.61,206.019,411.61,206.053Z" transform="translate(-383.602 -193.937)" fill="#e0e0e0"/>
        <path id="Trazado_323" data-name="Trazado 323" d="M455.927,234.653c0,.036-3.5.063-7.809.063s-7.809-.027-7.809-.063,3.5-.063,7.809-.063S455.927,234.619,455.927,234.653Z" transform="translate(-417.17 -215.603)" fill="#e0e0e0"/>
        <path id="Trazado_324" data-name="Trazado 324" d="M436.79,215.593c0,.034-3.5.063-7.809.063s-7.811-.029-7.811-.063,3.5-.063,7.811-.063S436.79,215.557,436.79,215.593Z" transform="translate(-402.67 -201.164)" fill="#e0e0e0"/>
        <path id="Trazado_325" data-name="Trazado 325" d="M515.517,215.593c0,.034-3.5.063-7.809.063s-7.809-.029-7.809-.063,3.5-.063,7.809-.063S515.517,215.557,515.517,215.593Z" transform="translate(-462.314 -201.164)" fill="#e0e0e0"/>
        <path id="Trazado_326" data-name="Trazado 326" d="M488.137,196.523c0,.034-3.5.063-7.809.063s-7.809-.029-7.809-.063,3.5-.063,7.809-.063S488.137,196.489,488.137,196.523Z" transform="translate(-441.572 -186.717)" fill="#fafafa"/>
        <path id="Trazado_327" data-name="Trazado 327" d="M532.624,234.653c0,.036-3.5.063-7.809.063s-7.816-.027-7.816-.063,3.5-.063,7.811-.063S532.624,234.619,532.624,234.653Z" transform="translate(-475.269 -215.603)" fill="#fafafa"/>
        <path id="Trazado_328" data-name="Trazado 328" d="M496.8,206.053c0,.036-5.43.063-12.121.063s-12.121-.027-12.121-.063,5.428-.063,12.121-.063S496.8,206.019,496.8,206.053Z" transform="translate(-441.602 -193.937)" fill="#455a64"/>
        <path id="Trazado_329" data-name="Trazado 329" d="M378.915,177.453c0,.036-1.268.063-2.832.063s-2.834-.027-2.834-.063,1.268-.063,2.834-.063S378.915,177.419,378.915,177.453Z" transform="translate(-366.367 -172.27)" fill="#fafafa"/>
        <path id="Trazado_330" data-name="Trazado 330" d="M378.915,291.853c0,.036-1.268.063-2.832.063s-2.834-.027-2.834-.063,1.268-.063,2.834-.063S378.915,291.819,378.915,291.853Z" transform="translate(-366.367 -258.936)" fill="#fafafa"/>
        <path id="Trazado_331" data-name="Trazado 331" d="M390.493,215.593c0,.034-1.268.063-2.832.063s-2.832-.029-2.832-.063,1.268-.063,2.832-.063S390.493,215.557,390.493,215.593Z" transform="translate(-375.14 -201.164)" fill="#fafafa"/>
        <path id="Trazado_332" data-name="Trazado 332" d="M577.753,215.593c0,.034-1.268.063-2.831.063s-2.832-.029-2.832-.063,1.268-.063,2.832-.063S577.753,215.557,577.753,215.593Z" transform="translate(-517.003 -201.164)" fill="#43f7d4"/>
        <path id="Trazado_333" data-name="Trazado 333" d="M396.039,253.663c0,.036-2.373.063-5.3.063s-5.3-.027-5.3-.063,2.373-.063,5.3-.063S396.039,253.629,396.039,253.663Z" transform="translate(-375.602 -230.005)" fill="#43f7d4"/>
        <path id="Trazado_334" data-name="Trazado 334" d="M446.594,253.663c0,.036-2.371.063-5.3.063s-5.3-.029-5.3-.063,2.371-.063,5.3-.063S446.594,253.629,446.594,253.663Z" transform="translate(-413.905 -230.005)" fill="#e0e0e0"/>
        <path id="Trazado_335" data-name="Trazado 335" d="M411.61,263.2c0,.034-3.5.063-7.809.063s-7.8-.029-7.8-.063,3.5-.063,7.811-.063S411.61,263.167,411.61,263.2Z" transform="translate(-383.602 -237.232)" fill="#e0e0e0"/>
        <path id="Trazado_336" data-name="Trazado 336" d="M411.58,272.733c0,.034-3.5.063-7.809.063s-7.811-.029-7.811-.063,3.5-.063,7.811-.063S411.58,272.7,411.58,272.733Z" transform="translate(-383.572 -244.451)" fill="#e0e0e0"/>
        <path id="Trazado_337" data-name="Trazado 337" d="M436.79,282.263c0,.036-3.5.063-7.809.063s-7.811-.027-7.811-.063,3.5-.063,7.811-.063S436.79,282.229,436.79,282.263Z" transform="translate(-402.67 -251.671)" fill="#e0e0e0"/>
        <path id="Trazado_338" data-name="Trazado 338" d="M515.517,282.263c0,.036-3.5.063-7.809.063s-7.809-.027-7.809-.063,3.5-.063,7.809-.063S515.517,282.229,515.517,282.263Z" transform="translate(-462.314 -251.671)" fill="#e0e0e0"/>
        <path id="Trazado_339" data-name="Trazado 339" d="M488.137,263.2c0,.034-3.5.063-7.809.063s-7.809-.029-7.809-.063,3.5-.063,7.809-.063S488.137,263.167,488.137,263.2Z" transform="translate(-441.572 -237.232)" fill="#fafafa"/>
        <path id="Trazado_340" data-name="Trazado 340" d="M496.8,272.733c0,.034-5.43.063-12.121.063s-12.121-.029-12.121-.063,5.428-.063,12.121-.063S496.8,272.7,496.8,272.733Z" transform="translate(-441.602 -244.451)" fill="#455a64"/>
        <path id="Trazado_341" data-name="Trazado 341" d="M390.493,282.263c0,.036-1.268.063-2.832.063s-2.832-.027-2.832-.063,1.268-.063,2.832-.063S390.493,282.229,390.493,282.263Z" transform="translate(-375.14 -251.671)" fill="#fafafa"/>
        <path id="Trazado_342" data-name="Trazado 342" d="M577.753,282.263c0,.036-1.268.063-2.831.063s-2.832-.027-2.832-.063,1.268-.063,2.832-.063S577.753,282.229,577.753,282.263Z" transform="translate(-517.003 -251.671)" fill="#43f7d4"/>
      </g>
      <g id="freepik--Device--inject-152" transform="translate(11.237 47.619)">
        <path id="Trazado_343" data-name="Trazado 343" d="M196.259,235.47h72.11A1.634,1.634,0,0,1,270,237.1v44.849a3.532,3.532,0,0,1-3.532,3.532H197.912a3.532,3.532,0,0,1-3.532-3.532V237.346A1.879,1.879,0,0,1,196.259,235.47Z" transform="translate(-191.219 -235.47)" fill="#455a64"/>
        <path id="Trazado_344" data-name="Trazado 344" d="M181.34,426.5h81.94v1.05a3.326,3.326,0,0,1-3.326,3.326H184.666a3.326,3.326,0,0,1-3.326-3.326Z" transform="translate(-181.34 -380.189)" fill="#455a64"/>
        <rect id="Rectángulo_130" data-name="Rectángulo 130" width="71.351" height="42.231" transform="translate(5.19 1.988)" fill="#e0e0e0"/>
        <path id="Trazado_345" data-name="Trazado 345" d="M319.6,426.5l1.016,1.617h14.306l.945-1.617Z" transform="translate(-286.082 -380.189)" fill="#263238"/>
        <rect id="Rectángulo_131" data-name="Rectángulo 131" width="75.623" height="0.24" transform="translate(3.173 46.294)" fill="#263238"/>
        <rect id="Rectángulo_132" data-name="Rectángulo 132" width="67.288" height="39.785" transform="translate(7.309 4.434)" fill="#263238"/>
        <path id="Trazado_346" data-name="Trazado 346" d="M232.583,294.778c-.034,0-.063-8.473-.063-18.924s.029-18.924.063-18.924.053,8.47.053,18.926S232.617,294.778,232.583,294.778Z" transform="translate(-220.113 -251.727)" fill="#e0e0e0"/>
        <path id="Trazado_347" data-name="Trazado 347" d="M220.347,270.884a9.516,9.516,0,0,1-2.187,0,9.513,9.513,0,0,1,2.182,0Z" transform="translate(-209.234 -262.251)" fill="#e0e0e0"/>
        <path id="Trazado_348" data-name="Trazado 348" d="M220.7,262.024a9.516,9.516,0,0,1-2.187,0,9.513,9.513,0,0,1,2.182,0Z" transform="translate(-209.499 -255.539)" fill="#e0e0e0"/>
        <path id="Trazado_349" data-name="Trazado 349" d="M220.362,280.434a9.516,9.516,0,0,1-2.182,0A9.52,9.52,0,0,1,220.362,280.434Z" transform="translate(-209.249 -269.486)" fill="#e0e0e0"/>
        <path id="Trazado_350" data-name="Trazado 350" d="M220.362,289.957a9.516,9.516,0,0,1-2.182,0,9.469,9.469,0,0,1,2.182,0Z" transform="translate(-209.249 -276.694)" fill="#e0e0e0"/>
        <path id="Trazado_351" data-name="Trazado 351" d="M220.362,299.507a9.52,9.52,0,0,1-2.182,0,9.469,9.469,0,0,1,2.182,0Z" transform="translate(-209.249 -283.929)" fill="#e0e0e0"/>
        <path id="Trazado_352" data-name="Trazado 352" d="M220.362,309.057a9.516,9.516,0,0,1-2.182,0,9.467,9.467,0,0,1,2.182,0Z" transform="translate(-209.249 -291.164)" fill="#e0e0e0"/>
        <path id="Trazado_353" data-name="Trazado 353" d="M220.347,318.624a9.172,9.172,0,0,1-2.187,0,9.513,9.513,0,0,1,2.182,0Z" transform="translate(-209.234 -298.418)" fill="#e0e0e0"/>
        <path id="Trazado_354" data-name="Trazado 354" d="M220.347,328.174a9.516,9.516,0,0,1-2.187,0,9.516,9.516,0,0,1,2.182,0Z" transform="translate(-209.234 -305.652)" fill="#e0e0e0"/>
        <path id="Trazado_355" data-name="Trazado 355" d="M220.347,337.724a9.512,9.512,0,0,1-2.187,0,9.516,9.516,0,0,1,2.182,0Z" transform="translate(-209.234 -312.887)" fill="#e0e0e0"/>
        <path id="Trazado_356" data-name="Trazado 356" d="M220.347,347.274a9.521,9.521,0,0,1-2.187,0,9.516,9.516,0,0,1,2.182,0Z" transform="translate(-209.234 -320.122)" fill="#e0e0e0"/>
        <path id="Trazado_357" data-name="Trazado 357" d="M220.362,356.8a9.516,9.516,0,0,1-2.182,0,9.513,9.513,0,0,1,2.182,0Z" transform="translate(-209.249 -327.342)" fill="#e0e0e0"/>
        <path id="Trazado_358" data-name="Trazado 358" d="M220.362,366.347a9.516,9.516,0,0,1-2.182,0,9.474,9.474,0,0,1,2.182,0Z" transform="translate(-209.249 -334.565)" fill="#e0e0e0"/>
        <path id="Trazado_359" data-name="Trazado 359" d="M220.362,375.9a9.515,9.515,0,0,1-2.182,0,9.476,9.476,0,0,1,2.182,0Z" transform="translate(-209.249 -341.8)" fill="#e0e0e0"/>
        <path id="Trazado_360" data-name="Trazado 360" d="M220.362,385.447a9.513,9.513,0,0,1-2.182,0,9.474,9.474,0,0,1,2.182,0Z" transform="translate(-209.249 -349.035)" fill="#e0e0e0"/>
        <path id="Trazado_361" data-name="Trazado 361" d="M220.362,394.99a9.516,9.516,0,0,1-2.182,0,9.123,9.123,0,0,1,2.182,0Z" transform="translate(-209.249 -356.262)" fill="#e0e0e0"/>
        <path id="Trazado_362" data-name="Trazado 362" d="M220.347,404.564a9.512,9.512,0,0,1-2.187,0,9.513,9.513,0,0,1,2.182,0Z" transform="translate(-209.234 -363.523)" fill="#e0e0e0"/>
        <path id="Trazado_363" data-name="Trazado 363" d="M245.6,270.323c0,.034-1.27.063-2.836.063s-2.839-.029-2.839-.063,1.27-.063,2.839-.063S245.6,270.287,245.6,270.323Z" transform="translate(-225.719 -261.826)" fill="#43f7d4"/>
        <path id="Trazado_364" data-name="Trazado 364" d="M245.6,404.563c0,.036-1.27.063-2.836.063s-2.839-.027-2.839-.063,1.27-.063,2.839-.063S245.6,404.529,245.6,404.563Z" transform="translate(-225.719 -363.523)" fill="#43f7d4"/>
        <path id="Trazado_365" data-name="Trazado 365" d="M262.746,289.983c0,.034-2.378.063-5.309.063s-5.307-.029-5.307-.063,2.376-.063,5.307-.063S262.746,289.939,262.746,289.983Z" transform="translate(-234.969 -276.72)" fill="#43f7d4"/>
        <path id="Trazado_366" data-name="Trazado 366" d="M313.376,289.983c0,.034-2.378.063-5.309.063s-5.307-.029-5.307-.063,2.376-.063,5.307-.063S313.376,289.939,313.376,289.983Z" transform="translate(-273.324 -276.72)" fill="#e0e0e0"/>
        <path id="Trazado_367" data-name="Trazado 367" d="M278.314,299.533c0,.034-3.5.063-7.823.063s-7.821-.029-7.821-.063,3.5-.063,7.821-.063S278.314,299.5,278.314,299.533Z" transform="translate(-242.953 -283.955)" fill="#e0e0e0"/>
        <path id="Trazado_368" data-name="Trazado 368" d="M278.314,309.083c0,.034-3.5.063-7.823.063s-7.821-.029-7.821-.063,3.5-.063,7.821-.063S278.314,309.047,278.314,309.083Z" transform="translate(-242.953 -291.189)" fill="#e0e0e0"/>
        <path id="Trazado_369" data-name="Trazado 369" d="M322.724,337.723c0,.036-3.5.063-7.821.063s-7.823-.027-7.823-.063,3.5-.063,7.823-.063S322.724,337.689,322.724,337.723Z" transform="translate(-276.597 -312.886)" fill="#e0e0e0"/>
        <path id="Trazado_370" data-name="Trazado 370" d="M303.564,318.623c0,.036-3.5.065-7.823.065s-7.821-.029-7.821-.065,3.5-.063,7.821-.063S303.564,318.589,303.564,318.623Z" transform="translate(-262.082 -298.417)" fill="#e0e0e0"/>
        <path id="Trazado_371" data-name="Trazado 371" d="M382.414,318.623c0,.036-3.5.065-7.821.065s-7.823-.029-7.823-.065,3.5-.063,7.823-.063S382.414,318.589,382.414,318.623Z" transform="translate(-321.817 -298.417)" fill="#e0e0e0"/>
        <path id="Trazado_372" data-name="Trazado 372" d="M354.994,299.533c0,.034-3.5.063-7.823.063s-7.821-.029-7.821-.063,3.5-.063,7.821-.063S354.994,299.5,354.994,299.533Z" transform="translate(-301.044 -283.955)" fill="#fafafa"/>
        <path id="Trazado_373" data-name="Trazado 373" d="M399.564,337.723c0,.036-3.5.063-7.821.063s-7.823-.027-7.823-.063,3.5-.063,7.823-.063S399.564,337.689,399.564,337.723Z" transform="translate(-334.809 -312.886)" fill="#fafafa"/>
        <path id="Trazado_374" data-name="Trazado 374" d="M363.641,309.083c0,.034-5.438.063-12.146.063s-12.146-.029-12.146-.063,5.438-.063,12.146-.063S363.641,309.047,363.641,309.083Z" transform="translate(-301.044 -291.189)" fill="#455a64"/>
        <path id="Trazado_375" data-name="Trazado 375" d="M245.6,280.433c0,.034-1.27.063-2.836.063s-2.839-.029-2.839-.063,1.27-.063,2.839-.063S245.6,280.4,245.6,280.433Z" transform="translate(-225.719 -269.485)" fill="#fafafa"/>
        <path id="Trazado_376" data-name="Trazado 376" d="M245.6,395.015c0,.034-1.27.063-2.836.063s-2.839-.029-2.839-.063,1.27-.065,2.839-.065S245.6,394.979,245.6,395.015Z" transform="translate(-225.719 -356.288)" fill="#fafafa"/>
        <path id="Trazado_377" data-name="Trazado 377" d="M257.193,318.623c0,.036-1.27.065-2.836.065s-2.836-.029-2.836-.065,1.268-.063,2.836-.063S257.193,318.589,257.193,318.623Z" transform="translate(-234.506 -298.417)" fill="#fafafa"/>
        <path id="Trazado_378" data-name="Trazado 378" d="M444.753,318.623c0,.036-1.27.065-2.836.065s-2.836-.029-2.836-.065,1.268-.063,2.836-.063S444.753,318.589,444.753,318.623Z" transform="translate(-376.597 -298.417)" fill="#43f7d4"/>
        <path id="Trazado_379" data-name="Trazado 379" d="M262.746,356.8c0,.036-2.378.063-5.309.063s-5.307-.027-5.307-.063,2.376-.063,5.307-.063S262.746,356.759,262.746,356.8Z" transform="translate(-234.969 -327.341)" fill="#43f7d4"/>
        <path id="Trazado_380" data-name="Trazado 380" d="M313.376,356.8c0,.036-2.378.063-5.309.063s-5.307-.027-5.307-.063,2.376-.063,5.307-.063S313.376,356.759,313.376,356.8Z" transform="translate(-273.324 -327.341)" fill="#e0e0e0"/>
        <path id="Trazado_381" data-name="Trazado 381" d="M278.314,366.313c0,.036-3.5.063-7.823.063s-7.821-.027-7.821-.063,3.5-.063,7.821-.063S278.314,366.279,278.314,366.313Z" transform="translate(-242.953 -334.545)" fill="#e0e0e0"/>
        <path id="Trazado_382" data-name="Trazado 382" d="M278.314,375.863c0,.036-3.5.063-7.823.063s-7.821-.027-7.821-.063,3.5-.063,7.821-.063S278.314,375.829,278.314,375.863Z" transform="translate(-242.953 -341.78)" fill="#e0e0e0"/>
        <path id="Trazado_383" data-name="Trazado 383" d="M303.564,385.413c0,.034-3.5.063-7.823.063s-7.821-.029-7.821-.063,3.5-.063,7.821-.063S303.564,385.379,303.564,385.413Z" transform="translate(-262.082 -349.015)" fill="#e0e0e0"/>
        <path id="Trazado_384" data-name="Trazado 384" d="M382.414,385.413c0,.034-3.5.063-7.821.063s-7.823-.029-7.823-.063,3.5-.063,7.823-.063S382.414,385.379,382.414,385.413Z" transform="translate(-321.817 -349.015)" fill="#e0e0e0"/>
        <path id="Trazado_385" data-name="Trazado 385" d="M354.994,366.313c0,.036-3.5.063-7.823.063s-7.821-.027-7.821-.063,3.5-.063,7.821-.063S354.994,366.279,354.994,366.313Z" transform="translate(-301.044 -334.545)" fill="#fafafa"/>
        <path id="Trazado_386" data-name="Trazado 386" d="M363.641,375.863c0,.036-5.438.063-12.146.063s-12.146-.027-12.146-.063,5.438-.063,12.146-.063S363.641,375.829,363.641,375.863Z" transform="translate(-301.044 -341.78)" fill="#455a64"/>
        <path id="Trazado_387" data-name="Trazado 387" d="M257.193,385.413c0,.034-1.27.063-2.836.063s-2.836-.029-2.836-.063,1.268-.063,2.836-.063S257.193,385.379,257.193,385.413Z" transform="translate(-234.506 -349.015)" fill="#fafafa"/>
        <path id="Trazado_388" data-name="Trazado 388" d="M444.753,385.413c0,.034-1.27.063-2.836.063s-2.836-.029-2.836-.063,1.268-.063,2.836-.063S444.753,385.379,444.753,385.413Z" transform="translate(-376.597 -349.015)" fill="#43f7d4"/>
      </g>
      <g id="freepik--character-1--inject-152" transform="translate(7.314 11.788)">
        <path id="Trazado_390" data-name="Trazado 390" d="M215.894,213.231c4.046-1.469,1.968-7.571,1.968-7.571l-20.534,1.881a2.895,2.895,0,0,0-2.909,2.895h0a2.9,2.9,0,0,0,2.895,2.895l18.584-.1" transform="translate(-187.326 -177.056)" fill="#263238"/>
        <path id="Trazado_391" data-name="Trazado 391" d="M167.295,295.885l-.041-2.036,3.906-1.389.162,2.836-.221.107a45.912,45.912,0,0,1-5.772,2.356C164.487,297.835,167.295,295.885,167.295,295.885Z" transform="translate(-165.168 -242.814)" fill="#43f7d4"/>
        <g id="Grupo_35" data-name="Grupo 35" transform="translate(0 52.403)" opacity="0.4">
          <path id="Trazado_392" data-name="Trazado 392" d="M165.934,305.505s-.955.752-.747.875a37.387,37.387,0,0,0,6.124-2.47l-.039-.08-4.824,2.012S166.149,305.428,165.934,305.505Z" transform="translate(-165.157 -303.83)" fill="#fff"/>
        </g>
        <path id="Trazado_393" data-name="Trazado 393" d="M171.368,303.73l-.061.031-.175.085-.64.3c-.55.242-1.314.579-2.165.926s-1.632.647-2.2.853l-.672.242-.184.063-.065.017.063-.027.179-.07.667-.257c.562-.216,1.338-.516,2.182-.865s1.617-.674,2.182-.912l.655-.284.177-.075A.272.272,0,0,1,171.368,303.73Z" transform="translate(-165.197 -251.352)" fill="#263238"/>
        <path id="Trazado_394" data-name="Trazado 394" d="M168.792,311.027a1.885,1.885,0,0,0-.242-.264,1.668,1.668,0,0,0-.33-.162.642.642,0,0,1,.582.427Z" transform="translate(-167.478 -256.556)" fill="#263238"/>
        <path id="Trazado_395" data-name="Trazado 395" d="M173.1,307.609a.868.868,0,0,1-.172-.092c-.087-.061-.153-.121-.143-.133s.082.032.17.095S173.109,307.6,173.1,307.609Z" transform="translate(-170.937 -254.118)" fill="#263238"/>
        <path id="Trazado_396" data-name="Trazado 396" d="M174.03,306.817c0,.012-.078,0-.162-.034s-.153-.065-.148-.078.078,0,.162.034S174.044,306.805,174.03,306.817Z" transform="translate(-171.643 -253.602)" fill="#263238"/>
        <path id="Trazado_397" data-name="Trazado 397" d="M174.048,305.45a.508.508,0,0,1-.179.1.485.485,0,0,1-.2.058.508.508,0,0,1,.179-.1A.484.484,0,0,1,174.048,305.45Z" transform="translate(-171.606 -252.655)" fill="#263238"/>
        <path id="Trazado_398" data-name="Trazado 398" d="M173.787,304.35a.419.419,0,0,1-.187.148.383.383,0,0,1-.23.058,1.393,1.393,0,0,1,.208-.1A1.285,1.285,0,0,1,173.787,304.35Z" transform="translate(-171.379 -251.821)" fill="#263238"/>
        <path id="Trazado_399" data-name="Trazado 399" d="M170.553,306.678a.727.727,0,0,1-.242.092,1.311,1.311,0,0,1-.272.046.748.748,0,0,1-.165,0,.133.133,0,0,1-.09-.048.109.109,0,0,1,0-.109.465.465,0,0,1,.582-.09.46.46,0,0,1,.141.126c.024.036.034.058.032.061a.667.667,0,0,0-.189-.158.453.453,0,0,0-.242-.049.39.39,0,0,0-.269.133c-.027.044,0,.08.056.087a.666.666,0,0,0,.155,0,1.9,1.9,0,0,0,.267-.034C170.47,306.707,170.553,306.671,170.553,306.678Z" transform="translate(-168.652 -253.454)" fill="#263238"/>
        <path id="Trazado_400" data-name="Trazado 400" d="M172.484,305.654a.264.264,0,0,1-.092-.153.4.4,0,0,1,0-.2.242.242,0,0,1,.145-.2.1.1,0,0,1,.116.08.293.293,0,0,1,0,.121.835.835,0,0,1-.053.184.371.371,0,0,1-.095.15,1.54,1.54,0,0,0,.063-.162.786.786,0,0,0,.041-.179c.012-.063,0-.16-.065-.145s-.1.1-.114.16a.409.409,0,0,0,0,.179A.974.974,0,0,0,172.484,305.654Z" transform="translate(-170.629 -252.393)" fill="#263238"/>
        <path id="Trazado_401" data-name="Trazado 401" d="M185.674,299.75a1.467,1.467,0,0,0-.264.119,1.229,1.229,0,0,0-.642,1.147,1.542,1.542,0,0,0,.036.288.326.326,0,0,1-.032-.075,1.032,1.032,0,0,1-.039-.211,1.188,1.188,0,0,1,.662-1.178.918.918,0,0,1,.2-.078A.244.244,0,0,1,185.674,299.75Z" transform="translate(-179.984 -248.336)" fill="#263238"/>
        <path id="Trazado_402" data-name="Trazado 402" d="M184.54,294.14a6.883,6.883,0,0,1,.335.727,6.433,6.433,0,0,1,.291.751,6.7,6.7,0,0,1-.335-.727A7.141,7.141,0,0,1,184.54,294.14Z" transform="translate(-179.841 -244.086)" fill="#263238"/>
        <path id="Trazado_403" data-name="Trazado 403" d="M179.259,305.557a2.385,2.385,0,0,1-.509.269,2.288,2.288,0,0,1-.55.172c0-.012.242-.095.531-.218S179.252,305.545,179.259,305.557Z" transform="translate(-175.038 -252.735)" fill="#263238"/>
        <path id="Trazado_404" data-name="Trazado 404" d="M185.381,304.358c.012,0,0,.058,0,.121v.124a.184.184,0,0,1-.041-.126C185.342,304.4,185.369,304.351,185.381,304.358Z" transform="translate(-180.447 -251.827)" fill="#263238"/>
        <path id="Trazado_405" data-name="Trazado 405" d="M185.785,302.529a.386.386,0,0,1-.017.1c-.017.053-.051.095-.063.09s0-.053.019-.107S185.773,302.524,185.785,302.529Z" transform="translate(-180.72 -250.441)" fill="#263238"/>
        <path id="Trazado_406" data-name="Trazado 406" d="M186.813,301.231c0,.015-.046.034-.092.073s-.073.085-.085.08,0-.065.053-.114S186.813,301.219,186.813,301.231Z" transform="translate(-181.426 -249.454)" fill="#263238"/>
        <path id="Trazado_407" data-name="Trazado 407" d="M188.094,300.488a.082.082,0,0,1-.032.061c-.032.024-.053.034-.061.024s0-.036.029-.061S188.084,300.479,188.094,300.488Z" transform="translate(-182.462 -248.893)" fill="#263238"/>
        <path id="Trazado_408" data-name="Trazado 408" d="M184.446,212.28l-11.467.216a3.68,3.68,0,0,0-3.585,3.232l-2.274,18.48h6.228l1.9-15.961H184.3Z" transform="translate(-166.644 -182.072)" fill="#263238"/>
        <path id="Trazado_409" data-name="Trazado 409" d="M167.44,297.765c0,.029,1.365.063,3.047.073s3.018-.032,3.047-.034c.194-.019-1.365-.063-3.047-.073S167.44,297.735,167.44,297.765Z" transform="translate(-166.887 -246.804)" fill="#455a64"/>
        <path id="Trazado_410" data-name="Trazado 410" d="M211.594,209.88h-.225l-.65.029-2.371.112-7.811.4c-.383.017-.759.048-1.13.053s-.742.022-1.1.041-.713.046-1.059.082a3.893,3.893,0,0,0-1.008.2,2.441,2.441,0,0,0-.836.507,2.1,2.1,0,0,0-.509.773,3.712,3.712,0,0,0-.206.834,5.3,5.3,0,0,0-.056.79,3.181,3.181,0,0,0,.267,1.328,2.16,2.16,0,0,0,.625.81,1.746,1.746,0,0,0,.57.305c.143.041.145.029,0-.019a1.833,1.833,0,0,1-.553-.318,2.182,2.182,0,0,1-.6-.8,3.173,3.173,0,0,1-.242-1.307,5.5,5.5,0,0,1,.061-.778,3.762,3.762,0,0,1,.208-.815,2.024,2.024,0,0,1,.485-.727,2.378,2.378,0,0,1,.81-.485,4.024,4.024,0,0,1,.984-.187c.344-.034.7-.058,1.057-.078s.727-.034,1.1-.039.749-.036,1.132-.053l7.818-.436,2.371-.145.642-.044.167-.015A.182.182,0,0,0,211.594,209.88Z" transform="translate(-187.484 -180.253)" fill="#455a64"/>
        <path id="Trazado_411" data-name="Trazado 411" d="M216.858,170.684l-1,3.122a3.6,3.6,0,0,1-2.8,2.509l-5.789,1.6-.451-1.072-.422-1.583,5.009-1.7a1.341,1.341,0,0,0,1.011-.97l2-4.339,2.526,1.549Z" transform="translate(-196.402 -148.723)" fill="#b78876"/>
        <path id="Trazado_412" data-name="Trazado 412" d="M240.386,137.2a4.412,4.412,0,0,0-3.67,2.364,7.092,7.092,0,0,0-.858,1.68L234.25,145.8l3.353,1.035-.112,3.7-1.527,4.526,12.88,1.013-.036-6.577-.092-3.969c.121-1.5.434-4.689.167-5.445-1.147-3.232-3.675-2.611-5.53-3.072a12.492,12.492,0,0,0-2.555,0" transform="translate(-217.5 -125.003)" fill="#43f7d4"/>
        <path id="Trazado_413" data-name="Trazado 413" d="M259.261,186.8c0,.034-2.519.063-5.627.063S248,186.844,248,186.8s2.519-.063,5.627-.063S259.261,186.774,259.261,186.8Z" transform="translate(-227.917 -162.723)" fill="#fafafa"/>
        <path id="Trazado_414" data-name="Trazado 414" d="M258.5,196.1c0,.036-2.519.063-5.627.063s-5.627-.027-5.627-.063,2.519-.063,5.627-.063S258.5,196.069,258.5,196.1Z" transform="translate(-227.349 -169.769)" fill="#fafafa"/>
        <path id="Trazado_415" data-name="Trazado 415" d="M256.731,206.743c0,.036-2.667.063-5.949.063s-5.952-.027-5.952-.063,2.667-.063,5.952-.063S256.731,206.709,256.731,206.743Z" transform="translate(-225.515 -177.829)" fill="#fafafa"/>
        <g id="Grupo_36" data-name="Grupo 36" transform="translate(20.253 22.349)" opacity="0.3">
          <path id="Trazado_416" data-name="Trazado 416" d="M258.1,180.161a18.365,18.365,0,0,1-.538,2.647,6.41,6.41,0,0,1-.861,1.753,4.335,4.335,0,0,1-2.182,1.455,35.367,35.367,0,0,1-5.818,1.11l7.481-3.542.9-3.724Z" transform="translate(-248.7 -179.86)"/>
        </g>
        <path id="Trazado_417" data-name="Trazado 417" d="M248.382,178.386l-.822,3.166a3.636,3.636,0,0,1-2.691,2.667l-6.6,1.547-1.816.019v-2.5l6.647-1.8a1.353,1.353,0,0,0,.97-1.013l.64-2.785Z" transform="translate(-219.167 -155.867)" fill="#b78876"/>
        <path id="Trazado_418" data-name="Trazado 418" d="M255.963,148.933c0,.034-2.776.063-6.2.063s-6.2-.029-6.2-.063,2.776-.063,6.2-.063S255.963,148.9,255.963,148.933Z" transform="translate(-224.553 -134.034)" fill="#fafafa"/>
        <path id="Trazado_419" data-name="Trazado 419" d="M253.227,157.8c0,.036-2.992.063-6.684.063s-6.684-.027-6.684-.063,2.992-.063,6.684-.063S253.227,157.764,253.227,157.8Z" transform="translate(-221.75 -140.754)" fill="#fafafa"/>
        <path id="Trazado_420" data-name="Trazado 420" d="M250.391,167.473c0,.036-3.152.09-7.03.119s-7.03.027-7.03,0,3.152-.087,7.03-.119S250.388,167.439,250.391,167.473Z" transform="translate(-219.076 -148.109)" fill="#fafafa"/>
        <path id="Trazado_421" data-name="Trazado 421" d="M258.753,177.493c0,.034-2.519.063-5.627.063s-5.627-.029-5.627-.063,2.519-.063,5.627-.063S258.753,177.459,258.753,177.493Z" transform="translate(-227.538 -155.67)" fill="#fafafa"/>
        <path id="Trazado_422" data-name="Trazado 422" d="M273.666,151.776a.13.13,0,0,1,0-.053l.022-.153c.022-.143.053-.339.09-.587.08-.514.2-1.258.325-2.182s.276-2.053.352-3.319a3.778,3.778,0,0,0-.242-1.939,2.056,2.056,0,0,0-.681-.771,2.424,2.424,0,0,0-1-.385h-.015a2.061,2.061,0,0,0-1.227.085,3.493,3.493,0,0,0-1.135.616.885.885,0,0,0-.175.2,2.476,2.476,0,0,0-.128.242,3.755,3.755,0,0,0-.187.509,9.932,9.932,0,0,0-.223,1.055c-.126.7-.242,1.384-.366,2.041-.242,1.314-.453,2.526-.647,3.6l-.036-.056,3.733.783,1.026.228.269.063a.459.459,0,0,1,.09.027l-.095-.012-.269-.048-1.033-.2-3.743-.756h-.044v-.048c.189-1.074.4-2.288.63-3.6.116-.657.242-1.341.361-2.044a9.473,9.473,0,0,1,.225-1.064,3.536,3.536,0,0,1,.192-.528q.062-.124.136-.242a1.08,1.08,0,0,1,.2-.223,3.637,3.637,0,0,1,1.181-.642,2.182,2.182,0,0,1,1.3-.08h-.012a2.538,2.538,0,0,1,1.052.41,2.182,2.182,0,0,1,.727.817,2.586,2.586,0,0,1,.189.5,3.1,3.1,0,0,1,.075.512l.015.242V145c0,.165-.012.325-.022.485-.082,1.273-.242,2.393-.378,3.326s-.269,1.675-.361,2.182c-.046.242-.085.441-.112.584l-.031.15A.3.3,0,0,1,273.666,151.776Z" transform="translate(-243.318 -128.993)" fill="#263238"/>
        <path id="Trazado_423" data-name="Trazado 423" d="M247.531,165.972a2.209,2.209,0,0,0,.017-.337v-.921c0-.776,0-1.847-.022-3.033s-.032-2.257-.051-3.033c-.012-.376-.022-.684-.029-.921a2.256,2.256,0,0,0-.024-.337,1.866,1.866,0,0,0-.017.337v.921c0,.776,0,1.85.022,3.033s.034,2.259.053,3.035c0,.373.022.684.029.919A1.864,1.864,0,0,0,247.531,165.972Z" transform="translate(-227.465 -140.488)" fill="#263238"/>
        <path id="Trazado_424" data-name="Trazado 424" d="M210.686,190.121l.114-.541-5-.533-2.182-6.267-10.187-.07,3.338,7.268Z" transform="translate(-186.576 -159.67)" fill="#455a64"/>
        <path id="Trazado_425" data-name="Trazado 425" d="M217.95,196.348a.5.5,0,1,0-.379.066.5.5,0,0,0,.379-.066" transform="translate(-204.568 -169.301)" fill="#fff"/>
        <path id="Trazado_426" data-name="Trazado 426" d="M245.429,95.281a1.353,1.353,0,0,0-.485,2.5.727.727,0,0,0,.681.078.836.836,0,0,0,.368-.533,2.856,2.856,0,0,0-.162-2.082" transform="translate(-225.103 -93.405)" fill="#263238"/>
        <path id="Trazado_427" data-name="Trazado 427" d="M253.411,109.383h0a2.182,2.182,0,0,1-2.182-2.2c0-.754.019-1.409.019-1.409a2.08,2.08,0,0,1-1.874-1.891c-.128-1.729-.073-5.719-.073-5.719h0a6.032,6.032,0,0,1,6.087.388l.267.182-.082,8.485A2.182,2.182,0,0,1,253.411,109.383Z" transform="translate(-228.894 -95.134)" fill="#b78876"/>
        <path id="Trazado_428" data-name="Trazado 428" d="M257.39,129.031a4.022,4.022,0,0,0,2.216-.781,2.129,2.129,0,0,1-2.182,1.229Z" transform="translate(-235.03 -118.413)" fill="#aa6550"/>
        <path id="Trazado_429" data-name="Trazado 429" d="M272.689,110.392c.034,0,1.1-.15.994,1.105s-1.333.727-1.333.7S272.689,110.392,272.689,110.392Z" transform="translate(-246.364 -104.88)" fill="#b78876"/>
        <path id="Trazado_430" data-name="Trazado 430" d="M274.075,113.127a.642.642,0,0,0,.058.039.216.216,0,0,0,.162.015.538.538,0,0,0,.289-.463.727.727,0,0,0-.036-.32.242.242,0,0,0-.15-.179.109.109,0,0,0-.133.048c-.019.034-.014.061-.022.063s-.024-.024,0-.075a.143.143,0,0,1,.056-.075.162.162,0,0,1,.124-.022.305.305,0,0,1,.211.213.707.707,0,0,1,.048.354.57.57,0,0,1-.361.516.243.243,0,0,1-.2-.048C274.075,113.159,274.07,113.13,274.075,113.127Z" transform="translate(-247.669 -106.218)" fill="#aa6550"/>
        <path id="Trazado_431" data-name="Trazado 431" d="M248.069,91.419a4.933,4.933,0,0,0,.815-.589,1.321,1.321,0,0,0,2.034.242.679.679,0,0,0,.342.545.672.672,0,0,0,.642,0l.027,2a.914.914,0,0,0,.126.553.318.318,0,0,0,.485.041,1.384,1.384,0,0,1,.068-.727.485.485,0,0,1,.6-.269,4.971,4.971,0,0,0,.07-1.183,1.05,1.05,0,0,1,.049-.361c.068-.112.1-.027.228-.053a.9.9,0,0,0,.674-.807,1.127,1.127,0,0,0-.485-.97,1.544,1.544,0,0,0-1.072-.257.681.681,0,0,0,0-.912,1.113,1.113,0,0,0-.912-.335c-.337.022-.715.208-.756.541a1.382,1.382,0,0,0-2.73-.075,1.846,1.846,0,0,0-1.367-.194,1.321,1.321,0,0,0-.832,1.152s-.1,1.372.769,1.648S248.069,91.419,248.069,91.419Z" transform="translate(-226.458 -87.672)" fill="#263238"/>
        <path id="Trazado_432" data-name="Trazado 432" d="M251.26,110.918a.243.243,0,1,0,.242-.218A.242.242,0,0,0,251.26,110.918Z" transform="translate(-230.386 -105.117)" fill="#263238"/>
        <path id="Trazado_433" data-name="Trazado 433" d="M251,109.675c.029.032.213-.1.485-.1s.451.131.485.1-.017-.073-.1-.133a.674.674,0,0,0-.385-.119.642.642,0,0,0-.378.124A.235.235,0,0,0,251,109.675Z" transform="translate(-230.189 -104.148)" fill="#263238"/>
        <path id="Trazado_434" data-name="Trazado 434" d="M261.8,111.168a.243.243,0,1,0,.242-.218A.242.242,0,0,0,261.8,111.168Z" transform="translate(-238.371 -105.307)" fill="#263238"/>
        <path id="Trazado_435" data-name="Trazado 435" d="M261.608,109.875c.029.034.213-.1.485-.1s.451.131.485.1-.017-.073-.1-.133a.674.674,0,0,0-.385-.119.642.642,0,0,0-.378.124C261.621,109.8,261.594,109.862,261.608,109.875Z" transform="translate(-238.223 -104.299)" fill="#263238"/>
        <path id="Trazado_436" data-name="Trazado 436" d="M255.644,111.865a1.7,1.7,0,0,0-.422-.078c-.068,0-.131-.019-.143-.065a.334.334,0,0,1,.046-.2l.2-.509a8.832,8.832,0,0,0,.444-1.326,8.674,8.674,0,0,0-.55,1.287c-.065.179-.129.349-.187.512a.378.378,0,0,0-.036.262.177.177,0,0,0,.109.1.417.417,0,0,0,.114.015A1.756,1.756,0,0,0,255.644,111.865Z" transform="translate(-233.207 -104.352)" fill="#263238"/>
        <path id="Trazado_437" data-name="Trazado 437" d="M258.281,119.4c-.041,0-.044.281-.286.485s-.543.17-.545.208.068.056.194.058a.693.693,0,0,0,.456-.158.621.621,0,0,0,.223-.4C258.332,119.468,258.31,119.4,258.281,119.4Z" transform="translate(-235.076 -111.708)" fill="#263238"/>
        <path id="Trazado_438" data-name="Trazado 438" d="M261.337,105.844c.027.07.286.036.592.073s.555.121.6.058-.027-.1-.126-.167a.992.992,0,0,0-.441-.153.97.97,0,0,0-.463.053C261.383,105.755,261.327,105.81,261.337,105.844Z" transform="translate(-238.019 -101.289)" fill="#263238"/>
        <path id="Trazado_439" data-name="Trazado 439" d="M251.417,106.533c.046.058.225,0,.441,0s.4.039.441-.022,0-.09-.09-.145a.642.642,0,0,0-.713.022C251.422,106.446,251.4,106.5,251.417,106.533Z" transform="translate(-230.5 -101.76)" fill="#263238"/>
        <path id="Trazado_440" data-name="Trazado 440" d="M249.836,92.633a.189.189,0,0,1-.068-.019.223.223,0,0,0-.179.046.242.242,0,0,0-.08.262.427.427,0,0,0,.259.284.555.555,0,0,0,.465-.029.577.577,0,0,0,.281-.448.645.645,0,0,0-.218-.548.766.766,0,0,0-.611-.2,1,1,0,0,0-.594.3,1.11,1.11,0,0,0-.284.555,1.5,1.5,0,0,0,.177,1.055,1.748,1.748,0,0,0,.485.553c.143.1.242.145.242.155a.79.79,0,0,1-.257-.114,1.653,1.653,0,0,1-.545-.548,1.571,1.571,0,0,1-.213-1.122,1.212,1.212,0,0,1,.31-.621,1.091,1.091,0,0,1,.667-.332.89.89,0,0,1,.71.228.761.761,0,0,1,.242.652.681.681,0,0,1-.347.529.652.652,0,0,1-.553.019.485.485,0,0,1-.291-.349.3.3,0,0,1,.121-.32.242.242,0,0,1,.213-.032C249.824,92.616,249.839,92.63,249.836,92.633Z" transform="translate(-228.424 -90.839)" fill="#455a64"/>
      </g>
    </g>
  </g>
</svg>
