<svg xmlns="http://www.w3.org/2000/svg" width="305.133" height="247.485" viewBox="0 0 305.133 247.485">
  <g id="development" transform="translate(-39.262)">
    <g id="freepik--background-simple--inject-152" transform="translate(39.262 0)">
      <path id="Trazado_300" data-name="Trazado 300" d="M257.094,254.9c39.469,1.63,85.23-7.464,119.585-27.006s59.133-58.328,62.862-97.65c2.661-28.117-3.534-57.931-25.383-75.831s-61.709-20.891-85.151-5.127c-25.31,17-36.1,52.231-64.351,63.7-23.479,9.533-50.314-1.038-75.386,2.624-27.464,4.016-51.382,27.635-53.964,55.276-1.526,16.289,2.258,33.75,14.678,47.244,13,14.129,20.854,18.584,38.755,27.513C204.863,253.689,231.046,253.848,257.094,254.9Z" transform="translate(-134.986 -39.046)" fill="#43f7d4" opacity="0.35"/>
    </g>
    <g id="freepik--Screen--inject-152" transform="translate(167.351 71.544)">
      <rect id="Rectángulo_129" data-name="Rectángulo 129" width="165.908" height="96.674" transform="translate(0)" fill="#263238"/>
      <path id="Trazado_301" data-name="Trazado 301" d="M366.019,250.312c-.085,0-.159-19.768-.159-44.15s.085-44.162.159-44.162.159,19.762.159,44.15S366.11,250.312,366.019,250.312Z" transform="translate(-353.043 -158.503)" fill="#e0e0e0"/>
      <path id="Trazado_302" data-name="Trazado 302" d="M357.023,168.019a23.844,23.844,0,0,1-5.493,0,23.846,23.846,0,0,1,5.493,0Z" transform="translate(-347.459 -160.786)" fill="#e0e0e0"/>
      <path id="Trazado_303" data-name="Trazado 303" d="M357.023,177.549a23.84,23.84,0,0,1-5.493,0,23.846,23.846,0,0,1,5.493,0Z" transform="translate(-347.459 -164.5)" fill="#e0e0e0"/>
      <path id="Trazado_304" data-name="Trazado 304" d="M357.023,187.089a23.842,23.842,0,0,1-5.493,0,23.846,23.846,0,0,1,5.493,0Z" transform="translate(-347.459 -168.218)" fill="#e0e0e0"/>
      <path id="Trazado_305" data-name="Trazado 305" d="M357.023,196.619a23.846,23.846,0,0,1-5.493,0,23.843,23.843,0,0,1,5.493,0Z" transform="translate(-347.459 -171.932)" fill="#e0e0e0"/>
      <path id="Trazado_306" data-name="Trazado 306" d="M357.023,206.149a23.847,23.847,0,0,1-5.493,0,23.843,23.843,0,0,1,5.493,0Z" transform="translate(-347.459 -175.645)" fill="#e0e0e0"/>
      <path id="Trazado_307" data-name="Trazado 307" d="M357.023,215.689a23.846,23.846,0,0,1-5.493,0,23.843,23.843,0,0,1,5.493,0Z" transform="translate(-347.459 -179.363)" fill="#e0e0e0"/>
      <path id="Trazado_308" data-name="Trazado 308" d="M357.023,225.219a23.846,23.846,0,0,1-5.493,0,23.843,23.843,0,0,1,5.493,0Z" transform="translate(-347.459 -183.077)" fill="#e0e0e0"/>
      <path id="Trazado_309" data-name="Trazado 309" d="M357.023,234.749a23.849,23.849,0,0,1-5.493,0,23.839,23.839,0,0,1,5.493,0Z" transform="translate(-347.459 -186.79)" fill="#e0e0e0"/>
      <path id="Trazado_310" data-name="Trazado 310" d="M357.023,244.289a23.844,23.844,0,0,1-5.493,0,23.849,23.849,0,0,1,5.493,0Z" transform="translate(-347.459 -190.508)" fill="#e0e0e0"/>
      <path id="Trazado_311" data-name="Trazado 311" d="M357.023,253.819a23.842,23.842,0,0,1-5.493,0,23.843,23.843,0,0,1,5.493,0Z" transform="translate(-347.459 -194.222)" fill="#e0e0e0"/>
      <path id="Trazado_312" data-name="Trazado 312" d="M357.023,263.349a23.849,23.849,0,0,1-5.493,0,23.849,23.849,0,0,1,5.493,0Z" transform="translate(-347.459 -197.935)" fill="#e0e0e0"/>
      <path id="Trazado_313" data-name="Trazado 313" d="M357.023,272.9a23.842,23.842,0,0,1-5.493,0,23.843,23.843,0,0,1,5.493,0Z" transform="translate(-347.459 -201.657)" fill="#e0e0e0"/>
      <path id="Trazado_314" data-name="Trazado 314" d="M357.023,282.419a23.842,23.842,0,0,1-5.493,0,23.846,23.846,0,0,1,5.493,0Z" transform="translate(-347.459 -205.367)" fill="#e0e0e0"/>
      <path id="Trazado_315" data-name="Trazado 315" d="M357.023,291.949a23.842,23.842,0,0,1-5.493,0A23.846,23.846,0,0,1,357.023,291.949Z" transform="translate(-347.459 -209.08)" fill="#e0e0e0"/>
      <path id="Trazado_316" data-name="Trazado 316" d="M357.023,301.489a23.842,23.842,0,0,1-5.493,0,23.849,23.849,0,0,1,5.493,0Z" transform="translate(-347.459 -212.798)" fill="#e0e0e0"/>
      <path id="Trazado_317" data-name="Trazado 317" d="M387.513,167.459c0,.085-3.192.159-7.128.159s-7.135-.073-7.135-.159,3.192-.159,7.135-.159S387.513,167.367,387.513,167.459Z" transform="translate(-355.923 -160.568)" fill="#43f7d4"/>
      <path id="Trazado_318" data-name="Trazado 318" d="M387.513,301.489c0,.085-3.192.159-7.128.159s-7.135-.073-7.135-.159,3.192-.159,7.135-.159S387.513,301.4,387.513,301.489Z" transform="translate(-355.923 -212.798)" fill="#43f7d4"/>
      <path id="Trazado_319" data-name="Trazado 319" d="M412.123,187.089c0,.085-5.975.159-13.341.159s-13.342-.073-13.342-.159,5.975-.159,13.342-.159S412.123,186.973,412.123,187.089Z" transform="translate(-360.673 -168.218)" fill="#43f7d4"/>
      <path id="Trazado_320" data-name="Trazado 320" d="M462.667,187.089c0,.085-5.969.159-13.335.159s-13.341-.073-13.341-.159,5.969-.159,13.341-.159S462.667,186.973,462.667,187.089Z" transform="translate(-380.372 -168.218)" fill="#e0e0e0"/>
      <path id="Trazado_321" data-name="Trazado 321" d="M435.282,196.619c0,.085-8.807.159-19.658.159s-19.664-.073-19.664-.159,8.8-.159,19.664-.159S435.282,196.533,435.282,196.619Z" transform="translate(-364.773 -171.932)" fill="#e0e0e0"/>
      <path id="Trazado_322" data-name="Trazado 322" d="M435.3,206.149c0,.092-8.807.159-19.658.159S396,206.24,396,206.149s8.8-.159,19.664-.159S435.3,206.063,435.3,206.149Z" transform="translate(-364.789 -175.645)" fill="#e0e0e0"/>
      <path id="Trazado_323" data-name="Trazado 323" d="M479.626,234.749c0,.092-8.8.159-19.658.159s-19.658-.067-19.658-.159,8.8-.159,19.658-.159S479.626,234.663,479.626,234.749Z" transform="translate(-382.056 -186.79)" fill="#e0e0e0"/>
      <path id="Trazado_324" data-name="Trazado 324" d="M460.493,215.689c0,.085-8.807.159-19.658.159s-19.664-.073-19.664-.159,8.8-.159,19.664-.159S460.493,215.6,460.493,215.689Z" transform="translate(-374.597 -179.363)" fill="#e0e0e0"/>
      <path id="Trazado_325" data-name="Trazado 325" d="M539.216,215.689c0,.085-8.8.159-19.658.159s-19.658-.073-19.658-.159,8.8-.159,19.658-.159S539.216,215.6,539.216,215.689Z" transform="translate(-405.277 -179.363)" fill="#e0e0e0"/>
      <path id="Trazado_326" data-name="Trazado 326" d="M511.836,196.619c0,.085-8.8.159-19.658.159s-19.658-.073-19.658-.159,8.8-.159,19.658-.159S511.836,196.533,511.836,196.619Z" transform="translate(-394.607 -171.932)" fill="#fafafa"/>
      <path id="Trazado_327" data-name="Trazado 327" d="M556.335,234.749c0,.092-8.807.159-19.658.159S517,234.84,517,234.749s8.8-.159,19.664-.159S556.335,234.663,556.335,234.749Z" transform="translate(-411.941 -186.79)" fill="#fafafa"/>
      <path id="Trazado_328" data-name="Trazado 328" d="M533.591,206.149c0,.092-13.671.159-30.516.159s-30.516-.067-30.516-.159,13.665-.159,30.516-.159S533.591,206.063,533.591,206.149Z" transform="translate(-394.623 -175.645)" fill="#455a64"/>
      <path id="Trazado_329" data-name="Trazado 329" d="M387.513,177.549c0,.092-3.192.159-7.128.159s-7.135-.067-7.135-.159,3.192-.159,7.135-.159S387.513,177.463,387.513,177.549Z" transform="translate(-355.923 -164.5)" fill="#fafafa"/>
      <path id="Trazado_330" data-name="Trazado 330" d="M387.513,291.949c0,.092-3.192.159-7.128.159s-7.135-.067-7.135-.159,3.192-.159,7.135-.159S387.513,291.863,387.513,291.949Z" transform="translate(-355.923 -209.08)" fill="#fafafa"/>
      <path id="Trazado_331" data-name="Trazado 331" d="M399.087,215.689c0,.085-3.192.159-7.128.159s-7.128-.073-7.128-.159,3.192-.159,7.128-.159S399.087,215.6,399.087,215.689Z" transform="translate(-360.436 -179.363)" fill="#fafafa"/>
      <path id="Trazado_332" data-name="Trazado 332" d="M586.347,215.689c0,.085-3.192.159-7.128.159s-7.128-.073-7.128-.159,3.192-.159,7.128-.159S586.347,215.6,586.347,215.689Z" transform="translate(-433.408 -179.363)" fill="#43f7d4"/>
      <path id="Trazado_333" data-name="Trazado 333" d="M412.123,253.759c0,.092-5.975.159-13.341.159s-13.342-.067-13.342-.159,5.975-.159,13.342-.159S412.123,253.673,412.123,253.759Z" transform="translate(-360.673 -194.198)" fill="#43f7d4"/>
      <path id="Trazado_334" data-name="Trazado 334" d="M462.671,253.759c0,.092-5.969.159-13.335.159S436,253.844,436,253.759s5.969-.159,13.341-.159S462.671,253.673,462.671,253.759Z" transform="translate(-380.376 -194.198)" fill="#e0e0e0"/>
      <path id="Trazado_335" data-name="Trazado 335" d="M435.3,263.3c0,.086-8.807.159-19.658.159S396,263.384,396,263.3s8.8-.159,19.664-.159S435.3,263.207,435.3,263.3Z" transform="translate(-364.789 -197.916)" fill="#e0e0e0"/>
      <path id="Trazado_336" data-name="Trazado 336" d="M435.282,272.829c0,.086-8.807.159-19.658.159s-19.664-.073-19.664-.159,8.8-.159,19.664-.159S435.282,272.743,435.282,272.829Z" transform="translate(-364.773 -201.63)" fill="#e0e0e0"/>
      <path id="Trazado_337" data-name="Trazado 337" d="M460.493,282.359c0,.091-8.807.159-19.658.159s-19.664-.067-19.664-.159,8.8-.159,19.664-.159S460.493,282.273,460.493,282.359Z" transform="translate(-374.597 -205.343)" fill="#e0e0e0"/>
      <path id="Trazado_338" data-name="Trazado 338" d="M539.216,282.359c0,.091-8.8.159-19.658.159s-19.658-.067-19.658-.159,8.8-.159,19.658-.159S539.216,282.273,539.216,282.359Z" transform="translate(-405.277 -205.343)" fill="#e0e0e0"/>
      <path id="Trazado_339" data-name="Trazado 339" d="M511.836,263.3c0,.086-8.8.159-19.658.159s-19.658-.073-19.658-.159,8.8-.159,19.658-.159S511.836,263.207,511.836,263.3Z" transform="translate(-394.607 -197.916)" fill="#fafafa"/>
      <path id="Trazado_340" data-name="Trazado 340" d="M533.591,272.829c0,.086-13.671.159-30.516.159s-30.516-.073-30.516-.159,13.665-.159,30.516-.159S533.591,272.743,533.591,272.829Z" transform="translate(-394.623 -201.63)" fill="#455a64"/>
      <path id="Trazado_341" data-name="Trazado 341" d="M399.087,282.359c0,.091-3.192.159-7.128.159s-7.128-.067-7.128-.159,3.192-.159,7.128-.159S399.087,282.273,399.087,282.359Z" transform="translate(-360.436 -205.343)" fill="#fafafa"/>
      <path id="Trazado_342" data-name="Trazado 342" d="M586.347,282.359c0,.091-3.192.159-7.128.159s-7.128-.067-7.128-.159,3.192-.159,7.128-.159S586.347,282.273,586.347,282.359Z" transform="translate(-433.408 -205.343)" fill="#43f7d4"/>
    </g>
    <g id="freepik--Device--inject-152" transform="translate(67.552 119.88)">
      <path id="Trazado_343" data-name="Trazado 343" d="M199.11,235.47H380.648a4.114,4.114,0,0,1,4.114,4.114V352.492a8.892,8.892,0,0,1-8.892,8.892h-172.6a8.892,8.892,0,0,1-8.892-8.892v-112.3a4.73,4.73,0,0,1,4.73-4.724Z" transform="translate(-186.422 -235.47)" fill="#455a64"/>
      <path id="Trazado_344" data-name="Trazado 344" d="M181.34,426.5H387.626v2.643a8.373,8.373,0,0,1-8.374,8.374H189.714a8.373,8.373,0,0,1-8.374-8.373Z" transform="translate(-181.34 -309.912)" fill="#455a64"/>
      <rect id="Rectángulo_130" data-name="Rectángulo 130" width="179.627" height="106.317" transform="translate(13.067 5.005)" fill="#e0e0e0"/>
      <path id="Trazado_345" data-name="Trazado 345" d="M319.6,426.5l2.557,4.071h36.015l2.38-4.071Z" transform="translate(-235.218 -309.912)" fill="#263238"/>
      <rect id="Rectángulo_131" data-name="Rectángulo 131" width="190.381" height="0.604" transform="translate(7.989 116.545)" fill="#263238"/>
      <rect id="Rectángulo_132" data-name="Rectángulo 132" width="169.399" height="100.159" transform="translate(18.401 11.163)" fill="#263238"/>
      <path id="Trazado_346" data-name="Trazado 346" d="M232.679,352.212c-.085,0-.159-21.33-.159-47.641s.073-47.641.159-47.641.134,21.324.134,47.647S232.764,352.212,232.679,352.212Z" transform="translate(-201.284 -243.833)" fill="#e0e0e0"/>
      <path id="Trazado_347" data-name="Trazado 347" d="M223.665,270.979a23.946,23.946,0,0,1-5.505,0,23.959,23.959,0,0,1,5.493,0Z" transform="translate(-195.688 -249.246)" fill="#e0e0e0"/>
      <path id="Trazado_348" data-name="Trazado 348" d="M224.015,262.119a23.955,23.955,0,0,1-5.505,0,23.956,23.956,0,0,1,5.493,0Z" transform="translate(-195.825 -245.793)" fill="#e0e0e0"/>
      <path id="Trazado_349" data-name="Trazado 349" d="M223.673,280.529a23.959,23.959,0,0,1-5.493,0A23.956,23.956,0,0,1,223.673,280.529Z" transform="translate(-195.696 -252.967)" fill="#e0e0e0"/>
      <path id="Trazado_350" data-name="Trazado 350" d="M223.673,290.065a23.949,23.949,0,0,1-5.493,0,23.845,23.845,0,0,1,5.493,0Z" transform="translate(-195.696 -256.675)" fill="#e0e0e0"/>
      <path id="Trazado_351" data-name="Trazado 351" d="M223.673,299.615a23.959,23.959,0,0,1-5.493,0,23.836,23.836,0,0,1,5.493,0Z" transform="translate(-195.696 -260.397)" fill="#e0e0e0"/>
      <path id="Trazado_352" data-name="Trazado 352" d="M223.673,309.165a23.949,23.949,0,0,1-5.493,0,23.84,23.84,0,0,1,5.493,0Z" transform="translate(-195.696 -264.118)" fill="#e0e0e0"/>
      <path id="Trazado_353" data-name="Trazado 353" d="M223.665,318.719a23.082,23.082,0,0,1-5.505,0,23.956,23.956,0,0,1,5.493,0Z" transform="translate(-195.688 -267.85)" fill="#e0e0e0"/>
      <path id="Trazado_354" data-name="Trazado 354" d="M223.665,328.269a23.946,23.946,0,0,1-5.505,0,23.963,23.963,0,0,1,5.493,0Z" transform="translate(-195.688 -271.571)" fill="#e0e0e0"/>
      <path id="Trazado_355" data-name="Trazado 355" d="M223.665,337.819a23.955,23.955,0,0,1-5.505,0,23.956,23.956,0,0,1,5.493,0Z" transform="translate(-195.688 -275.293)" fill="#e0e0e0"/>
      <path id="Trazado_356" data-name="Trazado 356" d="M223.665,347.369a23.96,23.96,0,0,1-5.505,0,23.952,23.952,0,0,1,5.493,0Z" transform="translate(-195.688 -279.014)" fill="#e0e0e0"/>
      <path id="Trazado_357" data-name="Trazado 357" d="M223.673,356.9a23.959,23.959,0,0,1-5.493,0,23.956,23.956,0,0,1,5.493,0Z" transform="translate(-195.696 -282.728)" fill="#e0e0e0"/>
      <path id="Trazado_358" data-name="Trazado 358" d="M223.673,366.455a23.956,23.956,0,0,1-5.493,0,23.849,23.849,0,0,1,5.493,0Z" transform="translate(-195.696 -286.443)" fill="#e0e0e0"/>
      <path id="Trazado_359" data-name="Trazado 359" d="M223.673,376.005a23.958,23.958,0,0,1-5.493,0,23.847,23.847,0,0,1,5.493,0Z" transform="translate(-195.696 -290.165)" fill="#e0e0e0"/>
      <path id="Trazado_360" data-name="Trazado 360" d="M223.673,385.555a23.946,23.946,0,0,1-5.493,0,23.845,23.845,0,0,1,5.493,0Z" transform="translate(-195.696 -293.886)" fill="#e0e0e0"/>
      <path id="Trazado_361" data-name="Trazado 361" d="M223.673,395.1a23.966,23.966,0,0,1-5.493,0,22.963,22.963,0,0,1,5.493,0Z" transform="translate(-195.696 -297.604)" fill="#e0e0e0"/>
      <path id="Trazado_362" data-name="Trazado 362" d="M223.665,404.659a23.942,23.942,0,0,1-5.505,0,23.959,23.959,0,0,1,5.493,0Z" transform="translate(-195.688 -301.339)" fill="#e0e0e0"/>
      <path id="Trazado_363" data-name="Trazado 363" d="M254.207,270.419c0,.085-3.2.159-7.141.159s-7.147-.073-7.147-.159,3.2-.159,7.147-.159S254.207,270.327,254.207,270.419Z" transform="translate(-204.168 -249.027)" fill="#43f7d4"/>
      <path id="Trazado_364" data-name="Trazado 364" d="M254.207,404.659c0,.092-3.2.159-7.141.159s-7.147-.067-7.147-.159,3.2-.159,7.147-.159S254.207,404.573,254.207,404.659Z" transform="translate(-204.168 -301.339)" fill="#43f7d4"/>
      <path id="Trazado_365" data-name="Trazado 365" d="M278.856,290.079c0,.085-5.987.159-13.366.159s-13.36-.073-13.36-.159,5.981-.159,13.36-.159S278.856,289.969,278.856,290.079Z" transform="translate(-208.926 -256.688)" fill="#43f7d4"/>
      <path id="Trazado_366" data-name="Trazado 366" d="M329.486,290.079c0,.085-5.987.159-13.366.159s-13.36-.073-13.36-.159,5.981-.159,13.36-.159S329.486,289.969,329.486,290.079Z" transform="translate(-228.656 -256.688)" fill="#e0e0e0"/>
      <path id="Trazado_367" data-name="Trazado 367" d="M302.054,299.629c0,.085-8.819.159-19.695.159s-19.689-.073-19.689-.159,8.813-.159,19.689-.159S302.054,299.537,302.054,299.629Z" transform="translate(-213.033 -260.41)" fill="#e0e0e0"/>
      <path id="Trazado_368" data-name="Trazado 368" d="M302.054,309.179c0,.085-8.819.159-19.695.159s-19.689-.073-19.689-.159,8.813-.159,19.689-.159S302.054,309.087,302.054,309.179Z" transform="translate(-213.033 -264.131)" fill="#e0e0e0"/>
      <path id="Trazado_369" data-name="Trazado 369" d="M346.464,337.819c0,.091-8.813.159-19.689.159s-19.695-.067-19.695-.159,8.819-.159,19.695-.159S346.464,337.733,346.464,337.819Z" transform="translate(-230.339 -275.292)" fill="#e0e0e0"/>
      <path id="Trazado_370" data-name="Trazado 370" d="M327.3,318.719c0,.092-8.819.165-19.695.165s-19.689-.073-19.689-.165,8.813-.159,19.689-.159S327.3,318.633,327.3,318.719Z" transform="translate(-222.873 -267.849)" fill="#e0e0e0"/>
      <path id="Trazado_371" data-name="Trazado 371" d="M406.154,318.719c0,.092-8.819.165-19.689.165s-19.695-.073-19.695-.165,8.819-.159,19.695-.159S406.154,318.633,406.154,318.719Z" transform="translate(-253.6 -267.849)" fill="#e0e0e0"/>
      <path id="Trazado_372" data-name="Trazado 372" d="M378.734,299.629c0,.085-8.819.159-19.695.159s-19.689-.073-19.689-.159,8.813-.159,19.689-.159S378.734,299.537,378.734,299.629Z" transform="translate(-242.914 -260.41)" fill="#fafafa"/>
      <path id="Trazado_373" data-name="Trazado 373" d="M423.3,337.819c0,.091-8.819.159-19.689.159s-19.695-.067-19.695-.159,8.819-.159,19.695-.159S423.3,337.733,423.3,337.819Z" transform="translate(-260.283 -275.292)" fill="#fafafa"/>
      <path id="Trazado_374" data-name="Trazado 374" d="M400.5,309.179c0,.085-13.689.159-30.577.159s-30.577-.073-30.577-.159,13.689-.159,30.577-.159S400.5,309.087,400.5,309.179Z" transform="translate(-242.914 -264.131)" fill="#455a64"/>
      <path id="Trazado_375" data-name="Trazado 375" d="M254.207,280.529c0,.085-3.2.159-7.141.159s-7.147-.073-7.147-.159,3.2-.159,7.147-.159S254.207,280.443,254.207,280.529Z" transform="translate(-204.168 -252.967)" fill="#fafafa"/>
      <path id="Trazado_376" data-name="Trazado 376" d="M254.207,395.115c0,.086-3.2.159-7.141.159s-7.147-.073-7.147-.159,3.2-.165,7.147-.165S254.207,395.023,254.207,395.115Z" transform="translate(-204.168 -297.617)" fill="#fafafa"/>
      <path id="Trazado_377" data-name="Trazado 377" d="M265.8,318.719c0,.092-3.2.165-7.141.165s-7.141-.073-7.141-.165,3.192-.159,7.141-.159S265.8,318.633,265.8,318.719Z" transform="translate(-208.688 -267.849)" fill="#fafafa"/>
      <path id="Trazado_378" data-name="Trazado 378" d="M453.361,318.719c0,.092-3.2.165-7.141.165s-7.141-.073-7.141-.165,3.192-.159,7.141-.159S453.361,318.633,453.361,318.719Z" transform="translate(-281.778 -267.849)" fill="#43f7d4"/>
      <path id="Trazado_379" data-name="Trazado 379" d="M278.856,356.9c0,.092-5.987.159-13.366.159s-13.36-.067-13.36-.159,5.981-.159,13.36-.159S278.856,356.789,278.856,356.9Z" transform="translate(-208.926 -282.727)" fill="#43f7d4"/>
      <path id="Trazado_380" data-name="Trazado 380" d="M329.486,356.9c0,.092-5.987.159-13.366.159s-13.36-.067-13.36-.159,5.981-.159,13.36-.159S329.486,356.789,329.486,356.9Z" transform="translate(-228.656 -282.727)" fill="#e0e0e0"/>
      <path id="Trazado_381" data-name="Trazado 381" d="M302.054,366.409c0,.092-8.819.159-19.695.159s-19.689-.067-19.689-.159,8.813-.159,19.689-.159S302.054,366.323,302.054,366.409Z" transform="translate(-213.033 -286.433)" fill="#e0e0e0"/>
      <path id="Trazado_382" data-name="Trazado 382" d="M302.054,375.959c0,.091-8.819.159-19.695.159s-19.689-.067-19.689-.159,8.813-.159,19.689-.159S302.054,375.873,302.054,375.959Z" transform="translate(-213.033 -290.155)" fill="#e0e0e0"/>
      <path id="Trazado_383" data-name="Trazado 383" d="M327.3,385.509c0,.085-8.819.159-19.695.159s-19.689-.073-19.689-.159,8.813-.159,19.689-.159S327.3,385.423,327.3,385.509Z" transform="translate(-222.873 -293.876)" fill="#e0e0e0"/>
      <path id="Trazado_384" data-name="Trazado 384" d="M406.154,385.509c0,.085-8.819.159-19.689.159s-19.695-.073-19.695-.159,8.819-.159,19.695-.159S406.154,385.423,406.154,385.509Z" transform="translate(-253.6 -293.876)" fill="#e0e0e0"/>
      <path id="Trazado_385" data-name="Trazado 385" d="M378.734,366.409c0,.092-8.819.159-19.695.159s-19.689-.067-19.689-.159,8.813-.159,19.689-.159S378.734,366.323,378.734,366.409Z" transform="translate(-242.914 -286.433)" fill="#fafafa"/>
      <path id="Trazado_386" data-name="Trazado 386" d="M400.5,375.959c0,.091-13.689.159-30.577.159s-30.577-.067-30.577-.159,13.689-.159,30.577-.159S400.5,375.873,400.5,375.959Z" transform="translate(-242.914 -290.155)" fill="#455a64"/>
      <path id="Trazado_387" data-name="Trazado 387" d="M265.8,385.509c0,.085-3.2.159-7.141.159s-7.141-.073-7.141-.159,3.192-.159,7.141-.159S265.8,385.423,265.8,385.509Z" transform="translate(-208.688 -293.876)" fill="#fafafa"/>
      <path id="Trazado_388" data-name="Trazado 388" d="M453.361,385.509c0,.085-3.2.159-7.141.159s-7.141-.073-7.141-.159,3.192-.159,7.141-.159S453.361,385.423,453.361,385.509Z" transform="translate(-281.778 -293.876)" fill="#43f7d4"/>
    </g>
    <g id="freepik--character-1--inject-152" transform="translate(57.676 29.677)">
      <path id="Trazado_390" data-name="Trazado 390" d="M248.482,224.72c10.186-3.7,4.956-19.06,4.956-19.06L201.744,210.4a7.287,7.287,0,0,0-7.324,7.287h0a7.287,7.287,0,0,0,7.287,7.287l46.787-.25" transform="translate(-176.561 -133.65)" fill="#263238"/>
      <path id="Trazado_391" data-name="Trazado 391" d="M170.517,301.084l-.1-5.127,9.832-3.5.409,7.141-.555.268c-2.441,1.166-12.633,5.755-14.532,5.932C163.449,305.991,170.517,301.084,170.517,301.084Z" transform="translate(-165.163 -167.475)" fill="#43f7d4"/>
      <g id="Grupo_35" data-name="Grupo 35" transform="translate(0 131.924)" opacity="0.4">
        <path id="Trazado_392" data-name="Trazado 392" d="M167.112,308.047s-2.4,1.892-1.88,2.2,10.986-3.943,15.417-6.219l-.1-.2L168.406,308.9S167.655,307.852,167.112,308.047Z" transform="translate(-165.157 -303.83)" fill="#fff"/>
      </g>
      <path id="Trazado_393" data-name="Trazado 393" d="M180.712,303.73l-.153.079-.439.214-1.611.745c-1.385.61-3.308,1.459-5.45,2.331s-4.107,1.63-5.529,2.148l-1.691.61-.464.159-.165.043.159-.067.452-.177,1.678-.647c1.416-.543,3.369-1.3,5.493-2.179s4.071-1.7,5.493-2.295l1.648-.714.446-.189A.685.685,0,0,1,180.712,303.73Z" transform="translate(-165.178 -171.867)" fill="#263238"/>
      <path id="Trazado_394" data-name="Trazado 394" d="M169.66,311.674a4.735,4.735,0,0,0-.61-.665,4.19,4.19,0,0,0-.83-.409,1.617,1.617,0,0,1,1.465,1.074Z" transform="translate(-166.351 -174.544)" fill="#263238"/>
      <path id="Trazado_395" data-name="Trazado 395" d="M173.582,307.954a2.189,2.189,0,0,1-.433-.232c-.22-.153-.385-.305-.36-.336s.207.079.427.238S173.6,307.924,173.582,307.954Z" transform="translate(-168.13 -173.29)" fill="#263238"/>
      <path id="Trazado_396" data-name="Trazado 396" d="M174.5,306.993c0,.031-.2,0-.409-.085s-.384-.165-.372-.2.2,0,.409.086S174.537,306.963,174.5,306.993Z" transform="translate(-168.494 -173.024)" fill="#263238"/>
      <path id="Trazado_397" data-name="Trazado 397" d="M174.622,305.45a1.28,1.28,0,0,1-.452.256,1.22,1.22,0,0,1-.5.146,1.281,1.281,0,0,1,.452-.256A1.222,1.222,0,0,1,174.622,305.45Z" transform="translate(-168.475 -172.537)" fill="#263238"/>
      <path id="Trazado_398" data-name="Trazado 398" d="M174.42,304.35a1.056,1.056,0,0,1-.47.372.964.964,0,0,1-.58.146,3.51,3.51,0,0,1,.525-.256A3.238,3.238,0,0,1,174.42,304.35Z" transform="translate(-168.358 -172.108)" fill="#263238"/>
      <path id="Trazado_399" data-name="Trazado 399" d="M171.741,306.941a1.833,1.833,0,0,1-.61.232,3.31,3.31,0,0,1-.684.116,1.887,1.887,0,0,1-.415,0,.336.336,0,0,1-.226-.122.274.274,0,0,1,0-.275,1.178,1.178,0,0,1,1.819.092c.061.092.085.147.079.153a1.679,1.679,0,0,0-.476-.4,1.141,1.141,0,0,0-.61-.122.983.983,0,0,0-.677.336c-.067.11,0,.2.14.22a1.666,1.666,0,0,0,.391,0,4.769,4.769,0,0,0,.671-.085C171.534,307.015,171.741,306.923,171.741,306.941Z" transform="translate(-166.955 -172.948)" fill="#263238"/>
      <path id="Trazado_400" data-name="Trazado 400" d="M172.643,306.487a.665.665,0,0,1-.232-.384,1.019,1.019,0,0,1,0-.494.611.611,0,0,1,.366-.5.256.256,0,0,1,.293.2.738.738,0,0,1,0,.305,2.1,2.1,0,0,1-.134.464.934.934,0,0,1-.238.378,3.878,3.878,0,0,0,.159-.409,1.982,1.982,0,0,0,.1-.452c.03-.159,0-.4-.165-.366s-.244.25-.287.4a1.032,1.032,0,0,0,0,.452A2.437,2.437,0,0,0,172.643,306.487Z" transform="translate(-167.972 -172.402)" fill="#263238"/>
      <path id="Trazado_401" data-name="Trazado 401" d="M187.11,299.75a3.7,3.7,0,0,0-.665.3,3.094,3.094,0,0,0-1.617,2.887,3.883,3.883,0,0,0,.092.726.823.823,0,0,1-.079-.189,2.6,2.6,0,0,1-.1-.531,2.99,2.99,0,0,1,1.666-2.966,2.305,2.305,0,0,1,.507-.2.608.608,0,0,1,.2-.031Z" transform="translate(-172.784 -170.316)" fill="#263238"/>
      <path id="Trazado_402" data-name="Trazado 402" d="M184.54,294.14a17.333,17.333,0,0,1,.842,1.831,16.186,16.186,0,0,1,.732,1.892,16.855,16.855,0,0,1-.842-1.831A17.971,17.971,0,0,1,184.54,294.14Z" transform="translate(-172.71 -168.13)" fill="#263238"/>
      <path id="Trazado_403" data-name="Trazado 403" d="M180.867,305.559a6,6,0,0,1-1.282.677,5.756,5.756,0,0,1-1.385.433c0-.031.61-.238,1.337-.549S180.849,305.528,180.867,305.559Z" transform="translate(-170.24 -172.578)" fill="#263238"/>
      <path id="Trazado_404" data-name="Trazado 404" d="M185.444,304.359c.031,0,0,.146,0,.305v.311a.463.463,0,0,1-.1-.317C185.346,304.469,185.413,304.341,185.444,304.359Z" transform="translate(-173.022 -172.111)" fill="#263238"/>
      <path id="Trazado_405" data-name="Trazado 405" d="M185.914,302.529a.972.972,0,0,1-.043.262c-.043.134-.128.238-.159.226s0-.134.049-.269S185.883,302.517,185.914,302.529Z" transform="translate(-173.162 -171.398)" fill="#263238"/>
      <path id="Trazado_406" data-name="Trazado 406" d="M187.089,301.24c0,.037-.116.086-.232.183s-.183.214-.214.2,0-.165.134-.287S187.089,301.21,187.089,301.24Z" transform="translate(-173.526 -170.89)" fill="#263238"/>
      <path id="Trazado_407" data-name="Trazado 407" d="M188.238,300.494a.208.208,0,0,1-.079.153c-.079.061-.134.085-.153.061s0-.092.073-.153S188.213,300.47,188.238,300.494Z" transform="translate(-174.058 -170.602)" fill="#263238"/>
      <path id="Trazado_408" data-name="Trazado 408" d="M210.739,212.28l-28.868.543a9.264,9.264,0,0,0-9.027,8.135l-5.725,46.524H182.8l4.785-40.183h22.8Z" transform="translate(-165.922 -136.23)" fill="#263238"/>
      <path id="Trazado_409" data-name="Trazado 409" d="M167.44,297.821c0,.073,3.436.159,7.672.183s7.6-.079,7.672-.085c.488-.049-3.436-.159-7.672-.183S167.44,297.747,167.44,297.821Z" transform="translate(-166.047 -169.528)" fill="#455a64"/>
      <path id="Trazado_410" data-name="Trazado 410" d="M237.339,209.88h-.568l-1.636.073-5.969.281L209.5,211.247c-.964.043-1.91.122-2.844.134s-1.868.055-2.777.1-1.794.116-2.667.207a9.8,9.8,0,0,0-2.539.494,6.146,6.146,0,0,0-2.106,1.276,5.279,5.279,0,0,0-1.282,1.947,9.338,9.338,0,0,0-.519,2.1,13.327,13.327,0,0,0-.14,1.99,8.008,8.008,0,0,0,.671,3.344,5.438,5.438,0,0,0,1.575,2.038,4.393,4.393,0,0,0,1.434.769c.36.1.366.073,0-.049a4.614,4.614,0,0,1-1.391-.8,5.493,5.493,0,0,1-1.507-2.014,7.99,7.99,0,0,1-.61-3.29,13.84,13.84,0,0,1,.153-1.959,9.471,9.471,0,0,1,.525-2.051,5.1,5.1,0,0,1,1.221-1.831,5.987,5.987,0,0,1,2.038-1.221,10.131,10.131,0,0,1,2.478-.47c.867-.085,1.758-.146,2.661-.2s1.831-.085,2.759-.1,1.886-.092,2.85-.134l19.683-1.1,5.969-.366,1.617-.11.421-.037A.458.458,0,0,0,237.339,209.88Z" transform="translate(-176.642 -135.295)" fill="#455a64"/>
      <path id="Trazado_411" data-name="Trazado 411" d="M232.729,174.363l-2.508,7.861a9.075,9.075,0,0,1-7.049,6.317l-14.574,4.04-1.135-2.7L206.4,185.9l12.609-4.272a3.375,3.375,0,0,0,2.545-2.441l5.023-10.925,6.359,3.9Z" transform="translate(-181.229 -119.076)" fill="#b78876"/>
      <path id="Trazado_412" data-name="Trazado 412" d="M249.7,137.591c-5.34.61-7.061,2.8-9.24,5.951a17.857,17.857,0,0,0-2.161,4.229l-4.046,11.462,8.441,2.606-.281,9.319-3.845,11.395,32.426,2.551-.092-16.558-.232-9.991c.305-3.784,1.092-11.8.421-13.708-2.887-8.135-9.252-6.573-13.921-7.733a31.441,31.441,0,0,0-6.433,0" transform="translate(-192.082 -106.875)" fill="#43f7d4"/>
      <path id="Trazado_413" data-name="Trazado 413" d="M276.349,186.9c0,.085-6.341.159-14.165.159S248,187,248,186.9s6.341-.159,14.165-.159S276.349,186.825,276.349,186.9Z" transform="translate(-197.44 -126.277)" fill="#fafafa"/>
      <path id="Trazado_414" data-name="Trazado 414" d="M275.581,196.2c0,.092-6.341.159-14.165.159s-14.165-.067-14.165-.159,6.341-.159,14.165-.159S275.581,196.113,275.581,196.2Z" transform="translate(-197.148 -129.901)" fill="#fafafa"/>
      <path id="Trazado_415" data-name="Trazado 415" d="M274.79,206.839c0,.092-6.713.159-14.977.159s-14.983-.067-14.983-.159,6.713-.159,14.983-.159S274.79,206.753,274.79,206.839Z" transform="translate(-196.205 -134.048)" fill="#fafafa"/>
      <g id="Grupo_36" data-name="Grupo 36" transform="translate(50.987 56.264)" opacity="0.3">
        <path id="Trazado_416" data-name="Trazado 416" d="M272.362,180.617a46.228,46.228,0,0,1-1.355,6.665,16.136,16.136,0,0,1-2.167,4.413,10.912,10.912,0,0,1-5.493,3.662c-2.142.665-12.438,2.966-14.647,2.8l18.834-8.917,2.27-9.374Z" transform="translate(-248.7 -179.86)"/>
      </g>
      <path id="Trazado_417" data-name="Trazado 417" d="M266.49,179.442l-2.069,7.971a9.155,9.155,0,0,1-6.774,6.713l-16.625,3.894-4.571.049v-6.292l16.735-4.522a3.406,3.406,0,0,0,2.441-2.551l1.611-7.012Z" transform="translate(-192.939 -122.751)" fill="#b78876"/>
      <path id="Trazado_418" data-name="Trazado 418" d="M274.784,149.029c0,.085-6.988.159-15.612.159s-15.612-.073-15.612-.159,6.988-.159,15.612-.159S274.784,148.949,274.784,149.029Z" transform="translate(-195.71 -111.52)" fill="#fafafa"/>
      <path id="Trazado_419" data-name="Trazado 419" d="M273.513,157.9c0,.092-7.531.159-16.826.159s-16.826-.067-16.826-.159,7.531-.159,16.826-.159S273.513,157.8,273.513,157.9Z" transform="translate(-194.268 -114.976)" fill="#fafafa"/>
      <path id="Trazado_420" data-name="Trazado 420" d="M271.728,167.511c0,.092-7.934.226-17.7.3s-17.7.067-17.7,0,7.934-.22,17.7-.3S271.722,167.425,271.728,167.511Z" transform="translate(-192.892 -118.76)" fill="#fafafa"/>
      <path id="Trazado_421" data-name="Trazado 421" d="M275.831,177.589c0,.085-6.341.159-14.165.159s-14.165-.073-14.165-.159,6.341-.159,14.165-.159S275.831,177.5,275.831,177.589Z" transform="translate(-197.245 -122.649)" fill="#fafafa"/>
      <path id="Trazado_422" data-name="Trazado 422" d="M281.763,166.283a.324.324,0,0,1,0-.134l.055-.385c.055-.36.134-.854.226-1.477.2-1.294.494-3.168.818-5.493s.7-5.169.885-8.355a9.513,9.513,0,0,0-.61-4.882,5.176,5.176,0,0,0-1.715-1.941,6.1,6.1,0,0,0-2.508-.97h-.037a5.188,5.188,0,0,0-3.088.214,8.8,8.8,0,0,0-2.856,1.55,2.227,2.227,0,0,0-.439.494,6.222,6.222,0,0,0-.323.61,9.462,9.462,0,0,0-.47,1.282,25.016,25.016,0,0,0-.562,2.655c-.317,1.764-.61,3.485-.922,5.139-.61,3.308-1.141,6.359-1.63,9.063l-.092-.14,9.4,1.971,2.582.574.677.159a1.154,1.154,0,0,1,.226.067l-.238-.031-.677-.122-2.6-.507-9.423-1.9h-.11V163.6c.476-2.7,1.007-5.761,1.587-9.075.293-1.654.61-3.375.909-5.145a23.83,23.83,0,0,1,.568-2.679,8.907,8.907,0,0,1,.482-1.33q.156-.313.342-.61a2.724,2.724,0,0,1,.494-.561,9.154,9.154,0,0,1,2.972-1.617,5.493,5.493,0,0,1,3.283-.2h-.03a6.39,6.39,0,0,1,2.649,1.031,5.493,5.493,0,0,1,1.831,2.057,6.507,6.507,0,0,1,.476,1.251,7.8,7.8,0,0,1,.189,1.288l.037.61v.61c0,.415-.031.818-.055,1.221-.207,3.2-.61,6.024-.952,8.373s-.677,4.217-.909,5.493c-.116.61-.214,1.111-.281,1.471l-.079.378A.766.766,0,0,1,281.763,166.283Z" transform="translate(-205.362 -108.927)" fill="#263238"/>
      <path id="Trazado_423" data-name="Trazado 423" d="M247.725,179a5.563,5.563,0,0,0,.043-.848v-2.319c0-1.953,0-4.651-.055-7.635s-.079-5.682-.128-7.635c-.031-.946-.055-1.721-.073-2.319a5.661,5.661,0,0,0-.061-.848,4.717,4.717,0,0,0-.043.848c0,.61,0,1.373,0,2.319,0,1.953,0,4.657.055,7.635s.085,5.688.134,7.641c0,.94.055,1.721.073,2.313a4.7,4.7,0,0,0,.055.848Z" transform="translate(-197.208 -114.84)" fill="#263238"/>
      <path id="Trazado_424" data-name="Trazado 424" d="M236.872,201.367l.287-1.361-12.591-1.343-5.493-15.777-25.645-.177,8.4,18.3Z" transform="translate(-176.175 -124.707)" fill="#455a64"/>
      <path id="Trazado_425" data-name="Trazado 425" d="M219.12,197.753a1.263,1.263,0,1,0-.954.167,1.263,1.263,0,0,0,.954-.167" transform="translate(-185.429 -129.661)" fill="#fff"/>
      <path id="Trazado_426" data-name="Trazado 426" d="M247.163,95.344a3.406,3.406,0,0,0-1.221,6.286,1.831,1.831,0,0,0,1.715.2,2.106,2.106,0,0,0,.928-1.343,7.189,7.189,0,0,0-.409-5.243" transform="translate(-195.993 -90.621)" fill="#263238"/>
      <path id="Trazado_427" data-name="Trazado 427" d="M259.665,127.383h0a5.493,5.493,0,0,1-5.493-5.536c0-1.9.049-3.546.049-3.546s-4.394-.409-4.718-4.76-.183-14.4-.183-14.4h0a15.185,15.185,0,0,1,15.325.977l.671.458-.208,21.361A5.493,5.493,0,0,1,259.665,127.383Z" transform="translate(-197.943 -91.51)" fill="#b78876"/>
      <path id="Trazado_428" data-name="Trazado 428" d="M257.39,130.215a10.125,10.125,0,0,0,5.578-1.965s-1.147,3.216-5.493,3.094Z" transform="translate(-201.099 -103.484)" fill="#aa6550"/>
      <path id="Trazado_429" data-name="Trazado 429" d="M273.2,110.4c.085,0,2.759-.378,2.5,2.783s-3.357,1.831-3.357,1.764S273.2,110.4,273.2,110.4Z" transform="translate(-206.929 -96.523)" fill="#b78876"/>
      <path id="Trazado_430" data-name="Trazado 430" d="M274.078,114.6a1.623,1.623,0,0,0,.146.1.543.543,0,0,0,.409.037,1.355,1.355,0,0,0,.726-1.166,1.831,1.831,0,0,0-.091-.806.61.61,0,0,0-.378-.452.275.275,0,0,0-.336.122c-.049.085-.037.153-.055.159s-.061-.061,0-.189a.36.36,0,0,1,.14-.189.409.409,0,0,1,.311-.055.769.769,0,0,1,.531.537,1.782,1.782,0,0,1,.122.891,1.434,1.434,0,0,1-.909,1.3.61.61,0,0,1-.5-.122C274.078,114.684,274.065,114.611,274.078,114.6Z" transform="translate(-207.601 -97.212)" fill="#aa6550"/>
      <path id="Trazado_431" data-name="Trazado 431" d="M251.095,97.106a12.421,12.421,0,0,0,2.051-1.483,3.326,3.326,0,0,0,5.12.61,1.709,1.709,0,0,0,.861,1.373,1.691,1.691,0,0,0,1.617,0l.067,5.035a2.3,2.3,0,0,0,.317,1.391.8.8,0,0,0,1.221.1,3.485,3.485,0,0,1,.171-1.831,1.221,1.221,0,0,1,1.52-.677,12.514,12.514,0,0,0,.177-2.978,2.643,2.643,0,0,1,.122-.909c.171-.281.25-.067.574-.134a2.252,2.252,0,0,0,1.7-2.032,2.838,2.838,0,0,0-1.221-2.441,3.888,3.888,0,0,0-2.7-.647,1.715,1.715,0,0,0,0-2.295,2.8,2.8,0,0,0-2.295-.842c-.848.055-1.8.525-1.9,1.361a3.479,3.479,0,0,0-6.872-.189c-1.013-.452-2.441-.946-3.442-.488a3.326,3.326,0,0,0-2.093,2.9s-.256,3.454,1.935,4.15S251.095,97.106,251.095,97.106Z" transform="translate(-196.69 -87.672)" fill="#263238"/>
      <path id="Trazado_432" data-name="Trazado 432" d="M251.26,111.249a.612.612,0,1,0,.61-.549A.61.61,0,0,0,251.26,111.249Z" transform="translate(-198.71 -96.646)" fill="#263238"/>
      <path id="Trazado_433" data-name="Trazado 433" d="M251,110.061c.073.079.537-.262,1.221-.256s1.135.33,1.221.25-.043-.183-.25-.336a1.7,1.7,0,0,0-.97-.3,1.617,1.617,0,0,0-.952.311A.592.592,0,0,0,251,110.061Z" transform="translate(-198.609 -96.147)" fill="#263238"/>
      <path id="Trazado_434" data-name="Trazado 434" d="M261.8,111.5a.612.612,0,1,0,.61-.549A.61.61,0,0,0,261.8,111.5Z" transform="translate(-202.818 -96.743)" fill="#263238"/>
      <path id="Trazado_435" data-name="Trazado 435" d="M261.614,110.261c.073.085.537-.262,1.221-.256s1.135.33,1.221.25-.043-.183-.25-.336a1.7,1.7,0,0,0-.97-.3,1.617,1.617,0,0,0-.952.311C261.645,110.084,261.577,110.23,261.614,110.261Z" transform="translate(-202.741 -96.225)" fill="#263238"/>
      <path id="Trazado_436" data-name="Trazado 436" d="M256.647,115.165a4.274,4.274,0,0,0-1.062-.2c-.171,0-.33-.049-.36-.165a.842.842,0,0,1,.116-.494l.494-1.282a22.227,22.227,0,0,0,1.117-3.338,21.842,21.842,0,0,0-1.385,3.241c-.165.452-.324.879-.47,1.288a.952.952,0,0,0-.092.659.446.446,0,0,0,.275.244,1.05,1.05,0,0,0,.287.037A4.425,4.425,0,0,0,256.647,115.165Z" transform="translate(-200.161 -96.252)" fill="#263238"/>
      <path id="Trazado_437" data-name="Trazado 437" d="M259.543,119.4c-.1,0-.11.708-.72,1.221s-1.367.427-1.373.525.171.14.488.146a1.745,1.745,0,0,0,1.147-.4,1.562,1.562,0,0,0,.561-1.019C259.671,119.571,259.617,119.394,259.543,119.4Z" transform="translate(-201.122 -100.036)" fill="#263238"/>
      <path id="Trazado_438" data-name="Trazado 438" d="M261.338,106.143c.067.177.72.092,1.489.183s1.4.305,1.5.146-.067-.244-.317-.421a2.5,2.5,0,0,0-1.111-.385,2.441,2.441,0,0,0-1.166.134C261.454,105.917,261.314,106.058,261.338,106.143Z" transform="translate(-202.637 -94.676)" fill="#263238"/>
      <path id="Trazado_439" data-name="Trazado 439" d="M251.428,106.935c.116.146.568,0,1.111,0s1,.1,1.111-.055,0-.226-.226-.366a1.617,1.617,0,0,0-1.794.055C251.44,106.715,251.373,106.861,251.428,106.935Z" transform="translate(-198.769 -94.919)" fill="#263238"/>
      <path id="Trazado_440" data-name="Trazado 440" d="M251.606,93.816a.475.475,0,0,1-.171-.049.561.561,0,0,0-.452.116.61.61,0,0,0-.2.659,1.074,1.074,0,0,0,.653.714,1.4,1.4,0,0,0,1.172-.073,1.452,1.452,0,0,0,.708-1.129,1.623,1.623,0,0,0-.549-1.379,1.929,1.929,0,0,0-1.538-.494,2.508,2.508,0,0,0-1.5.745,2.8,2.8,0,0,0-.714,1.4,3.778,3.778,0,0,0,.446,2.655,4.4,4.4,0,0,0,1.221,1.392c.36.256.61.366.61.391a1.99,1.99,0,0,1-.647-.287,4.162,4.162,0,0,1-1.373-1.379,3.955,3.955,0,0,1-.537-2.826,3.052,3.052,0,0,1,.781-1.562,2.747,2.747,0,0,1,1.678-.836,2.24,2.24,0,0,1,1.788.574,1.916,1.916,0,0,1,.61,1.642,1.715,1.715,0,0,1-.873,1.33,1.642,1.642,0,0,1-1.392.049,1.221,1.221,0,0,1-.732-.879.751.751,0,0,1,.305-.806.61.61,0,0,1,.537-.079C251.575,93.774,251.612,93.81,251.606,93.816Z" transform="translate(-197.701 -89.301)" fill="#455a64"/>
    </g>
  </g>
</svg>
