<svg xmlns="http://www.w3.org/2000/svg" width="67.396" height="67.395" viewBox="0 0 67.396 67.395">
  <g id="git" transform="translate(-2.555 -2.558)">
    <path id="Trazado_10" data-name="Trazado 10" d="M68.68,33.253,39.254,3.829a4.34,4.34,0,0,0-6.138,0L27.006,9.94l7.75,7.75a5.155,5.155,0,0,1,6.527,6.572l7.471,7.47a5.16,5.16,0,1,1-3.093,2.913l-6.968-6.967V46.012a5.156,5.156,0,1,1-4.246-.15V27.357a5.167,5.167,0,0,1-2.8-6.773L24,12.941,3.826,33.117a4.342,4.342,0,0,0,0,6.14L33.253,68.681a4.34,4.34,0,0,0,6.138,0L68.68,39.393A4.342,4.342,0,0,0,68.68,33.253Z" fill="#f05133"/>
  </g>
</svg>
