<?xml version="1.0" encoding="utf-8"?>
<!-- Generator: Adobe Illustrator 25.2.3, SVG Export Plug-In . SVG Version: 6.00 Build 0)  -->
<svg version="1.1" xmlns="http://www.w3.org/2000/svg" xmlns:xlink="http://www.w3.org/1999/xlink" x="0px" y="0px"
	 viewBox="0 0 67.4 67.4" style="enable-background:new 0 0 67.4 67.4;" xml:space="preserve">
<style type="text/css">
	.st0{fill-rule:evenodd;clip-rule:evenodd;fill:#221E1B;}
</style>
<g id="Capa_2">
</g>
<g id="Capa_1">
	<g id="git" transform="translate(-2.555 -2.558)">
	</g>
	<path class="st0" d="M33.7,0.8C15.1,0.8,0,15.9,0,34.5c0,14.9,9.7,27.5,23,32c1.7,0.3,2.3-0.7,2.3-1.6c0-0.8,0-2.9,0-5.7
		c-9.4,2-11.4-4.5-11.4-4.5c-1.5-3.9-3.7-4.9-3.7-4.9c-3.1-2.1,0.2-2,0.2-2c3.4,0.2,5.2,3.5,5.2,3.5c3,5.1,7.9,3.7,9.8,2.8
		c0.3-2.2,1.2-3.7,2.1-4.5c-7.5-0.9-15.4-3.7-15.4-16.7c0-3.7,1.3-6.7,3.5-9c-0.3-0.9-1.5-4.3,0.3-8.9c0,0,2.8-0.9,9.3,3.5
		c2.7-0.7,5.6-1.1,8.4-1.1c2.9,0,5.7,0.4,8.4,1.1c6.4-4.4,9.3-3.5,9.3-3.5c1.8,4.6,0.7,8.1,0.3,8.9c2.2,2.4,3.5,5.4,3.5,9
		c0,12.9-7.9,15.8-15.4,16.6c1.2,1,2.3,3.1,2.3,6.2c0,4.5,0,8.1,0,9.2c0,0.9,0.6,1.9,2.3,1.6c13.4-4.5,23-17.1,23-32
		C67.4,15.9,52.3,0.8,33.7,0.8z"/>
</g>
</svg>
