<?xml version="1.0" encoding="utf-8"?>
<!-- Generator: Adobe Illustrator 25.2.3, SVG Export Plug-In . SVG Version: 6.00 Build 0)  -->
<svg version="1.1" id="Capa_1" xmlns="http://www.w3.org/2000/svg" xmlns:xlink="http://www.w3.org/1999/xlink" x="0px" y="0px"
	 viewBox="0 0 67.4 67.4" style="enable-background:new 0 0 67.4 67.4;" xml:space="preserve">
<style type="text/css">
	.st0{fill:#330000;}
	.st1{fill:#FF9A00;}
</style>
<g id="git" transform="translate(-2.555 -2.558)">
</g>
<g id="vlpa">
	<g id="vlpb">
		<g id="vlpc">
			<g id="vlpd">
				<path class="st0" d="M11.9,0.8h43.5c6.6,0,11.9,5.3,11.9,11.9v41.8c0,6.6-5.3,11.9-11.9,11.9H11.9C5.3,66.6,0,61.2,0,54.6V12.8
					C0,6.2,5.3,0.8,11.9,0.8z"/>
			</g>
		</g>
	</g>
	<g id="vlpe">
		<g id="vlpf">
			<path class="st1" d="M32.6,40.2H22.1L20,46.8c-0.1,0.3-0.3,0.4-0.5,0.4h-5.3c-0.3,0-0.4-0.2-0.3-0.5l9-26
				c0.1-0.3,0.2-0.6,0.3-0.9c0.1-0.6,0.2-1.2,0.2-1.8c0-0.1,0.1-0.3,0.2-0.3h0.1h7.2c0.2,0,0.3,0.1,0.4,0.2l10.2,28.9
				c0.1,0.3,0,0.4-0.3,0.4h-5.9c-0.2,0-0.4-0.1-0.4-0.3L32.6,40.2L32.6,40.2z M23.8,34.5h7.1c-0.2-0.6-0.4-1.3-0.6-2
				c-0.3-0.8-0.5-1.6-0.8-2.4c-0.3-0.9-0.5-1.7-0.8-2.6s-0.5-1.7-0.8-2.5c-0.2-0.8-0.4-1.5-0.6-2.2h-0.1c-0.3,1.2-0.6,2.4-1,3.6
				c-0.4,1.3-0.8,2.8-1.3,4.2C24.6,32,24.2,33.3,23.8,34.5z"/>
			<path class="st1" d="M47.7,22.5c-0.9,0-1.8-0.3-2.5-1c-0.6-0.7-1-1.6-1-2.6c0-1,0.3-1.9,1-2.5c0.7-0.6,1.6-1,2.5-1
				c1.1,0,1.9,0.3,2.6,1c0.6,0.7,1,1.6,0.9,2.5c0,1-0.3,1.9-1,2.6C49.6,22.2,48.7,22.5,47.7,22.5L47.7,22.5z M44.6,46.8V25.2
				c0-0.3,0.1-0.4,0.4-0.4h5.6c0.3,0,0.4,0.1,0.4,0.4v21.6c0,0.3-0.1,0.4-0.4,0.4H45C44.7,47.3,44.6,47.1,44.6,46.8z"/>
		</g>
	</g>
</g>
</svg>
