<?xml version="1.0" encoding="utf-8"?>
<!-- Generator: Adobe Illustrator 25.2.3, SVG Export Plug-In . SVG Version: 6.00 Build 0)  -->
<svg version="1.1" id="Capa_1" xmlns="http://www.w3.org/2000/svg" xmlns:xlink="http://www.w3.org/1999/xlink" x="0px" y="0px"
	 viewBox="0 0 67.4 67.4" style="enable-background:new 0 0 67.4 67.4;" xml:space="preserve">
<style type="text/css">
	.st0{fill:#D4B830;}
	.st1{opacity:0.986;fill:#EBEBEB;fill-opacity:0;enable-background:new    ;}
	.st2{opacity:0.986;fill:#EBEBEB;fill-opacity:0.9216;enable-background:new    ;}
	.st3{fill:#FDD83C;}
</style>
<g id="git" transform="translate(-2.555 -2.558)">
</g>
<g id="g5193" transform="translate(4.988 -113.385)">
	<path id="path5113" class="st0" d="M4.6,174l-5.5-60.6l59.3,0l-5.5,60.5l-24.2,6.8L4.6,174z M48.4,170.7l4.6-51.9H28.8l0.2,57.2
		L48.4,170.7z M26.5,126.4h-5.9l-0.1,31.1l-11.4-3.1l0,7.1l17.4,4.7L26.5,126.4L26.5,126.4z"/>
	<path id="path5159" class="st1" d="M24.5,165.5c-0.8-0.2-4.5-1.2-8.4-2.3l-7-1.9v-3.5c0-3.4,0-3.5,0.3-3.4c0.2,0.1,2.7,0.8,5.6,1.6
		l5.3,1.5l0-15.5l0-15.5h5.8v19.7c0,15.7,0,19.7-0.2,19.7C26.1,165.9,25.3,165.7,24.5,165.5L24.5,165.5z"/>
	<path id="path5157" class="st2" d="M9.1,161.4l0-7.1c0,0,7.3,2.1,11.4,3.1l0.1-31h5.9v39.7L9.1,161.4L9.1,161.4z"/>
	<path id="path5117" class="st3" d="M28.8,118.8H53l-4.6,51.9L28.8,176V118.8z M47.2,162l1.6-19.4L37,143.9v-10.4l12.6,0l0.5-7.1
		l-19,0.1l0.3,25.8l11.5-2l-0.2,5.7l-11.6,3.1l0.1,7L47.2,162L47.2,162z"/>
</g>
</svg>
