<?xml version="1.0" encoding="utf-8"?>
<!-- Generator: Adobe Illustrator 25.2.3, SVG Export Plug-In . SVG Version: 6.00 Build 0)  -->
<svg version="1.1" id="Capa_1" xmlns="http://www.w3.org/2000/svg" xmlns:xlink="http://www.w3.org/1999/xlink" x="0px" y="0px"
	 viewBox="0 0 67.4 67.4" style="enable-background:new 0 0 67.4 67.4;" xml:space="preserve">
<style type="text/css">
	.st0{fill:#1266A9;}
</style>
<g id="git" transform="translate(-2.555 -2.558)">
</g>
<path class="st0" d="M4.1,45.8c0.1,0.1,0.1,0.3,0.2,0.4c0,0.1,0.1,0.2,0.1,0.2c0.1,0.1,0.2,0.3,0.2,0.4l0.4,0.7
	c0.1,0.1,0.2,0.3,0.3,0.4c0.2,0.3,0.3,0.5,0.5,0.8C5.9,49,6,49.1,6.1,49.2C6.4,49.6,6.7,50,7,50.4c0.2,0.3,0.4,0.6,0.7,0.9
	c0.1,0.1,0.2,0.2,0.2,0.3l0.6,0.7c0.1,0.1,0.2,0.2,0.2,0.3c0.3,0.3,0.6,0.6,0.9,1c0,0,0,0,0,0c0.4,0.5,0.7,0.9,1.2,1.2l0,0
	c0.2,0.2,0.4,0.5,0.7,0.7l0.3,0.3c0.3,0.3,0.6,0.6,0.9,0.9c0,0,0,0,0,0l0.2,0.1c0.3,0.2,0.6,0.5,0.9,0.7l0.3,0.3
	c0.2,0.2,0.5,0.4,0.7,0.6l0.4,0.3c0.3,0.2,0.5,0.4,0.8,0.6c0.1,0.1,0.2,0.1,0.3,0.2l0.1,0.1l0.8,0.5l0.3,0.2
	c0.4,0.3,0.8,0.5,1.2,0.8c0.1,0.1,0.2,0.1,0.3,0.2c0.3,0.2,0.6,0.3,0.9,0.5c0.2,0.1,0.3,0.2,0.5,0.3c0.2,0.1,0.4,0.2,0.7,0.3
	c0.1,0,0.1,0,0.2,0.1l0,0c0.1,0,0.2,0.1,0.3,0.1c0.3,0.2,0.7,0.3,1,0.5c0.1,0,0.1,0.1,0.2,0.1c0.4,0.2,0.8,0.3,1.2,0.5
	c0.1,0,0.2,0.1,0.3,0.1c0.4,0.1,0.8,0.3,1.2,0.4l0.1,0.1c0.4,0.1,0.8,0.3,1.3,0.4c0.1,0,0.2,0.1,0.3,0.1c0.4,0.1,0.9,0.3,1.3,0.4
	c28.7,5.2,37.1-17.2,37.1-17.2c-7,9.1-19.5,11.5-31.2,8.8c-0.4-0.1-0.9-0.2-1.3-0.4c-0.6-0.2-1.2-0.4-1.9-0.6l0.3,0.1l-0.2-0.1
	c-0.4-0.1-0.7-0.3-1.1-0.4c-0.1,0-0.2-0.1-0.3-0.1l0,0c-0.4-0.2-0.8-0.3-1.2-0.5c-0.1,0-0.2-0.1-0.2-0.1c-0.5-0.2-0.9-0.4-1.4-0.6
	l0.4,0.2c-0.1,0-0.2-0.1-0.3-0.1c-0.3-0.1-0.5-0.3-0.8-0.4c-0.2-0.1-0.4-0.2-0.6-0.3l0.1,0c-0.3-0.2-0.6-0.3-1-0.5
	c-0.1-0.1-0.2-0.1-0.3-0.2c-0.5-0.3-0.9-0.6-1.4-0.9l0.2,0.1c-0.1-0.1-0.2-0.2-0.3-0.2l0,0c-0.3-0.2-0.6-0.4-0.9-0.6
	C22,51,21.9,51,21.8,50.9c-0.3-0.2-0.6-0.4-0.9-0.6l0.1,0c-0.1-0.1-0.2-0.2-0.4-0.3c-0.2-0.2-0.5-0.4-0.7-0.6l-0.3-0.3
	c-0.4-0.3-0.7-0.6-1-0.9l0,0l-1-0.9l-0.3-0.3c-0.2-0.2-0.5-0.5-0.7-0.7l-0.3-0.3c-0.3-0.3-0.6-0.6-0.8-0.9l0,0l0,0
	c-0.3-0.3-0.6-0.7-0.9-1c-0.1-0.1-0.1-0.2-0.2-0.3l-0.6-0.8c-0.3-0.4-0.6-0.7-0.8-1.1L12.7,42C6.2,33.1,3.8,20.9,9,10.8l-4.6,5.8
	c-5.9,8.5-5.2,19.5-0.7,28.6C3.9,45.4,4,45.6,4.1,45.8L4.1,45.8z"/>
<path d="M24.1,33.6L24.1,33.6L24.1,33.6L24.1,33.6z"/>
<path class="st0" d="M27.2,37.3l0.3,0.3c0.3,0.3,0.6,0.6,1,0.9l0,0c0.3,0.3,0.7,0.6,1.1,0.9l0.1,0c0.1,0.1,0.2,0.1,0.3,0.2
	c0.4,0.3,0.8,0.6,1.2,0.9l0,0c0.2,0.1,0.4,0.2,0.6,0.4c0.1,0.1,0.2,0.1,0.3,0.2c0.3,0.2,0.6,0.4,0.9,0.5c0,0,0.1,0,0.1,0.1
	c0.3,0.2,0.5,0.3,0.8,0.4c0.1,0.1,0.2,0.1,0.3,0.2c0.2,0.1,0.4,0.2,0.6,0.3l0.1,0c0.4,0.2,0.8,0.4,1.1,0.5c0.1,0,0.2,0.1,0.3,0.1
	c0.3,0.1,0.6,0.3,0.9,0.4c0.1,0,0.3,0.1,0.4,0.1c0.3,0.1,0.6,0.2,0.9,0.3l0.4,0.1c0.4,0.1,0.8,0.3,1.3,0.4
	c22.2,3.7,27.3-13.3,27.3-13.3c-4.6,6.6-13.6,9.8-23.1,7.3c-0.5-0.1-0.9-0.3-1.4-0.4l0.2,0c-0.1,0-0.3-0.1-0.4-0.1
	c-0.3-0.1-0.6-0.2-0.9-0.3l-0.4-0.2c-0.3-0.1-0.6-0.2-0.9-0.4c-0.1,0-0.2-0.1-0.3-0.1c-0.4-0.2-0.8-0.3-1.2-0.5l-0.6-0.3L38,36.1
	c-0.3-0.1-0.5-0.3-0.7-0.4c-0.1,0-0.1-0.1-0.2-0.1l0,0c-0.3-0.2-0.6-0.4-0.9-0.6c-0.1-0.1-0.2-0.1-0.3-0.2l-0.6-0.4
	c-0.4-0.3-0.8-0.6-1.2-0.9c-0.1-0.1-0.2-0.1-0.3-0.2c-4.2-3.3-7.5-7.8-9.1-12.8c-1.7-5.3-1.3-11.2,1.6-16l-3.5,4.9
	c-4.3,6.2-4.1,14.4-0.7,20.9c0.6,1.2,1.2,2.2,1.9,3.2c0.6,0.9,1.3,2,2.2,2.7C26.6,36.6,26.9,36.9,27.2,37.3L27.2,37.3z"/>
<path d="M7,50.4L7,50.4L7,50.4L7,50.4z M18.6,48.4L18.6,48.4L18.6,48.4L18.6,48.4z"/>
<path class="st0" d="M38.4,4.1c-2.5,3.7-2.8,8.3-1,12.4c1.9,4.3,5.7,7.8,10.1,9.4c0.2,0.1,0.4,0.1,0.5,0.2l0.2,0.1
	c0.3,0.1,0.5,0.2,0.8,0.2c12.2,2.4,15.6-6.3,16.5-7.5c-2.9,4.2-7.8,5.2-13.8,3.7c-0.5-0.1-1-0.3-1.5-0.5l0.1,0
	c-0.6-0.2-1.2-0.5-1.8-0.8l0.1,0c-1.1-0.6-2.1-1.2-3-1.9c-5.4-4.1-8.7-11.8-5.2-18.1L38.4,4.1z"/>
</svg>
