<?xml version="1.0" encoding="utf-8"?>
<!-- Generator: Adobe Illustrator 25.2.3, SVG Export Plug-In . SVG Version: 6.00 Build 0)  -->
<svg version="1.1" xmlns="http://www.w3.org/2000/svg" xmlns:xlink="http://www.w3.org/1999/xlink" x="0px" y="0px"
	 viewBox="0 0 67.4 67.4" style="enable-background:new 0 0 67.4 67.4;" xml:space="preserve">
<style type="text/css">
	.st0{fill-rule:evenodd;clip-rule:evenodd;fill:#007EBB;}
	.st1{fill-rule:evenodd;clip-rule:evenodd;fill:#FFFFFF;}
</style>
<g id="Capa_2">
</g>
<g id="Capa_1">
	<g id="git" transform="translate(-2.555 -2.558)">
	</g>
	<g>
		<path class="st0" d="M33.7,67.4L33.7,67.4c18.6,0,33.7-15.1,33.7-33.7l0,0C67.4,15.1,52.3,0,33.7,0l0,0C15.1,0,0,15.1,0,33.7l0,0
			C0,52.3,15.1,67.4,33.7,67.4z"/>
		<path class="st1" d="M55.2,53.4h-8.5V38.9c0-4-1.5-6.2-4.6-6.2c-3.4,0-5.2,2.3-5.2,6.2v14.4h-8.2V25.9H37v3.7c0,0,2.5-4.5,8.3-4.5
			c5.8,0,10,3.6,10,10.9V53.4z M19.1,22.3c-2.8,0-5-2.3-5-5.1s2.3-5.1,5-5.1s5,2.3,5,5.1S21.8,22.3,19.1,22.3z M14.9,53.4h8.5V25.9
			h-8.5V53.4z"/>
	</g>
</g>
</svg>
