<svg xmlns="http://www.w3.org/2000/svg" width="18.863" height="24.015" viewBox="0 0 18.863 24.015">
  <g id="location" transform="translate(-398.428 -690.304)">
    <g id="Grupo_17" data-name="Grupo 17" transform="translate(398.428 690.304)">
      <path id="Trazado_168" data-name="Trazado 168" d="M415.637,699.718c0,.116-.005.232-.015.348,0,.055-.012.11-.016.165-.008.094.012-.082.012-.08-.006.038-.011.076-.017.113a7.765,7.765,0,0,1-.172.763c-.079.283-.174.561-.278.835q-.036.1-.074.19c-.012.029-.085.208-.051.126s-.052.118-.07.16q-.051.115-.1.228a25.392,25.392,0,0,1-2.051,3.519q-.586.864-1.214,1.7-.153.2-.309.408l-.142.186.011-.014-.094.121q-.311.4-.63.794-1.027,1.273-2.115,2.5c-.341.384-.685.766-1.04,1.138h1.169c-1.04-1.09-2.021-2.24-2.972-3.407q-.315-.387-.624-.779l-.141-.18-.124-.16-.1-.132-.19-.25q-.652-.862-1.266-1.753a26.214,26.214,0,0,1-2.118-3.587c-.066-.14-.13-.282-.193-.424-.078-.176.012.039-.039-.092-.03-.074-.06-.148-.089-.223-.107-.275-.2-.554-.285-.838a7.078,7.078,0,0,1-.184-.795c-.005-.032-.031-.218-.015-.088s-.006-.073-.01-.112q-.016-.187-.017-.375a7.724,7.724,0,0,1,1.377-4.425,7.863,7.863,0,0,1,8.163-3.161,7.807,7.807,0,0,1,5.95,6.428c.023.142.015.087.028.2.01.095.019.189.027.284.017.224.025.448.026.673a.827.827,0,0,0,1.653,0,9.44,9.44,0,0,0-15.951-6.831,8.912,8.912,0,0,0-2.546,8.946,26.542,26.542,0,0,0,4.572,7.669,48.86,48.86,0,0,0,3.837,4.509c.023.023.044.047.066.07a.836.836,0,0,0,1.169,0c1.031-1.081,2.006-2.222,2.949-3.38a37.073,37.073,0,0,0,4.768-7.037,9.369,9.369,0,0,0,1.136-3.946A.827.827,0,0,0,415.637,699.718Z" transform="translate(-398.428 -690.304)" fill="#43f7d4"/>
    </g>
    <g id="Grupo_18" data-name="Grupo 18" transform="translate(403.728 694.828)">
      <path id="Trazado_169" data-name="Trazado 169" d="M453.23,735.573a2.485,2.485,0,0,1-4.444,1.523,2.652,2.652,0,0,1-.508-1.285,2.429,2.429,0,0,1,.33-1.49,2.479,2.479,0,0,1,4.621,1.252.827.827,0,0,0,1.653,0,4.2,4.2,0,0,0-2.774-3.9,4.135,4.135,0,0,0-4.882,6.065,4.134,4.134,0,0,0,7.656-2.163A.827.827,0,0,0,453.23,735.573Z" transform="translate(-446.625 -731.441)" fill="#43f7d4"/>
    </g>
  </g>
</svg>
