<?xml version="1.0" encoding="utf-8"?>
<!-- Generator: Adobe Illustrator 25.2.3, SVG Export Plug-In . SVG Version: 6.00 Build 0)  -->
<svg version="1.1" id="Capa_1" xmlns="http://www.w3.org/2000/svg" xmlns:xlink="http://www.w3.org/1999/xlink" x="0px" y="0px"
	 viewBox="0 0 146.7 29.8" style="enable-background:new 0 0 146.7 29.8;" xml:space="preserve">
<style type="text/css">
	.st0{fill:#FFFFFF;}
	.st1{fill:#43F7D4;}
</style>
<g>
	<g>
		<g>
			<path class="st0" d="M67.9,12.1c0,1.6-1.3,2.8-2.9,2.8h-4.7V5.1h4.5c1.6,0,2.8,1.3,2.8,2.8c0,0.8-0.3,1.4-0.8,1.9
				C67.5,10.4,67.9,11.2,67.9,12.1z M62.1,9h2.5c0.6,0,1-0.5,1-1s-0.5-1-1-1h-2.5V9z M66,12c0-0.6-0.5-1-1-1h-2.8v2H65
				C65.5,13,66,12.5,66,12z"/>
			<path class="st0" d="M76.5,11.1c0,0.2,0,0.5-0.1,0.7h-5.8c0.3,0.8,1,1.4,1.9,1.4c0.7,0,1.3-0.3,1.6-0.8h2.1
				c-0.5,1.6-2,2.7-3.8,2.7c-2.2,0-3.9-1.8-3.9-3.9s1.8-3.9,3.9-3.9C74.7,7.1,76.5,8.9,76.5,11.1z M74.3,10.1c-0.3-0.6-1-1-1.8-1
				c-0.8,0-1.4,0.4-1.8,1H74.3z"/>
			<path class="st0" d="M80.8,7.2c0.2,0,0.3,0,0.5,0c2.1,0,3.8,1.7,3.8,3.8v4h-1.9v-4c0-1-0.8-1.9-1.9-1.9c-1,0-1.9,0.8-1.9,1.9v4
				h-1.9V7.2h1.9V8L80.8,7.2z"/>
			<path class="st0" d="M86.2,4.9h1.9v1.7h-1.9V4.9z M88.1,7.2v7.6h-1.9V7.2H88.1z"/>
			<path class="st1" d="M102.2,5.1h1.6c0,3.2,0,6.6,0,9.8h-1.9V9.3l-1.8,2.9L98.9,14l-1.1-1.8L96,9.3v5.6h-1.9c0-3.3,0-6.6,0-9.8
				h1.6L96,5.6l2.9,4.7l2.9-4.7L102.2,5.1L102.2,5.1z"/>
			<path class="st1" d="M112.7,11.1c0,2.2-1.8,3.9-3.9,3.9c-2.2,0-3.9-1.8-3.9-3.9s1.8-3.9,3.9-3.9C110.9,7.1,112.7,8.9,112.7,11.1z
				 M108.7,9c-1.1,0-2,0.9-2,2c0,1.1,0.9,2,2,2c1.1,0,2-0.9,2-2C110.7,9.9,109.8,9,108.7,9z"/>
			<path class="st1" d="M117,7.2c0.2,0,0.3,0,0.5,0c0.5,0,1,0.1,1.5,0.3l-0.4,2c-1.2-0.9-3-0.4-3,1.5v4h-1.9V7.2h1.9V8L117,7.2z"/>
			<path class="st1" d="M123.1,7.1c0.2,0,0.5,0,0.7,0.1l1.3,0.8V7.2h1.9v7.6h-1.9v-0.7l-1.3,0.8c-0.2,0-0.5,0.1-0.7,0.1
				c-2.2,0-3.9-1.8-3.9-3.9S120.9,7.1,123.1,7.1z M123.1,13.1c1.1,0,2-0.9,2-2c0-1.1-0.9-2-2-2c-1.1,0-2,0.9-2,2
				C121.1,12.2,122,13.1,123.1,13.1z"/>
			<path class="st1" d="M128.4,14.9v-10h1.9v10H128.4z"/>
			<path class="st1" d="M139.2,11.1c0,0.2,0,0.5-0.1,0.7h-5.8c0.3,0.8,1,1.4,1.9,1.4c0.7,0,1.3-0.3,1.6-0.8h2.1
				c-0.5,1.6-2,2.7-3.8,2.7c-2.2,0-3.9-1.8-3.9-3.9s1.8-3.9,3.9-3.9C137.4,7.1,139.2,8.9,139.2,11.1z M137,10.1c-0.3-0.6-1-1-1.8-1
				c-0.8,0-1.4,0.4-1.8,1H137z"/>
			<path class="st1" d="M142.5,11.9c-0.6-0.3-1.6-0.7-2-1.2c-0.4-0.5-0.5-1.1-0.4-1.7c0.3-1.3,1.6-1.9,2.8-1.9
				c1.1,0,2.1,0.5,2.9,1.4l-1.5,1.3c-0.4-0.4-0.8-0.8-1.4-0.8c-0.2,0-0.4,0-0.6,0.1c-0.1,0-0.2,0.1-0.2,0.2
				c-0.1,0.3,0.9,0.7,1.1,0.8c1.2,0.6,2.9,1.1,2.7,2.9c-0.2,1.4-1.7,2-3,2c-1.2,0-2.4-0.6-3.1-1.5l1.5-1.3c0.5,0.5,1.2,1,1.9,0.9
				c0.2,0,0.6-0.1,0.6-0.3C143.9,12.5,142.7,12,142.5,11.9z"/>
		</g>
		<g>
			<path class="st0" d="M61,20h3.1v0.6h-2.5v2h2.5v0.6h-2.5v3.1H61V20z"/>
			<path class="st0" d="M64.7,21.6h0.6v0.7c0.2-0.3,0.4-0.5,0.6-0.6c0.2-0.1,0.4-0.2,0.6-0.2c0.2,0,0.3,0.1,0.5,0.2l-0.3,0.5
				c-0.1-0.1-0.2-0.1-0.3-0.1c-0.2,0-0.4,0.1-0.6,0.2c-0.2,0.2-0.3,0.4-0.4,0.8c-0.1,0.3-0.1,0.8-0.1,1.6v1.6h-0.6V21.6z"/>
			<path class="st0" d="M69.6,21.5c0.7,0,1.3,0.3,1.8,0.8c0.4,0.5,0.6,1,0.6,1.7c0,0.6-0.2,1.2-0.7,1.7c-0.4,0.5-1,0.7-1.7,0.7
				c-0.7,0-1.3-0.2-1.7-0.7c-0.4-0.5-0.7-1-0.7-1.7c0-0.6,0.2-1.2,0.6-1.7C68.3,21.7,68.9,21.5,69.6,21.5z M69.6,22.1
				c-0.5,0-0.9,0.2-1.3,0.5c-0.4,0.4-0.5,0.8-0.5,1.3c0,0.3,0.1,0.6,0.2,0.9c0.2,0.3,0.4,0.5,0.7,0.7c0.3,0.2,0.6,0.2,0.9,0.2
				c0.3,0,0.6-0.1,0.9-0.2c0.3-0.2,0.5-0.4,0.7-0.7c0.2-0.3,0.2-0.6,0.2-0.9c0-0.5-0.2-1-0.5-1.3C70.5,22.3,70.1,22.1,69.6,22.1z"/>
			<path class="st0" d="M73,21.6h0.6v0.8c0.2-0.3,0.5-0.6,0.8-0.7c0.3-0.2,0.6-0.2,0.9-0.2c0.3,0,0.7,0.1,0.9,0.3
				c0.3,0.2,0.5,0.4,0.6,0.7c0.1,0.3,0.2,0.8,0.2,1.4v2.4h-0.6V24c0-0.5,0-0.9-0.1-1.1c-0.1-0.3-0.2-0.5-0.4-0.7
				c-0.2-0.2-0.5-0.2-0.8-0.2c-0.4,0-0.7,0.1-1,0.4c-0.3,0.2-0.5,0.5-0.6,0.9c-0.1,0.2-0.1,0.6-0.1,1.3v1.7H73V21.6z"/>
			<path class="st0" d="M78.7,19.9h0.6v1.7h0.9v0.5h-0.9v4.1h-0.6v-4.1h-0.8v-0.5h0.8V19.9z"/>
			<path class="st0" d="M83.4,20H87v0.6h-3v2h2.9v0.6H84v2.5h2.9v0.6h-3.6V20z"/>
			<path class="st0" d="M87.8,21.6h0.6v0.8c0.2-0.3,0.5-0.6,0.8-0.7c0.3-0.2,0.6-0.2,0.9-0.2c0.3,0,0.7,0.1,0.9,0.3
				c0.3,0.2,0.5,0.4,0.6,0.7c0.1,0.3,0.2,0.8,0.2,1.4v2.4h-0.6V24c0-0.5,0-0.9-0.1-1.1c-0.1-0.3-0.2-0.5-0.4-0.7
				C90.6,22.1,90.3,22,90,22c-0.4,0-0.7,0.1-1,0.4c-0.3,0.2-0.5,0.5-0.6,0.9c-0.1,0.2-0.1,0.6-0.1,1.3v1.7h-0.6V21.6z"/>
			<path class="st0" d="M97.6,19.8v6.4H97v-0.8c-0.2,0.3-0.5,0.5-0.8,0.7c-0.3,0.2-0.6,0.2-1,0.2c-0.7,0-1.2-0.2-1.7-0.7
				c-0.5-0.5-0.7-1.1-0.7-1.7c0-0.7,0.2-1.2,0.7-1.7s1-0.7,1.7-0.7c0.4,0,0.7,0.1,1,0.2c0.3,0.2,0.6,0.4,0.8,0.7v-2.6H97.6z
				 M95.2,22.1c-0.3,0-0.6,0.1-0.9,0.2c-0.3,0.2-0.5,0.4-0.7,0.7c-0.2,0.3-0.2,0.6-0.2,0.9c0,0.3,0.1,0.6,0.3,0.9
				c0.2,0.3,0.4,0.5,0.7,0.7c0.3,0.2,0.6,0.2,0.9,0.2c0.3,0,0.6-0.1,0.9-0.2c0.3-0.2,0.5-0.4,0.7-0.7s0.2-0.6,0.2-0.9
				c0-0.5-0.2-1-0.5-1.3C96.2,22.2,95.7,22.1,95.2,22.1z"/>
			<path class="st0" d="M101.2,26.2V20h1.3c0.9,0,1.6,0.1,2,0.2c0.6,0.2,1.1,0.6,1.4,1.1c0.3,0.5,0.5,1.1,0.5,1.9
				c0,0.6-0.1,1.2-0.4,1.7c-0.3,0.5-0.6,0.8-1.1,1.1c-0.4,0.2-1,0.3-1.8,0.3H101.2z M101.8,25.6h0.7c0.9,0,1.5-0.1,1.8-0.2
				c0.5-0.2,0.8-0.4,1.1-0.8c0.3-0.4,0.4-0.9,0.4-1.5c0-0.6-0.1-1.1-0.4-1.5s-0.7-0.7-1.2-0.9c-0.4-0.1-1-0.2-1.9-0.2h-0.4V25.6z"/>
			<path class="st0" d="M111.3,24.7l0.5,0.3c-0.2,0.3-0.4,0.6-0.6,0.8s-0.5,0.3-0.7,0.5c-0.3,0.1-0.6,0.2-0.9,0.2
				c-0.8,0-1.3-0.2-1.8-0.7c-0.4-0.5-0.6-1.1-0.6-1.7c0-0.6,0.2-1.1,0.5-1.6c0.5-0.6,1.1-0.9,1.8-0.9c0.8,0,1.4,0.3,1.9,0.9
				c0.3,0.4,0.5,0.9,0.5,1.6h-4.2c0,0.5,0.2,1,0.5,1.3c0.3,0.3,0.7,0.5,1.2,0.5c0.2,0,0.5,0,0.7-0.1c0.2-0.1,0.4-0.2,0.6-0.3
				C111,25.2,111.1,25,111.3,24.7z M111.3,23.5c-0.1-0.3-0.2-0.6-0.3-0.8s-0.4-0.3-0.6-0.5c-0.2-0.1-0.5-0.2-0.8-0.2
				c-0.5,0-0.8,0.1-1.2,0.4c-0.2,0.2-0.4,0.5-0.5,1H111.3z"/>
			<path class="st0" d="M112.5,21.6h0.6l1.6,3.4l1.5-3.4h0.6l-2.1,4.6h-0.1L112.5,21.6z"/>
			<path class="st0" d="M121.5,24.7L122,25c-0.2,0.3-0.4,0.6-0.6,0.8c-0.2,0.2-0.5,0.3-0.7,0.5c-0.3,0.1-0.6,0.2-0.9,0.2
				c-0.8,0-1.3-0.2-1.8-0.7c-0.4-0.5-0.6-1.1-0.6-1.7c0-0.6,0.2-1.1,0.5-1.6c0.5-0.6,1.1-0.9,1.8-0.9c0.8,0,1.4,0.3,1.9,0.9
				c0.3,0.4,0.5,0.9,0.5,1.6H118c0,0.5,0.2,1,0.5,1.3c0.3,0.3,0.7,0.5,1.2,0.5c0.2,0,0.5,0,0.7-0.1c0.2-0.1,0.4-0.2,0.6-0.3
				C121.2,25.2,121.3,25,121.5,24.7z M121.5,23.5c-0.1-0.3-0.2-0.6-0.3-0.8s-0.4-0.3-0.6-0.5c-0.2-0.1-0.5-0.2-0.8-0.2
				c-0.5,0-0.8,0.1-1.2,0.4c-0.2,0.2-0.4,0.5-0.5,1H121.5z"/>
			<path class="st0" d="M123.1,19.8h0.6v6.4h-0.6V19.8z"/>
			<path class="st0" d="M126.9,21.5c0.7,0,1.3,0.3,1.8,0.8c0.4,0.5,0.6,1,0.6,1.7c0,0.6-0.2,1.2-0.7,1.7c-0.4,0.5-1,0.7-1.7,0.7
				c-0.7,0-1.3-0.2-1.7-0.7c-0.4-0.5-0.7-1-0.7-1.7c0-0.6,0.2-1.2,0.6-1.7C125.6,21.7,126.2,21.5,126.9,21.5z M126.9,22.1
				c-0.5,0-0.9,0.2-1.3,0.5c-0.4,0.4-0.5,0.8-0.5,1.3c0,0.3,0.1,0.6,0.2,0.9c0.2,0.3,0.4,0.5,0.7,0.7c0.3,0.2,0.6,0.2,0.9,0.2
				c0.3,0,0.6-0.1,0.9-0.2c0.3-0.2,0.5-0.4,0.7-0.7c0.2-0.3,0.2-0.6,0.2-0.9c0-0.5-0.2-1-0.5-1.3C127.8,22.3,127.4,22.1,126.9,22.1z
				"/>
			<path class="st0" d="M130.3,21.6h0.6v0.8c0.2-0.3,0.5-0.6,0.8-0.7c0.3-0.2,0.6-0.2,1-0.2c0.7,0,1.2,0.2,1.7,0.7
				c0.5,0.5,0.7,1,0.7,1.7c0,0.7-0.2,1.3-0.7,1.7c-0.5,0.5-1,0.7-1.7,0.7c-0.4,0-0.7-0.1-1-0.2c-0.3-0.2-0.6-0.4-0.8-0.7v2.5h-0.6
				V21.6z M132.7,22.1c-0.5,0-0.9,0.2-1.3,0.5c-0.4,0.4-0.5,0.8-0.5,1.3c0,0.4,0.1,0.7,0.2,0.9c0.2,0.3,0.4,0.5,0.7,0.7
				c0.3,0.2,0.6,0.2,0.9,0.2c0.3,0,0.6-0.1,0.9-0.2c0.3-0.2,0.5-0.4,0.7-0.7c0.2-0.3,0.3-0.6,0.3-0.9c0-0.3-0.1-0.6-0.2-0.9
				c-0.2-0.3-0.4-0.5-0.7-0.7C133.3,22.1,133,22.1,132.7,22.1z"/>
			<path class="st0" d="M140,24.7l0.5,0.3c-0.2,0.3-0.4,0.6-0.6,0.8c-0.2,0.2-0.5,0.3-0.7,0.5c-0.3,0.1-0.6,0.2-0.9,0.2
				c-0.8,0-1.3-0.2-1.8-0.7c-0.4-0.5-0.6-1.1-0.6-1.7c0-0.6,0.2-1.1,0.5-1.6c0.5-0.6,1.1-0.9,1.8-0.9c0.8,0,1.4,0.3,1.9,0.9
				c0.3,0.4,0.5,0.9,0.5,1.6h-4.2c0,0.5,0.2,1,0.5,1.3c0.3,0.3,0.7,0.5,1.2,0.5c0.2,0,0.5,0,0.7-0.1c0.2-0.1,0.4-0.2,0.6-0.3
				C139.6,25.2,139.8,25,140,24.7z M140,23.5c-0.1-0.3-0.2-0.6-0.3-0.8c-0.2-0.2-0.4-0.3-0.6-0.5c-0.2-0.1-0.5-0.2-0.8-0.2
				c-0.5,0-0.8,0.1-1.2,0.4c-0.2,0.2-0.4,0.5-0.5,1H140z"/>
			<path class="st0" d="M141.4,21.6h0.6v0.7c0.2-0.3,0.4-0.5,0.6-0.6c0.2-0.1,0.4-0.2,0.6-0.2c0.2,0,0.3,0.1,0.5,0.2l-0.3,0.5
				c-0.1-0.1-0.2-0.1-0.3-0.1c-0.2,0-0.4,0.1-0.6,0.2c-0.2,0.2-0.3,0.4-0.4,0.8c-0.1,0.3-0.1,0.8-0.1,1.6v1.6h-0.6V21.6z"/>
		</g>
	</g>
	<g>
		<g>
			<g>
				<path class="st1" d="M52.3,21c0,4.7-3.9,8.5-8.8,8.5H29.3V0.1h13.5c4.7,0,8.5,3.8,8.5,8.5c0,2.3-0.9,4.3-2.3,5.8
					C51,15.9,52.3,18.3,52.3,21z M35.1,11.9h7.5c1.7,0,3.1-1.4,3.1-3.1c0-1.7-1.4-3.1-3.1-3.1h-7.5V11.9z M46.6,20.7
					c0-1.7-1.4-3.1-3.1-3.1h-8.5v6.1h8.5C45.2,23.8,46.6,22.4,46.6,20.7z"/>
			</g>
		</g>
		<g>
			<g>
				<path class="st0" d="M15.4,14.8L15.4,14.8c0,0,3.8,0.8,3.8,4.7v2.3c0,2.2,1.8,2.2,4,2.2v5.4h-1.7c-3.1,0-5.3-1.1-7.1-2.9
					c-1.2-1.3-1.9-2.9-1.9-4.7v-2.3c0-2.2-1.8-2.2-4-2.2v-5c2.2,0,4,0.1,4-2.2V7.9c0-1.8,0.7-3.4,1.9-4.7c1.7-1.8,4-2.9,7.1-2.9h1.7
					v5.4c-2.2,0-4,0-4,2.2v2.3C19.1,14.1,15.4,14.8,15.4,14.8z"/>
			</g>
		</g>
		<g>
			<g>
				<path class="st1" d="M34.6,10.2V7.9c0-2.2,2-2.2,4.5-2.2V0.2h-1.9c-3.4,0-5.9,1.1-7.9,3c-1.3,1.3-2.1,2.9-2.1,4.7v2.3
					c-0.1,0.4-0.2,0.9-0.4,1.3c-0.8,2-2.6,2.9-3.3,3.3c0.8,0.4,2.4,1.5,3.3,3.5c0.2,0.5,0.3,0.9,0.4,1.3v2.3c0,1.8,0.8,3.4,2.1,4.7
					c1.9,1.8,4.4,3,7.9,3h1.9v-5.5c-2.5,0-4.5,0.1-4.5-2.2v-2.3c0-3.9-4.2-4.7-4.2-4.7v0C30.4,14.9,34.6,14.1,34.6,10.2z"/>
			</g>
		</g>
		<polyline class="st1" points="1,14.1 7.1,12.5 7.1,17.2 1,16.2 		"/>
	</g>
</g>
</svg>
