<svg xmlns="http://www.w3.org/2000/svg" width="19.275" height="14.824" viewBox="0 0 19.275 14.824">
  <g id="mensaje" transform="translate(-938.845 -224.013)">
    <g id="Grupo_13" data-name="Grupo 13" transform="translate(938.845 224.013)">
      <path id="Trazado_164" data-name="Trazado 164" d="M957.041,236.051a1.729,1.729,0,0,1-1.188,1.626,2.165,2.165,0,0,1-.716.081H945.9c-1.439,0-2.885.041-4.324,0a1.725,1.725,0,0,1-1.563-1.187,2.5,2.5,0,0,1-.081-.813v-8.842a1.742,1.742,0,0,1,.375-1.188,1.838,1.838,0,0,1,.813-.555,1.537,1.537,0,0,1,.547-.081c.518,0,1.037,0,1.555,0h6.956c1.695,0,3.39,0,5.084,0a1.734,1.734,0,0,1,1.783,1.748c0,.707,0,1.415,0,2.122v7.09a.539.539,0,0,0,1.078,0v-8.7c0-.184,0-.369,0-.553a2.836,2.836,0,0,0-1.315-2.364,3.846,3.846,0,0,0-2.2-.422H941.99c-.118,0-.237,0-.355,0a2.827,2.827,0,0,0-2.423,1.416,4.8,4.8,0,0,0-.362,2.47v7.035a4.978,4.978,0,0,0,.333,2.434,2.818,2.818,0,0,0,2.389,1.466c.134,0,.268,0,.4,0h12.61a3.923,3.923,0,0,0,2.195-.407,2.835,2.835,0,0,0,1.34-2.378A.539.539,0,0,0,957.041,236.051Z" transform="translate(-938.845 -224.013)" fill="#43f7d4"/>
    </g>
    <g id="Grupo_14" data-name="Grupo 14" transform="translate(941.108 226.783)">
      <path id="Trazado_165" data-name="Trazado 165" d="M970.57,263.554l2.312,2.145,3.668,3.4.848.786a.551.551,0,0,0,.762,0l2.256-2.135,3.6-3.408.835-.79c.5-.478-.258-1.239-.762-.762l-2.256,2.135-3.6,3.408-.835.79h.762l-2.312-2.145-3.668-3.4-.848-.786c-.508-.471-1.272.289-.762.762Z" transform="translate(-970.402 -262.64)" fill="#43f7d4"/>
    </g>
    <g id="Grupo_15" data-name="Grupo 15" transform="translate(941.099 232.408)">
      <path id="Trazado_166" data-name="Trazado 166" d="M971.194,345.26l2.748-2.827.4-.407c.484-.5-.278-1.261-.762-.762l-2.748,2.827-.4.407c-.484.5.278,1.261.762.762Z" transform="translate(-970.277 -341.101)" fill="#43f7d4"/>
    </g>
    <g id="Grupo_16" data-name="Grupo 16" transform="translate(951.834 232.408)">
      <path id="Trazado_167" data-name="Trazado 167" d="M1124.053,344.5l-2.748-2.827-.4-.407c-.484-.5-1.246.264-.762.762l2.748,2.827.4.407c.484.5,1.246-.264.762-.762Z" transform="translate(-1119.992 -341.102)" fill="#43f7d4"/>
    </g>
  </g>
</svg>
