<?xml version="1.0" encoding="utf-8"?>
<!-- Generator: Adobe Illustrator 25.2.3, SVG Export Plug-In . SVG Version: 6.00 Build 0)  -->
<svg version="1.1" id="Capa_1" xmlns="http://www.w3.org/2000/svg" xmlns:xlink="http://www.w3.org/1999/xlink" x="0px" y="0px"
	 viewBox="0 0 67.4 67.4" style="enable-background:new 0 0 67.4 67.4;" xml:space="preserve">
<style type="text/css">
	.st0{fill:#CB3837;}
	.st1{fill:#FFFFFF;}
</style>
<g id="git" transform="translate(-2.555 -2.558)">
</g>
<path class="st0" d="M0,23.2h67.4v22.5H33.7v3.7h-15v-3.7H0V23.2z M3.7,42h7.5V30.7H15V42h3.7V27h-15V42z M22.5,27v18.7H30V42h7.5
	V27H22.5z M30,30.7h3.7v7.5H30V30.7z M41.2,27v15h7.5V30.7h3.7V42h3.7V30.7h3.7V42h3.7V27H41.2z"/>
<polygon class="st1" points="3.7,42 11.2,42 11.2,30.7 15,30.7 15,42 18.7,42 18.7,27 3.7,27 "/>
<path class="st1" d="M22.5,27v18.7H30V42h7.5V27H22.5z M33.7,38.2H30v-7.5h3.7V38.2z"/>
<polygon class="st1" points="41.2,27 41.2,42 48.7,42 48.7,30.7 52.4,30.7 52.4,42 56.2,42 56.2,30.7 59.9,30.7 59.9,42 63.7,42 
	63.7,27 "/>
</svg>
