<?xml version="1.0" encoding="utf-8"?>
<!-- Generator: Adobe Illustrator 25.2.3, SVG Export Plug-In . SVG Version: 6.00 Build 0)  -->
<svg version="1.1" id="Capa_1" xmlns="http://www.w3.org/2000/svg" xmlns:xlink="http://www.w3.org/1999/xlink" x="0px" y="0px"
	 viewBox="0 0 67.4 67.4" style="enable-background:new 0 0 67.4 67.4;" xml:space="preserve">
<style type="text/css">
	.st0{fill:#001E36;}
	.st1{fill:#31A8FF;}
</style>
<g id="Layer_2_1_">
	<g id="Surfaces">
		<g id="Photo_Surface">
			<g id="Outline_no_shadow">
				<path class="st0" d="M11.9,0.8h43.5c6.6,0,11.9,5.3,11.9,11.9v41.8c0,6.6-5.3,11.9-11.9,11.9H11.9C5.3,66.6,0,61.2,0,54.6V12.8
					C0,6.2,5.3,0.8,11.9,0.8z"/>
			</g>
		</g>
	</g>
	<g id="Outlined_Mnemonics_Logos">
		<g id="Ps">
			<path class="st1" d="M15.2,46.9V18c0-0.2,0.1-0.3,0.3-0.3c0.5,0,0.9,0,1.6,0c0.7,0,1.4,0,2.1-0.1c0.8,0,1.6,0,2.4-0.1
				s1.7,0,2.6,0c2.3,0,4.2,0.3,5.8,0.9c1.4,0.5,2.7,1.3,3.8,2.3c0.9,0.9,1.6,2,2.1,3.2c0.4,1.2,0.6,2.4,0.6,3.7c0,2.4-0.6,4.4-1.7,6
				c-1.1,1.6-2.7,2.8-4.5,3.4c-1.9,0.7-4,1-6.3,1c-0.7,0-1.1,0-1.4,0c-0.3,0-0.7,0-1.2,0v9c0,0.2-0.1,0.4-0.3,0.4c0,0-0.1,0-0.1,0
				h-5.3C15.3,47.3,15.2,47.2,15.2,46.9z M21.3,23.1v9.4c0.4,0,0.8,0.1,1.1,0.1h1.5c1.1,0,2.2-0.2,3.2-0.5c0.9-0.3,1.7-0.8,2.3-1.5
				c0.6-0.7,0.9-1.7,0.9-2.9c0-0.9-0.2-1.7-0.6-2.5c-0.5-0.7-1.2-1.3-2-1.6c-1-0.4-2.2-0.6-3.3-0.6c-0.7,0-1.4,0-1.9,0
				C21.9,23.1,21.5,23.1,21.3,23.1L21.3,23.1z"/>
			<path class="st1" d="M53.9,30.9c-0.8-0.4-1.7-0.8-2.7-1c-1-0.2-2.1-0.4-3.1-0.4c-0.6,0-1.2,0.1-1.7,0.2c-0.4,0.1-0.7,0.3-0.9,0.6
				c-0.1,0.2-0.2,0.5-0.2,0.8c0,0.3,0.1,0.5,0.3,0.7c0.3,0.3,0.6,0.6,1,0.8c0.6,0.3,1.3,0.6,2,0.9c1.5,0.5,3,1.2,4.3,2.1
				c0.9,0.6,1.7,1.4,2.2,2.3c0.4,0.9,0.7,1.9,0.6,2.9c0,1.3-0.4,2.6-1.1,3.7c-0.8,1.1-1.9,2-3.1,2.5c-1.4,0.6-3.1,0.9-5.1,0.9
				c-1.3,0-2.6-0.1-3.8-0.4c-1-0.2-2-0.5-2.9-0.9c-0.2-0.1-0.3-0.3-0.3-0.5v-4.9c0-0.1,0-0.2,0.1-0.3c0.1-0.1,0.2,0,0.3,0
				c1.1,0.6,2.2,1.1,3.5,1.4c1.1,0.3,2.2,0.4,3.3,0.4c1.1,0,1.8-0.1,2.3-0.4c0.4-0.2,0.8-0.7,0.8-1.2c0-0.4-0.2-0.8-0.7-1.1
				c-0.4-0.4-1.4-0.8-2.8-1.3c-1.4-0.5-2.8-1.2-4-2c-0.9-0.6-1.6-1.4-2.1-2.4c-0.4-0.9-0.7-1.9-0.6-2.9c0-1.2,0.3-2.4,1-3.4
				c0.7-1.1,1.7-2,2.9-2.6c1.3-0.7,3-1,5-1c1.2,0,2.3,0.1,3.5,0.3c0.8,0.1,1.7,0.3,2.4,0.6c0.1,0,0.2,0.1,0.3,0.3
				c0,0.1,0.1,0.2,0.1,0.3v4.6c0,0.1-0.1,0.2-0.1,0.3C54.2,30.9,54,30.9,53.9,30.9z"/>
		</g>
	</g>
</g>
</svg>
