<?xml version="1.0" encoding="utf-8"?>
<!-- Generator: Adobe Illustrator 25.2.3, SVG Export Plug-In . SVG Version: 6.00 Build 0)  -->
<svg version="1.1" id="Capa_1" xmlns="http://www.w3.org/2000/svg" xmlns:xlink="http://www.w3.org/1999/xlink" x="0px" y="0px"
	 viewBox="0 0 67.4 67.4" style="enable-background:new 0 0 67.4 67.4;" xml:space="preserve">
<style type="text/css">
	.st0{fill:#53C1DE;}
	.st1{fill:#FFFFFF;}
</style>
<g id="git" transform="translate(-2.555 -2.558)">
</g>
<path class="st0" d="M55.5,23c-0.7-0.2-1.4-0.5-2.2-0.7c0.1-0.5,0.2-1,0.3-1.5c1.6-8,0.6-14.4-3.1-16.5c-3.5-2-9.3,0.1-15.1,5.2
	c-0.6,0.5-1.1,1-1.7,1.5c-0.4-0.4-0.7-0.7-1.1-1c-6.1-5.4-12.2-7.7-15.9-5.6c-3.5,2-4.6,8.1-3.1,15.7c0.1,0.7,0.3,1.5,0.5,2.2
	c-0.9,0.2-1.7,0.5-2.5,0.8C4.6,25.6,0,29.5,0,33.5c0,4.2,4.9,8.4,12.3,10.9c0.6,0.2,1.2,0.4,1.8,0.6c-0.2,0.8-0.4,1.6-0.5,2.4
	c-1.4,7.4-0.3,13.3,3.2,15.4c3.6,2.1,9.7-0.1,15.6-5.2c0.5-0.4,0.9-0.8,1.4-1.3c0.6,0.6,1.2,1.1,1.8,1.7c5.7,4.9,11.4,6.9,14.9,4.9
	c3.6-2.1,4.8-8.4,3.3-16.2c-0.1-0.6-0.3-1.2-0.4-1.8c0.4-0.1,0.8-0.3,1.3-0.4c7.7-2.6,12.8-6.7,12.8-11C67.5,29.4,62.8,25.5,55.5,23
	L55.5,23z"/>
<path class="st1" d="M53.8,41.7c-0.4,0.1-0.7,0.2-1.1,0.4c-0.9-2.7-2-5.6-3.4-8.6c1.3-2.9,2.5-5.7,3.3-8.4c0.7,0.2,1.4,0.4,2,0.6
	c6.2,2.2,10.1,5.3,10.1,7.8C64.6,36.1,60.5,39.5,53.8,41.7L53.8,41.7z M51.1,47.2c0.7,3.4,0.8,6.5,0.3,8.9c-0.4,2.2-1.2,3.6-2.2,4.2
	c-2.1,1.2-6.7-0.4-11.6-4.6c-0.6-0.5-1.1-1-1.7-1.5c1.9-2.1,3.8-4.5,5.7-7.2c3.3-0.3,6.3-0.8,9.1-1.4C50.8,46.1,51,46.7,51.1,47.2
	L51.1,47.2z M23,60.1c-2.1,0.7-3.7,0.8-4.7,0.2c-2.1-1.2-3-6-1.8-12.3c0.1-0.8,0.3-1.5,0.5-2.2c2.8,0.6,5.8,1.1,9.1,1.3
	c1.9,2.6,3.8,5,5.8,7.2c-0.4,0.4-0.8,0.8-1.3,1.2C28,57.7,25.3,59.3,23,60.1L23,60.1z M13.3,41.7c-3.3-1.1-6-2.6-7.9-4.2
	c-1.7-1.4-2.5-2.9-2.5-4c0-2.5,3.7-5.6,9.8-7.7c0.8-0.3,1.5-0.5,2.3-0.7c0.8,2.7,2,5.6,3.3,8.5c-1.4,2.9-2.5,5.9-3.3,8.6
	C14.4,42.1,13.8,41.9,13.3,41.7z M16.5,19.5C15.3,13,16.1,8.1,18.2,6.9c2.3-1.3,7.3,0.6,12.5,5.2c0.3,0.3,0.7,0.6,1,0.9
	c-2,2.1-3.9,4.5-5.8,7.1c-3.2,0.3-6.2,0.8-9,1.4C16.8,20.9,16.7,20.2,16.5,19.5L16.5,19.5z M45.7,26.7c-0.7-1.1-1.3-2.3-2.1-3.4
	c2.2,0.3,4.2,0.6,6.2,1.1c-0.6,1.9-1.3,3.8-2.2,5.8C47,29,46.3,27.8,45.7,26.7L45.7,26.7z M33.8,15.1c1.3,1.4,2.7,3.1,4,4.8
	c-2.7-0.1-5.3-0.1-8,0C31.1,18.2,32.4,16.6,33.8,15.1L33.8,15.1z M21.8,26.7c-0.7,1.1-1.3,2.3-1.9,3.5c-0.8-2-1.6-4-2.1-5.8
	c1.9-0.4,4-0.8,6.1-1.1C23.2,24.4,22.5,25.6,21.8,26.7z M24,43.9c-2.2-0.2-4.3-0.6-6.2-1c0.6-1.9,1.3-3.9,2.2-6
	c0.6,1.2,1.2,2.3,1.9,3.5C22.5,41.6,23.2,42.8,24,43.9z M33.9,52.1c-1.4-1.5-2.7-3.1-4.1-4.9c1.3,0.1,2.6,0.1,4,0.1
	c1.4,0,2.7,0,4.1-0.1C36.5,49,35.2,50.7,33.9,52.1z M47.6,36.9c0.9,2.1,1.7,4,2.3,5.9c-2,0.4-4.1,0.8-6.3,1.1
	c0.7-1.1,1.4-2.3,2.1-3.4C46.4,39.3,47,38.1,47.6,36.9L47.6,36.9z M43.2,39c-1,1.8-2.1,3.5-3.2,5.2c-2,0.1-4.1,0.2-6.2,0.2
	c-2.1,0-4.1-0.1-6.1-0.2c-1.2-1.7-2.3-3.4-3.3-5.2c-1-1.8-2-3.6-2.9-5.4c0.9-1.9,1.8-3.7,2.9-5.4v0c1-1.8,2.1-3.5,3.3-5.2
	c2-0.2,4.1-0.2,6.1-0.2c2.1,0,4.2,0.1,6.2,0.2c1.1,1.7,2.2,3.4,3.3,5.2c1,1.8,2,3.6,2.9,5.4C45.2,35.4,44.2,37.2,43.2,39L43.2,39z
	 M49.1,6.8c2.3,1.3,3.1,6.6,1.7,13.5c-0.1,0.4-0.2,0.9-0.3,1.3c-2.8-0.6-5.8-1.1-9-1.4c-1.9-2.6-3.8-5-5.7-7.1c0.5-0.5,1-1,1.6-1.4
	C42.4,7.3,47,5.6,49.1,6.8L49.1,6.8z"/>
<path class="st0" d="M33.8,27.5c3.3,0,6,2.7,6,6c0,3.3-2.7,6-6,6c-3.3,0-6-2.7-6-6C27.7,30.2,30.4,27.5,33.8,27.5"/>
</svg>
