<svg xmlns="http://www.w3.org/2000/svg" xmlns:xlink="http://www.w3.org/1999/xlink" width="190.471" height="200.644" viewBox="0 0 190.471 200.644">
  <defs>
    <clipPath id="clip-path">
      <path id="Trazado_233" data-name="Trazado 233" d="M323.711,394.748c-3.066,4.982-18.625,7.342-27.117,7.12s-32.928-11.776-34.586-14.24c-1.535-2.265-5.308-9.77.507-14.3a11.271,11.271,0,0,1,1.567-1.015c3.981-2.156,30.46,4.643,30.46,4.643s1.64-1.037,2.242-.96c1.848.236,3.171,1.73,6.9,2.795,2.613.747,9.747-2.124,14.3.344a6.288,6.288,0,0,1,1.386,1.006C323.634,384.2,326.773,389.752,323.711,394.748Z" transform="translate(-259.382 -371.887)" fill="#43f7d4" stroke="#263238" stroke-linecap="round" stroke-linejoin="round" stroke-width="1"/>
    </clipPath>
    <clipPath id="clip-path-2">
      <path id="Trazado_238" data-name="Trazado 238" d="M332.16,426.2l7.935,6.228a90.913,90.913,0,0,0,11.378-1.7h0c3.759-.87,7.043-2.115,7.22-3.827.276-2.6-2.5-3.311-5.807-3.211-.616,0-1.25.063-1.889.127-5.286.566-12.007-2.351-12.007-2.351Z" transform="translate(-332.16 -421.46)" fill="#263238" stroke="#263238" stroke-linecap="round" stroke-linejoin="round" stroke-width="1"/>
    </clipPath>
    <clipPath id="clip-path-3">
      <path id="Trazado_242" data-name="Trazado 242" d="M347.82,437.312c-1.431.231.14,3.171,2.079,2.265S349.252,437.076,347.82,437.312Z" transform="translate(-347.266 -437.288)" fill="#fff" stroke="#263238" stroke-linecap="round" stroke-linejoin="round" stroke-width="1"/>
    </clipPath>
    <clipPath id="clip-path-4">
      <path id="Trazado_246" data-name="Trazado 246" d="M374.052,433.388c3.759-.87,7.043-2.115,7.22-3.827.276-2.6-2.5-3.311-5.807-3.211C375.32,426.49,372.118,429.583,374.052,433.388Z" transform="translate(-373.433 -426.34)" fill="#fff" stroke="#263238" stroke-linecap="round" stroke-linejoin="round" stroke-width="1"/>
    </clipPath>
    <clipPath id="clip-path-5">
      <path id="Trazado_256" data-name="Trazado 256" d="M289.414,425.891l-8.542,5.358a91.132,91.132,0,0,1-11.138-2.885h0c-3.646-1.259-6.794-2.844-6.794-4.566,0-2.618,2.84-3.03,6.115-2.586.611.082,1.236.195,1.866.326,5.2,1.119,12.184-1.078,12.184-1.078Z" transform="translate(-262.94 -420.46)" fill="#263238" stroke="#263238" stroke-linecap="round" stroke-linejoin="round" stroke-width="1"/>
    </clipPath>
  </defs>
  <g id="Website_Creator-bro" data-name="Website Creator-bro" transform="translate(0.5)">
    <g id="freepik--background-simple--inject-2" transform="translate(7.393 0)">
      <path id="Trazado_203" data-name="Trazado 203" d="M62.669,91.609s-12.628,32.611,5.118,65.449,54.3,50.185,83.553,65.019,59.633,7.609,74.068-16.686-5.363-41.638-5.39-76.283S225.2,85.291,206.43,56.022s-64.8-35.75-99.6-14.041S62.669,91.609,62.669,91.609Z" transform="translate(-58.313 -29.116)" fill="#fff" opacity="0.7"/>
      <path id="Trazado_204" data-name="Trazado 204" d="M64.067,228.687h95.655c.385-.616.775-1.232,1.173-1.834,10.291-15.662,26.768-26.832,44.763-32.072,8.062-2.346,16.795-3.741,23.272-9.086,6.667-5.494,9.729-14.263,11.052-22.8,1.608-10.336.738-21.927-6.278-29.685-8.239-9.108-22.044-10.132-32.779-16.1-18.475-10.282-25.636-33.694-42.444-46.521-10.621-8.1-24.952-11.242-37.8-9.466-18.2,2.523-35.329,14.72-40.47,32.611a45.13,45.13,0,0,0-1.558,16.043c.82,10.667,3.116,21.469.951,31.945-2.387,11.545-9.9,21.288-14.385,32.2-5.589,13.588-6.341,28.807-3.972,43.291a74.585,74.585,0,0,0,2.817,11.477Z" transform="translate(-59.226 -46.361)" fill="#43f7d4"/>
      <path id="Trazado_205" data-name="Trazado 205" d="M64.067,228.687h95.655c.385-.616.775-1.232,1.173-1.834,10.291-15.662,26.768-26.832,44.763-32.072,8.062-2.346,16.795-3.741,23.272-9.086,6.667-5.494,9.729-14.263,11.052-22.8,1.608-10.336.738-21.927-6.278-29.685-8.239-9.108-22.044-10.132-32.779-16.1-18.475-10.282-25.636-33.694-42.444-46.521-10.621-8.1-24.952-11.242-37.8-9.466-18.2,2.523-35.329,14.72-40.47,32.611a45.13,45.13,0,0,0-1.558,16.043c.82,10.667,3.116,21.469.951,31.945-2.387,11.545-9.9,21.288-14.385,32.2-5.589,13.588-6.341,28.807-3.972,43.291a74.585,74.585,0,0,0,2.817,11.477Z" transform="translate(-59.226 -46.361)" fill="#fff" opacity="0.7"/>
    </g>
    <g id="freepik--Floor--inject-2" transform="translate(0 182.326)">
      <line id="Línea_9" data-name="Línea 9" x2="189.471" fill="none" stroke="#263238" stroke-linecap="round" stroke-linejoin="round" stroke-width="1"/>
    </g>
    <g id="freepik--Window--inject-2" transform="translate(3.284 36.59)">
      <path id="Trazado_206" data-name="Trazado 206" d="M51.16,109.9h113.89a1.92,1.92,0,0,1,1.92,1.92v5.372H49.24V111.82A1.92,1.92,0,0,1,51.16,109.9Z" transform="translate(-49.24 -109.9)" fill="#43f7d4" stroke="#263238" stroke-linecap="round" stroke-linejoin="round" stroke-width="1"/>
      <rect id="Rectángulo_118" data-name="Rectángulo 118" width="118.99" height="83.734" transform="translate(5.154 8.637)" fill="#fff" stroke="#263238" stroke-linecap="round" stroke-linejoin="round" stroke-width="1"/>
      <path id="Trazado_207" data-name="Trazado 207" d="M322.973,115.752a1.812,1.812,0,1,1-1.812-1.812A1.812,1.812,0,0,1,322.973,115.752Z" transform="translate(-197.008 -112.11)" fill="#fff" stroke="#263238" stroke-linecap="round" stroke-linejoin="round" stroke-width="1"/>
      <path id="Trazado_208" data-name="Trazado 208" d="M308.813,115.752A1.812,1.812,0,1,1,307,113.94,1.812,1.812,0,0,1,308.813,115.752Z" transform="translate(-189.262 -112.11)" fill="#fff" stroke="#263238" stroke-linecap="round" stroke-linejoin="round" stroke-width="1"/>
      <path id="Trazado_209" data-name="Trazado 209" d="M294.623,115.752a1.812,1.812,0,1,1-1.812-1.812A1.812,1.812,0,0,1,294.623,115.752Z" transform="translate(-181.499 -112.11)" fill="#fff" stroke="#263238" stroke-linecap="round" stroke-linejoin="round" stroke-width="1"/>
      <line id="Línea_10" data-name="Línea 10" x1="4.711" transform="translate(115.829 12.229)" fill="none" stroke="#263238" stroke-linecap="round" stroke-linejoin="round" stroke-width="2"/>
      <line id="Línea_11" data-name="Línea 11" x1="4.711" transform="translate(115.829 14.141)" fill="none" stroke="#263238" stroke-linecap="round" stroke-linejoin="round" stroke-width="2"/>
      <line id="Línea_12" data-name="Línea 12" x1="4.711" transform="translate(115.829 16.052)" fill="none" stroke="#263238" stroke-linecap="round" stroke-linejoin="round" stroke-width="2"/>
      <line id="Línea_13" data-name="Línea 13" x2="35.659" transform="translate(13.393 61.635)" fill="none" stroke="#263238" stroke-linecap="round" stroke-linejoin="round" stroke-width="2"/>
      <line id="Línea_14" data-name="Línea 14" x2="35.659" transform="translate(13.393 64.448)" fill="none" stroke="#263238" stroke-linecap="round" stroke-linejoin="round" stroke-width="2"/>
      <line id="Línea_15" data-name="Línea 15" x2="28.118" transform="translate(13.393 67.311)" fill="none" stroke="#263238" stroke-linecap="round" stroke-linejoin="round" stroke-width="2"/>
      <line id="Línea_16" data-name="Línea 16" y2="0.226" transform="translate(89.011 9.58)" fill="none" stroke="#263238" stroke-linecap="round" stroke-linejoin="round" stroke-width="1"/>
      <line id="Línea_17" data-name="Línea 17" y2="78.915" transform="translate(89.011 11.165)" fill="none" stroke="#263238" stroke-linecap="round" stroke-linejoin="round" stroke-width="1" stroke-dasharray="0.998 2.995"/>
      <line id="Línea_18" data-name="Línea 18" y2="0.226" transform="translate(89.011 90.759)" fill="none" stroke="#263238" stroke-linecap="round" stroke-linejoin="round" stroke-width="1"/>
      <line id="Línea_19" data-name="Línea 19" x2="0.226" transform="translate(6.586 73.593)" fill="none" stroke="#263238" stroke-linecap="round" stroke-linejoin="round" stroke-width="1"/>
      <line id="Línea_20" data-name="Línea 20" x2="113.252" transform="translate(8.166 73.593)" fill="none" stroke="#263238" stroke-linecap="round" stroke-linejoin="round" stroke-width="1" stroke-dasharray="0.998 2.994"/>
      <line id="Línea_21" data-name="Línea 21" x2="0.226" transform="translate(122.097 73.593)" fill="none" stroke="#263238" stroke-linecap="round" stroke-linejoin="round" stroke-width="1"/>
      <rect id="Rectángulo_119" data-name="Rectángulo 119" width="1.563" height="1.563" transform="translate(88.232 72.809)" fill="#fff" stroke="#263238" stroke-linecap="round" stroke-linejoin="round" stroke-width="1"/>
      <line id="Línea_22" data-name="Línea 22" x1="20.862" transform="translate(61.912 58.582)" fill="none" stroke="#263238" stroke-linecap="round" stroke-linejoin="round" stroke-width="1"/>
      <path id="Trazado_210" data-name="Trazado 210" d="M206.686,248.827s0-9.7-10.834-9.7-10.852,9.7-10.852,9.7" transform="translate(-123.51 -180.597)" fill="none" stroke="#263238" stroke-linecap="round" stroke-linejoin="round" stroke-width="1"/>
      <circle id="Elipse_7" data-name="Elipse 7" cx="0.915" cy="0.915" r="0.915" transform="translate(82.262 67.315)" fill="#43f7d4" stroke="#263238" stroke-linecap="round" stroke-linejoin="round" stroke-width="1"/>
      <path id="Trazado_211" data-name="Trazado 211" d="M183,259.446a.906.906,0,1,1,.906.906A.906.906,0,0,1,183,259.446Z" transform="translate(-122.416 -191.216)" fill="#43f7d4" stroke="#263238" stroke-linecap="round" stroke-linejoin="round" stroke-width="1"/>
      <rect id="Rectángulo_120" data-name="Rectángulo 120" width="1.603" height="1.603" transform="translate(83.978 59.334) rotate(180)" fill="#43f7d4" stroke="#263238" stroke-linecap="round" stroke-linejoin="round" stroke-width="1"/>
      <rect id="Rectángulo_121" data-name="Rectángulo 121" width="1.603" height="1.603" transform="translate(73.144 59.334) rotate(180)" fill="#43f7d4" stroke="#263238" stroke-linecap="round" stroke-linejoin="round" stroke-width="1"/>
      <rect id="Rectángulo_122" data-name="Rectángulo 122" width="1.603" height="1.603" transform="translate(62.31 59.334) rotate(180)" fill="#43f7d4" stroke="#263238" stroke-linecap="round" stroke-linejoin="round" stroke-width="1"/>
      <path id="Trazado_212" data-name="Trazado 212" d="M86.182,162.309V159.1l-2.4-.2a6.835,6.835,0,0,0-.593-1.44l1.549-1.839-2.265-2.265L80.634,154.9a6.441,6.441,0,0,0-1.44-.593l-.208-2.4h-3.2l-.208,2.4a6.342,6.342,0,0,0-1.436.593L72.3,153.355l-2.265,2.265,1.549,1.839a6.6,6.6,0,0,0-.593,1.44l-2.4.2v3.207l2.4.2a6.7,6.7,0,0,0,.593,1.44l-1.549,1.839,2.265,2.265,1.843-1.549a6.342,6.342,0,0,0,1.427.593l.208,2.4h3.2l.208-2.4a6.44,6.44,0,0,0,1.436-.593l1.843,1.549,2.265-2.265-1.549-1.839a6.934,6.934,0,0,0,.593-1.44Zm-8.8,2.12a3.723,3.723,0,1,1,3.723-3.723A3.723,3.723,0,0,1,77.381,164.429Z" transform="translate(-59.826 -132.882)" fill="#43f7d4" stroke="#263238" stroke-linecap="round" stroke-linejoin="round" stroke-width="1"/>
      <path id="Trazado_213" data-name="Trazado 213" d="M116.924,182.125v-2.192l-1.644-.145a4.442,4.442,0,0,0-.4-.983l1.06-1.259L114.383,176l-1.259,1.06a4.683,4.683,0,0,0-.983-.408L112,175h-2.192l-.145,1.644a4.684,4.684,0,0,0-.983.408l-1.259-1.06-1.554,1.549,1.064,1.259a4.248,4.248,0,0,0-.408.983l-1.644.145v2.192l1.644.14a4.167,4.167,0,0,0,.408.983l-1.064,1.268,1.554,1.549L108.68,185a4.684,4.684,0,0,0,.983.408l.145,1.64H112l.14-1.64a4.682,4.682,0,0,0,.983-.408l1.259,1.06,1.554-1.549-1.037-1.264a4.353,4.353,0,0,0,.4-.983Zm-6.019,1.449a2.55,2.55,0,1,1,2.545-2.545A2.55,2.55,0,0,1,110.9,183.574Z" transform="translate(-79.679 -145.514)" fill="#43f7d4" stroke="#263238" stroke-linecap="round" stroke-linejoin="round" stroke-width="1"/>
      <line id="Línea_23" data-name="Línea 23" x2="17.542" transform="translate(93.486 78.919)" fill="none" stroke="#263238" stroke-linecap="round" stroke-linejoin="round" stroke-width="2"/>
      <line id="Línea_24" data-name="Línea 24" x2="17.542" transform="translate(93.486 81.732)" fill="none" stroke="#263238" stroke-linecap="round" stroke-linejoin="round" stroke-width="2"/>
      <line id="Línea_25" data-name="Línea 25" x2="10.001" transform="translate(93.486 84.594)" fill="none" stroke="#263238" stroke-linecap="round" stroke-linejoin="round" stroke-width="2"/>
      <path id="Trazado_214" data-name="Trazado 214" d="M190.72,293.779h-9.235a2.265,2.265,0,0,1-2.265-2.265h0a2.265,2.265,0,0,1,2.265-2.265h9.235a2.265,2.265,0,0,1,2.265,2.265h0A2.265,2.265,0,0,1,190.72,293.779Z" transform="translate(-120.348 -208.016)" fill="#43f7d4" stroke="#263238" stroke-linecap="round" stroke-linejoin="round" stroke-width="1"/>
      <path id="Trazado_215" data-name="Trazado 215" d="M228.72,293.779h-9.235a2.265,2.265,0,0,1-2.265-2.265h0a2.265,2.265,0,0,1,2.265-2.265h9.235a2.265,2.265,0,0,1,2.265,2.265h0A2.265,2.265,0,0,1,228.72,293.779Z" transform="translate(-141.136 -208.016)" fill="#43f7d4" stroke="#263238" stroke-linecap="round" stroke-linejoin="round" stroke-width="1"/>
      <rect id="Rectángulo_123" data-name="Rectángulo 123" width="19.585" height="19.585" transform="translate(94.767 37.172)" fill="#fff" stroke="#263238" stroke-linecap="round" stroke-linejoin="round" stroke-width="1"/>
      <line id="Línea_26" data-name="Línea 26" x2="19.585" y2="19.585" transform="translate(94.767 37.172)" fill="#fff" stroke="#263238" stroke-linecap="round" stroke-linejoin="round" stroke-width="1"/>
      <line id="Línea_27" data-name="Línea 27" x1="19.585" y2="19.585" transform="translate(94.767 37.172)" fill="#fff" stroke="#263238" stroke-linecap="round" stroke-linejoin="round" stroke-width="1"/>
      <path id="Trazado_216" data-name="Trazado 216" d="M267.476,142.88v4.57l-2.016,2.016h-4.57V142.88Z" transform="translate(-165.027 -127.942)" fill="#fff" stroke="#263238" stroke-linecap="round" stroke-linejoin="round" stroke-width="1"/>
      <path id="Trazado_217" data-name="Trazado 217" d="M273,152.97l-2.016,2.016V152.97Z" transform="translate(-170.546 -133.462)" fill="#fff" stroke="#263238" stroke-linecap="round" stroke-linejoin="round" stroke-width="1"/>
      <path id="Trazado_218" data-name="Trazado 218" d="M112.846,220.91v4.57l-2.016,2.02h-4.57v-6.59Z" transform="translate(-80.434 -170.63)" fill="#fff" stroke="#263238" stroke-linecap="round" stroke-linejoin="round" stroke-width="1"/>
      <path id="Trazado_219" data-name="Trazado 219" d="M118.366,231l-2.016,2.02V231Z" transform="translate(-85.954 -176.15)" fill="#fff" stroke="#263238" stroke-linecap="round" stroke-linejoin="round" stroke-width="1"/>
      <path id="Trazado_220" data-name="Trazado 220" d="M57.9,283.08v4.57l-2.016,2.016H51.31V283.08Z" transform="translate(-50.372 -204.641)" fill="#fff" stroke="#263238" stroke-linecap="round" stroke-linejoin="round" stroke-width="1"/>
      <path id="Trazado_221" data-name="Trazado 221" d="M63.426,293.17l-2.016,2.016V293.17Z" transform="translate(-55.898 -210.161)" fill="#fff" stroke="#263238" stroke-linecap="round" stroke-linejoin="round" stroke-width="1"/>
    </g>
    <g id="freepik--Character--inject-2" transform="translate(44.012 50.074)">
      <path id="Trazado_222" data-name="Trazado 222" d="M237.641,207.843c-2.4.2-5.435-2.659-5.435-2.659a.539.539,0,0,1-.856-.109c-.39-.562-2.079-1.862-2.174-2.985s1.9-2.944,1.9-2.944c-1.535.417-1.7-.485-1.7-.485s2.586-2.133,3.492-2.192a10.674,10.674,0,0,1,3.383,2.061c1.558,1.255,4.484,5.671,4.484,5.671s9.9,7.188,12.4,9.027a61.494,61.494,0,0,1,7.215,6.735s13.135,5.924,16.759,9.181l-4.9,11.6s-11.944-8-13.135-10.033-2.387-.811-3.583-2.138-2.342-2.844-2.342-2.844a20.192,20.192,0,0,1-5.7-4.113c-2.79-2.867-5.249-7.247-6.794-9.883A16.305,16.305,0,0,0,237.641,207.843Z" transform="translate(-188.403 -170.743)" fill="#fff" stroke="#263238" stroke-linecap="round" stroke-linejoin="round" stroke-width="1"/>
      <path id="Trazado_223" data-name="Trazado 223" d="M240.1,209.661s-3.565-.865-3.873-3.216a4.325,4.325,0,0,0-.765-1.644s-3.325-.163-3.116-1.517l4.439-.394a7.727,7.727,0,0,1,3.864,3.252" transform="translate(-190.135 -174.256)" fill="#fff" stroke="#263238" stroke-linecap="round" stroke-linejoin="round" stroke-width="1"/>
      <path id="Trazado_224" data-name="Trazado 224" d="M235.86,211.005a1.458,1.458,0,0,0,.149-.96s.978-.181.87-1.046c0,0,1.449-.177.512-1.889" transform="translate(-192.061 -176.564)" fill="none" stroke="#263238" stroke-linecap="round" stroke-linejoin="round" stroke-width="1"/>
      <path id="Trazado_225" data-name="Trazado 225" d="M235.49,208.736s-1.952-1.445-2.17-2.106" transform="translate(-190.672 -176.302)" fill="none" stroke="#263238" stroke-linecap="round" stroke-linejoin="round" stroke-width="1"/>
      <path id="Trazado_226" data-name="Trazado 226" d="M233.635,211.167s-2.079-1.268-2.115-2.007" transform="translate(-189.687 -177.686)" fill="none" stroke="#263238" stroke-linecap="round" stroke-linejoin="round" stroke-width="1"/>
      <path id="Trazado_227" data-name="Trazado 227" d="M235.117,199.21a3.166,3.166,0,0,1-1.757,1.436" transform="translate(-190.694 -172.242)" fill="none" stroke="#263238" stroke-linecap="round" stroke-linejoin="round" stroke-width="1"/>
      <path id="Trazado_228" data-name="Trazado 228" d="M236.51,200.23a5.685,5.685,0,0,1,.978.648" transform="translate(-192.417 -172.8)" fill="none" stroke="#263238" stroke-linecap="round" stroke-linejoin="round" stroke-width="1"/>
      <path id="Trazado_229" data-name="Trazado 229" d="M355.119,278.165a106.976,106.976,0,0,0-15.812-5.281c-7.954-1.862-20.835-3.524-20.835-3.524s3.542,36.144,2.609,38.318-6.531,9.475-6.531,9.475,30.3,11.813,35.578,12.818,2.527-17.325,2.527-17.325S358.236,289.348,355.119,278.165Z" transform="translate(-235.11 -210.619)" fill="#263238"/>
      <path id="Trazado_230" data-name="Trazado 230" d="M364.836,268.2s.72,1.359-1.173,2.07c-4.905,1.812-10.132.213-9.575-1.708.213-.734,1.427,0,1.359-2.718a3.338,3.338,0,0,0-.331-1.2,12.444,12.444,0,0,0-1.246-2.088,25.943,25.943,0,0,0-1.68-2.1s7.786-4.982,13.561,0C365.742,260.433,363.595,261.52,364.836,268.2Z" transform="translate(-255.702 -204.536)" fill="#fff" stroke="#263238" stroke-linecap="round" stroke-linejoin="round" stroke-width="1"/>
      <path id="Trazado_231" data-name="Trazado 231" d="M323.711,394.748c-3.066,4.982-18.625,7.342-27.117,7.12s-32.928-11.776-34.586-14.24c-1.535-2.265-5.308-9.77.507-14.3a11.271,11.271,0,0,1,1.567-1.015c3.981-2.156,30.46,4.643,30.46,4.643s1.64-1.037,2.242-.96c1.848.236,3.171,1.73,6.9,2.795,2.613.747,9.747-2.124,14.3.344a6.288,6.288,0,0,1,1.386,1.006C323.634,384.2,326.773,389.752,323.711,394.748Z" transform="translate(-204.929 -266.708)" fill="#43f7d4"/>
      <g id="Grupo_30" data-name="Grupo 30" transform="translate(54.453 105.179)" clip-path="url(#clip-path)">
        <path id="Trazado_232" data-name="Trazado 232" d="M321.775,379.131a20.755,20.755,0,0,0-11.74,2.382c-3.447,2.038-19.725,9.879-19.725,9.879a9.042,9.042,0,0,1,.942-2.541c-1.531-1.359-5.535-2.423-5.535-2.423-3.1-2.65-15.4-10.553-19.417-13.1a11.268,11.268,0,0,1,1.567-1.015c3.981-2.156,30.46,4.643,30.46,4.643s1.64-1.037,2.242-.96c1.848.236,3.171,1.73,6.9,2.795C310.1,379.534,317.219,376.663,321.775,379.131Z" transform="translate(-263.167 -371.887)" fill="rgba(0,0,0,0.7)" opacity="0.3"/>
      </g>
      <path id="Trazado_234" data-name="Trazado 234" d="M323.711,394.748c-3.066,4.982-18.625,7.342-27.117,7.12s-32.928-11.776-34.586-14.24c-1.535-2.265-5.308-9.77.507-14.3a11.271,11.271,0,0,1,1.567-1.015c3.981-2.156,30.46,4.643,30.46,4.643s1.64-1.037,2.242-.96c1.848.236,3.171,1.73,6.9,2.795,2.613.747,9.747-2.124,14.3.344a6.288,6.288,0,0,1,1.386,1.006C323.634,384.2,326.773,389.752,323.711,394.748Z" transform="translate(-204.929 -266.708)" fill="none" stroke="#263238" stroke-linecap="round" stroke-linejoin="round" stroke-width="1"/>
      <path id="Trazado_235" data-name="Trazado 235" d="M368.309,432.32l.389,1.708s-1.042,2.953-5.621,3.438-7.292,1.495-9.512,1.626a18.491,18.491,0,0,1-3.483-.054l-.453-.67Z" transform="translate(-254.301 -299.769)" fill="#fff" stroke="#263238" stroke-linecap="round" stroke-linejoin="round" stroke-width="1"/>
      <path id="Trazado_236" data-name="Trazado 236" d="M332.16,426.2l7.935,6.228a90.913,90.913,0,0,0,11.378-1.7h0c3.759-.87,7.043-2.115,7.22-3.827.276-2.6-2.5-3.311-5.807-3.211-.616,0-1.25.063-1.889.127-5.286.566-12.007-2.351-12.007-2.351Z" transform="translate(-244.744 -293.828)" fill="#263238"/>
      <g id="Grupo_31" data-name="Grupo 31" transform="translate(87.416 127.632)" clip-path="url(#clip-path-2)">
        <path id="Trazado_237" data-name="Trazado 237" d="M358.7,426.826A24.214,24.214,0,0,0,354.286,429s-7.369,3.791-18.7-.113l-3.429-2.695,6.83-4.742s6.717,2.921,12.007,2.351c.639-.068,1.273-.113,1.889-.127C356.165,423.574,358.924,424.272,358.7,426.826Z" transform="translate(-332.16 -421.455)" fill="rgba(0,0,0,0.7)" opacity="0.3"/>
      </g>
      <path id="Trazado_239" data-name="Trazado 239" d="M332.16,426.2l7.935,6.228a90.913,90.913,0,0,0,11.378-1.7h0c3.759-.87,7.043-2.115,7.22-3.827.276-2.6-2.5-3.311-5.807-3.211-.616,0-1.25.063-1.889.127-5.286.566-12.007-2.351-12.007-2.351Z" transform="translate(-244.744 -293.828)" fill="none" stroke="#263238" stroke-linecap="round" stroke-linejoin="round" stroke-width="1"/>
      <path id="Trazado_240" data-name="Trazado 240" d="M347.82,437.312c-1.431.231.14,3.171,2.079,2.265S349.252,437.076,347.82,437.312Z" transform="translate(-253.008 -302.487)" fill="#fff"/>
      <g id="Grupo_32" data-name="Grupo 32" transform="translate(94.258 134.801)" clip-path="url(#clip-path-3)">
        <path id="Trazado_241" data-name="Trazado 241" d="M350.509,439.11a30.316,30.316,0,0,1-3.084-.539c-.272-.575-.208-1.164.4-1.259C349.023,437.112,351.044,438.222,350.509,439.11Z" transform="translate(-347.269 -437.288)" fill="rgba(0,0,0,0.7)" opacity="0.2"/>
      </g>
      <path id="Trazado_243" data-name="Trazado 243" d="M347.82,437.312c-1.431.231.14,3.171,2.079,2.265S349.252,437.076,347.82,437.312Z" transform="translate(-253.008 -302.487)" fill="none" stroke="#263238" stroke-linecap="round" stroke-linejoin="round" stroke-width="1"/>
      <path id="Trazado_244" data-name="Trazado 244" d="M374.052,433.388c3.759-.87,7.043-2.115,7.22-3.827.276-2.6-2.5-3.311-5.807-3.211C375.32,426.49,372.118,429.583,374.052,433.388Z" transform="translate(-267.323 -296.498)" fill="#fff"/>
      <g id="Grupo_33" data-name="Grupo 33" transform="translate(106.11 129.843)" clip-path="url(#clip-path-4)">
        <path id="Trazado_245" data-name="Trazado 245" d="M381.281,429.5a24.214,24.214,0,0,0-4.412,2.174,14.847,14.847,0,0,1-3.1,1.037c-1.268-3.488,1.567-6.232,1.7-6.364C378.749,426.249,381.507,426.947,381.281,429.5Z" transform="translate(-373.438 -426.34)" fill="rgba(0,0,0,0.7)" opacity="0.3"/>
      </g>
      <path id="Trazado_247" data-name="Trazado 247" d="M374.052,433.388c3.759-.87,7.043-2.115,7.22-3.827.276-2.6-2.5-3.311-5.807-3.211C375.32,426.49,372.118,429.583,374.052,433.388Z" transform="translate(-267.323 -296.498)" fill="none" stroke="#263238" stroke-linecap="round" stroke-linejoin="round" stroke-width="1"/>
      <path id="Trazado_248" data-name="Trazado 248" d="M368.473,429.907h.023a.39.39,0,0,0,.408-.376,5.336,5.336,0,0,1,1.359-2.985.39.39,0,0,0,0-.553.394.394,0,0,0-.553,0,6.051,6.051,0,0,0-1.572,3.492A.39.39,0,0,0,368.473,429.907Z" transform="translate(-264.425 -296.246)" fill="#fff" stroke="#263238" stroke-linecap="round" stroke-linejoin="round" stroke-width="1"/>
      <path id="Trazado_249" data-name="Trazado 249" d="M364.983,429.974h.032a.39.39,0,0,0,.4-.385,5.816,5.816,0,0,1,1.2-3.107.394.394,0,1,0-.607-.5,6.558,6.558,0,0,0-1.381,3.587.389.389,0,0,0,.353.4Z" transform="translate(-262.507 -296.209)" fill="#fff" stroke="#263238" stroke-linecap="round" stroke-linejoin="round" stroke-width="1"/>
      <path id="Trazado_250" data-name="Trazado 250" d="M360.824,429.543h0a.39.39,0,0,0,.426-.353,9.031,9.031,0,0,1,1.3-3.171.4.4,0,0,0-.109-.548.394.394,0,0,0-.544.109,9.225,9.225,0,0,0-1.436,3.519.394.394,0,0,0,.358.444Z" transform="translate(-260.227 -295.987)" fill="#fff" stroke="#263238" stroke-linecap="round" stroke-linejoin="round" stroke-width="1"/>
      <path id="Trazado_251" data-name="Trazado 251" d="M356.887,429.079a.41.41,0,0,0,.1,0,.389.389,0,0,0,.322-.453,3.974,3.974,0,0,1,1.286-3.107.394.394,0,0,0-.507-.575,4.69,4.69,0,0,0-1.535,3.823A.4.4,0,0,0,356.887,429.079Z" transform="translate(-258.066 -295.708)" fill="#fff" stroke="#263238" stroke-linecap="round" stroke-linejoin="round" stroke-width="1"/>
      <path id="Trazado_252" data-name="Trazado 252" d="M352.579,427.935a.4.4,0,0,0,.127,0,.394.394,0,0,0,.294-.453c-.34-1.486,1.123-3.171,1.141-3.171a.394.394,0,0,0-.036-.553.39.39,0,0,0-.553.032c-.072.082-1.748,2-1.318,3.882a.39.39,0,0,0,.344.263Z" transform="translate(-255.687 -295.031)" fill="#fff" stroke="#263238" stroke-linecap="round" stroke-linejoin="round" stroke-width="1"/>
      <path id="Trazado_253" data-name="Trazado 253" d="M262.316,426.68l-.566,1.658s.725,3.048,5.227,4.008,7.093,2.265,9.267,2.618a18.658,18.658,0,0,0,3.469.308l.521-.62Z" transform="translate(-206.225 -296.683)" fill="#fff" stroke="#263238" stroke-linecap="round" stroke-linejoin="round" stroke-width="1"/>
      <path id="Trazado_254" data-name="Trazado 254" d="M289.414,425.891l-8.542,5.358a91.132,91.132,0,0,1-11.138-2.885h0c-3.646-1.259-6.794-2.844-6.794-4.566,0-2.618,2.84-3.03,6.115-2.586.611.082,1.236.195,1.866.326,5.2,1.119,12.184-1.078,12.184-1.078Z" transform="translate(-206.876 -293.281)" fill="#263238"/>
      <g id="Grupo_34" data-name="Grupo 34" transform="translate(56.064 127.179)" clip-path="url(#clip-path-5)">
        <path id="Trazado_255" data-name="Trazado 255" d="M302.992,425.907l-5.023,3.171a20.319,20.319,0,0,1-10.209-7.188,34.013,34.013,0,0,0,8.936-1.4Z" transform="translate(-276.518 -420.476)" fill="rgba(0,0,0,0.7)" opacity="0.3"/>
      </g>
      <path id="Trazado_257" data-name="Trazado 257" d="M289.414,425.891l-8.542,5.358a91.132,91.132,0,0,1-11.138-2.885h0c-3.646-1.259-6.794-2.844-6.794-4.566,0-2.618,2.84-3.03,6.115-2.586.611.082,1.236.195,1.866.326,5.2,1.119,12.184-1.078,12.184-1.078Z" transform="translate(-206.876 -293.281)" fill="none" stroke="#263238" stroke-linecap="round" stroke-linejoin="round" stroke-width="1"/>
      <path id="Trazado_258" data-name="Trazado 258" d="M269.734,429.076c-3.646-1.259-6.794-2.844-6.794-4.566,0-2.618,2.84-3.03,6.115-2.586C269.2,422.078,272.058,425.5,269.734,429.076Z" transform="translate(-206.876 -293.997)" fill="#fff" stroke="#263238" stroke-linecap="round" stroke-linejoin="round" stroke-width="1"/>
      <path id="Trazado_259" data-name="Trazado 259" d="M282.727,426.366H282.7a.4.4,0,0,1-.371-.417,5.313,5.313,0,0,0-1.028-3.107.394.394,0,1,1,.616-.485,6.01,6.01,0,0,1,1.2,3.623A.39.39,0,0,1,282.727,426.366Z" transform="translate(-216.862 -294.218)" fill="#fff" stroke="#263238" stroke-linecap="round" stroke-linejoin="round" stroke-width="1"/>
      <path id="Trazado_260" data-name="Trazado 260" d="M286.393,426.854h-.036a.394.394,0,0,1-.358-.426,5.784,5.784,0,0,0-.865-3.211.4.4,0,1,1,.652-.453,6.49,6.49,0,0,1,1,3.714A.394.394,0,0,1,286.393,426.854Z" transform="translate(-218.979 -294.448)" fill="#fff" stroke="#263238" stroke-linecap="round" stroke-linejoin="round" stroke-width="1"/>
      <path id="Trazado_261" data-name="Trazado 261" d="M290.491,426.87h0a.4.4,0,0,1-.39-.4,8.473,8.473,0,0,0-.965-3.27.4.4,0,0,1,.168-.534.394.394,0,0,1,.53.168,9.206,9.206,0,0,1,1.055,3.651.394.394,0,0,1-.4.385Z" transform="translate(-221.183 -294.464)" fill="#fff" stroke="#263238" stroke-linecap="round" stroke-linejoin="round" stroke-width="1"/>
      <path id="Trazado_262" data-name="Trazado 262" d="M294.369,426.7h-.1a.394.394,0,0,1-.272-.485,3.96,3.96,0,0,0-.951-3.225.394.394,0,1,1,.584-.525,4.689,4.689,0,0,1,1.123,3.963A.4.4,0,0,1,294.369,426.7Z" transform="translate(-223.277 -294.293)" fill="#fff" stroke="#263238" stroke-linecap="round" stroke-linejoin="round" stroke-width="1"/>
      <path id="Trazado_263" data-name="Trazado 263" d="M298.937,426.041a.3.3,0,0,1-.127-.023.385.385,0,0,1-.245-.5c.494-1.44-.788-3.266-.8-3.284a.394.394,0,1,1,.639-.453c.063.086,1.526,2.17.906,4A.4.4,0,0,1,298.937,426.041Z" transform="translate(-225.874 -293.893)" fill="#fff" stroke="#263238" stroke-linecap="round" stroke-linejoin="round" stroke-width="1"/>
      <path id="Trazado_264" data-name="Trazado 264" d="M301.048,436.04c1.4.385-.453,3.125-2.305,2.038S299.653,435.659,301.048,436.04Z" transform="translate(-226.123 -301.768)" fill="#fff" stroke="#263238" stroke-linecap="round" stroke-linejoin="round" stroke-width="1"/>
      <path id="Trazado_265" data-name="Trazado 265" d="M268.92,404c2.1,2.94,8.316,6.187,14.494,8.864a29.091,29.091,0,0,0,3.886,5.077c3.814,3.922,5.367,1.726,5.367,1.726s2.41-.272,5.965-.756a1.7,1.7,0,0,0,1.812,1.01,7.321,7.321,0,0,0,2.36-1.608c8.982-1.359,21.17-3.623,24.458-6.26" transform="translate(-210.147 -284.276)" fill="#43f7d4" stroke="#263238" stroke-linecap="round" stroke-linejoin="round" stroke-width="1"/>
      <path id="Trazado_266" data-name="Trazado 266" d="M340.94,389.649c-1.554-1.708-3.107-1.785-6.368-1.554a81.813,81.813,0,0,0-14.449,6.291,155.451,155.451,0,0,1-14.6,7.365,8.083,8.083,0,0,0-4.48,0s-1.291.1-.426,2.355" transform="translate(-227.326 -275.523)" fill="none" stroke="#263238" stroke-linecap="round" stroke-linejoin="round" stroke-width="1"/>
      <path id="Trazado_267" data-name="Trazado 267" d="M394.267,414.17s.045,2.632-3.687,4.452" transform="translate(-276.703 -289.84)" fill="none" stroke="#263238" stroke-linecap="round" stroke-linejoin="round" stroke-width="1"/>
      <path id="Trazado_268" data-name="Trazado 268" d="M307.84,389.93s5.888,4.258,7.07,7.066a24.243,24.243,0,0,1,3.343,1.726" transform="translate(-231.439 -276.579)" fill="none" stroke="#263238" stroke-linecap="round" stroke-linejoin="round" stroke-width="1"/>
      <path id="Trazado_269" data-name="Trazado 269" d="M324.39,397.74a6.794,6.794,0,0,1,.208,3.809" transform="translate(-240.493 -280.851)" fill="none" stroke="#263238" stroke-linecap="round" stroke-linejoin="round" stroke-width="1"/>
      <path id="Trazado_270" data-name="Trazado 270" d="M321.39,391.64a10.3,10.3,0,0,1,.842,1.472" transform="translate(-238.852 -277.514)" fill="none" stroke="#263238" stroke-linecap="round" stroke-linejoin="round" stroke-width="1"/>
      <path id="Trazado_271" data-name="Trazado 271" d="M339.91,390.78a16.23,16.23,0,0,1,2.459,4.774" transform="translate(-248.984 -277.044)" fill="none" stroke="#263238" stroke-linecap="round" stroke-linejoin="round" stroke-width="1"/>
      <path id="Trazado_272" data-name="Trazado 272" d="M364.14,425.612a16.919,16.919,0,0,0,2.183-.272" transform="translate(-262.239 -295.95)" fill="none" stroke="#263238" stroke-linecap="round" stroke-linejoin="round" stroke-width="1"/>
      <path id="Trazado_273" data-name="Trazado 273" d="M323.33,421.77a104.931,104.931,0,0,0,16.935,1.943" transform="translate(-239.913 -293.997)" fill="none" stroke="#263238" stroke-linecap="round" stroke-linejoin="round" stroke-width="1"/>
      <path id="Trazado_274" data-name="Trazado 274" d="M373.4,329.356s-1.064,18.57-2.319,19.635-3.234,1.4-6.98,1.708-20.314,1.327-20.314,1.327L342,346.7s8.81-.906,12.718-2.333a65.552,65.552,0,0,1,9.022-2.382,64.429,64.429,0,0,1-.743-6.681V325.85" transform="translate(-250.127 -241.523)" fill="#fff" stroke="#263238" stroke-linecap="round" stroke-linejoin="round" stroke-width="1"/>
      <path id="Trazado_275" data-name="Trazado 275" d="M393.3,288.8c4.036,2.487,5.227,8.234,3.832,20.5a1.3,1.3,0,0,1-.571,2.174s-6.6-2.469-9.666-.765-2.265-2.351-2.265-2.351-1.264-11.287,1.531-13.33" transform="translate(-273.296 -221.254)" fill="#263238"/>
      <path id="Trazado_276" data-name="Trazado 276" d="M385.284,298.75s-3.882,4.036-.453,14.236a16.638,16.638,0,0,0-.453,2.536c0,.684.938,1.037.938,1.037" transform="translate(-272.785 -226.697)" fill="none" stroke="#fff" stroke-linecap="round" stroke-linejoin="round" stroke-width="1"/>
      <path id="Trazado_277" data-name="Trazado 277" d="M377.52,313.84s.281,4.982,3.37,7.143" transform="translate(-269.559 -234.953)" fill="none" stroke="#fff" stroke-linecap="round" stroke-linejoin="round" stroke-width="1"/>
      <path id="Trazado_278" data-name="Trazado 278" d="M364.361,283.234s-6.019,2.305-10.807-.249c-2.84-1.513-1.671-3.945-1.671-3.945" transform="translate(-255.403 -215.915)" fill="none" stroke="#fff" stroke-linecap="round" stroke-linejoin="round" stroke-width="1"/>
      <path id="Trazado_279" data-name="Trazado 279" d="M282.011,388.274h32.765a8.537,8.537,0,0,0,2.192-.285l6.463-1.694a.417.417,0,0,0,.313-.4h0a.421.421,0,0,0-.421-.421H280.657a.421.421,0,0,0-.417.421v.611A1.771,1.771,0,0,0,282.011,388.274Z" transform="translate(-216.34 -274.139)" fill="#757575" stroke="#263238" stroke-linecap="round" stroke-linejoin="round" stroke-width="1"/>
      <path id="Trazado_280" data-name="Trazado 280" d="M267.986,356.887h32.856a.779.779,0,0,0,.765-1.051l-6.092-23.7a1.449,1.449,0,0,0-1.313-1.055H261.336a.784.784,0,0,0-.765,1.055l6.1,23.7A1.44,1.44,0,0,0,267.986,356.887Z" transform="translate(-205.553 -244.383)" fill="#999" stroke="#263238" stroke-linecap="round" stroke-linejoin="round" stroke-width="1"/>
      <line id="Línea_28" data-name="Línea 28" x1="0.621" transform="translate(56.322 87.539)" fill="none" stroke="#263238" stroke-linecap="round" stroke-linejoin="round" stroke-width="1"/>
      <line id="Línea_29" data-name="Línea 29" x1="3.207" transform="translate(58.551 87.539)" fill="none" stroke="#263238" stroke-linecap="round" stroke-linejoin="round" stroke-width="1"/>
      <path id="Trazado_281" data-name="Trazado 281" d="M309.119,354.912,303.738,334a1.445,1.445,0,0,0-1.309-1.055H277.11" transform="translate(-214.628 -245.401)" fill="none" stroke="#263238" stroke-linecap="round" stroke-linejoin="round" stroke-width="1"/>
      <line id="Línea_30" data-name="Línea 30" x1="0.136" y1="0.521" transform="translate(94.822 110.81)" fill="none" stroke="#263238" stroke-linecap="round" stroke-linejoin="round" stroke-width="1"/>
      <path id="Trazado_282" data-name="Trazado 282" d="M298.81,357.563a3.234,3.234,0,0,0,.118.566,2.344,2.344,0,1,0,1.458-3.238,2.092,2.092,0,0,0-.412.177A2.532,2.532,0,0,1,298.81,357.563Z" transform="translate(-226.499 -257.365)" fill="#fff" stroke="#263238" stroke-linecap="round" stroke-linejoin="round" stroke-width="1"/>
      <path id="Trazado_283" data-name="Trazado 283" d="M316.632,255.764c-2.844-.308-4.393-3.012-6.106-3.433a18.867,18.867,0,0,1-2.8-.906s-.589-2.056-1.472-1.359-2.043,16.079-.906,15.595,1.141,1.332,1.141,1.332l10.558,9.3,8.85-15.672S319.476,256.076,316.632,255.764Z" transform="translate(-229.818 -199.985)" fill="#263238"/>
      <path id="Trazado_284" data-name="Trazado 284" d="M140.88,141.616v-.226h.226" transform="translate(-140.101 -140.611)" fill="none" stroke="#263238" stroke-linecap="round" stroke-linejoin="round" stroke-width="1"/>
      <line id="Línea_31" data-name="Línea 31" x2="38.318" transform="translate(2.337 0.779)" fill="none" stroke="#263238" stroke-linecap="round" stroke-linejoin="round" stroke-width="1" stroke-dasharray="0.978 2.934"/>
      <path id="Trazado_285" data-name="Trazado 285" d="M230.38,141.39h.226v.226" transform="translate(-189.063 -140.611)" fill="none" stroke="#263238" stroke-linecap="round" stroke-linejoin="round" stroke-width="1"/>
      <line id="Línea_32" data-name="Línea 32" y2="24.685" transform="translate(41.548 2.364)" fill="none" stroke="#263238" stroke-linecap="round" stroke-linejoin="round" stroke-width="1" stroke-dasharray="1 3"/>
      <path id="Trazado_286" data-name="Trazado 286" d="M230.606,200.89v.226h-.226" transform="translate(-189.063 -173.161)" fill="none" stroke="#263238" stroke-linecap="round" stroke-linejoin="round" stroke-width="1"/>
      <line id="Línea_33" data-name="Línea 33" x1="38.318" transform="translate(1.671 27.955)" fill="none" stroke="#263238" stroke-linecap="round" stroke-linejoin="round" stroke-width="1" stroke-dasharray="0.978 2.934"/>
      <path id="Trazado_287" data-name="Trazado 287" d="M141.106,201.116h-.226v-.226" transform="translate(-140.101 -173.161)" fill="none" stroke="#263238" stroke-linecap="round" stroke-linejoin="round" stroke-width="1"/>
      <line id="Línea_34" data-name="Línea 34" y1="24.685" transform="translate(0.784 1.685)" fill="none" stroke="#263238" stroke-linecap="round" stroke-linejoin="round" stroke-width="1" stroke-dasharray="1 3"/>
      <circle id="Elipse_8" data-name="Elipse 8" cx="0.67" cy="0.67" r="0.67" transform="translate(20.495 0.109)" fill="#43f7d4" stroke="#263238" stroke-linecap="round" stroke-linejoin="round" stroke-width="1"/>
      <circle id="Elipse_9" data-name="Elipse 9" cx="0.67" cy="0.67" r="0.67" transform="translate(0.113 13.697)" fill="#43f7d4" stroke="#263238" stroke-linecap="round" stroke-linejoin="round" stroke-width="1"/>
      <circle id="Elipse_10" data-name="Elipse 10" cx="0.67" cy="0.67" r="0.67" transform="translate(20.495 27.285)" fill="#43f7d4" stroke="#263238" stroke-linecap="round" stroke-linejoin="round" stroke-width="1"/>
      <circle id="Elipse_11" data-name="Elipse 11" cx="0.67" cy="0.67" r="0.67" transform="translate(40.877 13.697)" fill="#43f7d4" stroke="#263238" stroke-linecap="round" stroke-linejoin="round" stroke-width="1"/>
      <rect id="Rectángulo_124" data-name="Rectángulo 124" width="1.563" height="1.563" transform="translate(40.764 27.176)" fill="#43f7d4" stroke="#263238" stroke-linecap="round" stroke-linejoin="round" stroke-width="1"/>
      <rect id="Rectángulo_125" data-name="Rectángulo 125" width="1.563" height="1.563" transform="translate(40.764)" fill="#43f7d4" stroke="#263238" stroke-linecap="round" stroke-linejoin="round" stroke-width="1"/>
      <rect id="Rectángulo_126" data-name="Rectángulo 126" width="1.563" height="1.563" transform="translate(0 27.176)" fill="#43f7d4" stroke="#263238" stroke-linecap="round" stroke-linejoin="round" stroke-width="1"/>
      <rect id="Rectángulo_127" data-name="Rectángulo 127" width="1.563" height="1.563" fill="#43f7d4" stroke="#263238" stroke-linecap="round" stroke-linejoin="round" stroke-width="1"/>
      <rect id="Rectángulo_128" data-name="Rectángulo 128" width="35.478" height="22.543" transform="translate(3.488 3.184)" fill="#fff" stroke="#263238" stroke-linecap="round" stroke-linejoin="round" stroke-width="1"/>
      <path id="Trazado_288" data-name="Trazado 288" d="M182.338,170.424l-3.945,3.945L167.722,163.7l-4.489,4.489-7.156-7.156-9.217,9.213v6.839h35.478Z" transform="translate(-143.372 -151.355)" fill="#43f7d4" stroke="#263238" stroke-linecap="round" stroke-linejoin="round" stroke-width="1"/>
      <circle id="Elipse_12" data-name="Elipse 12" cx="2.505" cy="2.505" r="2.505" transform="translate(29.11 7.079)" fill="#43f7d4" stroke="#263238" stroke-linecap="round" stroke-linejoin="round" stroke-width="1"/>
      <path id="Trazado_289" data-name="Trazado 289" d="M331.329,272a32.157,32.157,0,0,0-3.039,12.8" transform="translate(-242.627 -212.063)" fill="none" stroke="#fff" stroke-linecap="round" stroke-linejoin="round" stroke-width="1"/>
      <path id="Trazado_290" data-name="Trazado 290" d="M317.36,279.73a20.327,20.327,0,0,0,3.171,7.419" transform="translate(-236.647 -216.292)" fill="none" stroke="#fff" stroke-linecap="round" stroke-linejoin="round" stroke-width="1"/>
      <path id="Trazado_291" data-name="Trazado 291" d="M342,318.93s4.076,13.389,12.931,17.329" transform="translate(-250.127 -237.737)" fill="none" stroke="#fff" stroke-linecap="round" stroke-linejoin="round" stroke-width="1"/>
      <path id="Trazado_292" data-name="Trazado 292" d="M360.319,265.42a3.615,3.615,0,0,1-3.193,3.125,12.441,12.441,0,0,0-1.246-2.088A39.217,39.217,0,0,1,360.319,265.42Z" transform="translate(-257.72 -208.464)" fill="#263238"/>
      <path id="Trazado_293" data-name="Trazado 293" d="M360.3,242.2s4.7.575,6.663-5.73.421-11.056-7.351-13.343c-4.312-1.268-8.606-.249-10.177,3.017-1.332,2.795-.7,5.118-1.006,6.056-.344,1.051-3.524,1.943-3.524,2.663,0,.593,1.762,1.608,1.762,1.608l-.516,1.567.485.258s-.906,3.528-.485,4.774c.3.906,8.257,1.286,8.878-.969" transform="translate(-251.713 -185.035)" fill="#fff" stroke="#263238" stroke-linecap="round" stroke-linejoin="round" stroke-width="1"/>
      <path id="Trazado_294" data-name="Trazado 294" d="M355,235.47s1.554.39,1.979,1.2" transform="translate(-257.239 -192.079)" fill="none" stroke="#263238" stroke-linecap="round" stroke-linejoin="round" stroke-width="1"/>
      <path id="Trazado_295" data-name="Trazado 295" d="M355.575,242.443c-.068.453.036.847.236.874s.408-.317.476-.775-.041-.847-.236-.874S355.643,241.985,355.575,242.443Z" transform="translate(-257.542 -195.469)" fill="#263238"/>
      <path id="Trazado_296" data-name="Trazado 296" d="M348.72,257.25s2.527.969,3.469.385" transform="translate(-253.803 -203.994)" fill="none" stroke="#263238" stroke-linecap="round" stroke-linejoin="round" stroke-width="1"/>
      <path id="Trazado_297" data-name="Trazado 297" d="M350.6,240.548c-.186,1.015.041,1.9.507,1.988s1-.661,1.187-1.671-.036-1.907-.507-1.993S350.792,239.538,350.6,240.548Z" transform="translate(-254.797 -193.936)" fill="none" stroke="#263238" stroke-linecap="round" stroke-linejoin="round" stroke-width="1"/>
      <path id="Trazado_298" data-name="Trazado 298" d="M370.973,222.722a7.473,7.473,0,0,0-2.953-4.556,13.819,13.819,0,0,0-5.68-2.324,5.715,5.715,0,0,1,2.07,1.522,9.129,9.129,0,0,0-8.492-1c-4.611,1.916-4.036,6.894-4.036,6.894l.67-1.3s-.077,1.554.738,2.124a10.2,10.2,0,0,1,.992-2.174,8.551,8.551,0,0,0,4.588,4.919,2.673,2.673,0,0,1-.054-1.812s1.866,4.036,1.323,6.006l.593,1.033s2.142-2.17,3.886-.362c1,1.042-1.916,4.982-2.333,4.982l1.762,2.586a7.09,7.09,0,0,0,6.939-4.14c2.536-4.769,1.916-6.794,1.916-6.794a5.863,5.863,0,0,1,.906,1.812C373.818,230.123,374.57,225,370.973,222.722Z" transform="translate(-255.521 -181.269)" fill="#263238"/>
      <path id="Trazado_299" data-name="Trazado 299" d="M371.19,248.8s1.359-4.566,4.249-2.958.829,4.045-.208,4.982-1.812,2.641-2.487,2.641-.824-.829-.824-.829" transform="translate(-266.096 -197.567)" fill="#fff" stroke="#263238" stroke-linecap="round" stroke-linejoin="round" stroke-width="1"/>
      <line id="Línea_35" data-name="Línea 35" x2="8.062" y2="1.671" transform="translate(97.499 46.928)" fill="none" stroke="#263238" stroke-linecap="round" stroke-linejoin="round" stroke-width="1"/>
    </g>
  </g>
</svg>
